<svg width="38" height="32" viewBox="0 0 38 32" fill="none" xmlns="http://www.w3.org/2000/svg">
<path d="M28.7515 22.2429C28.3802 22.435 27.9659 22.5354 27.5452 22.5354C27.1245 22.5354 26.7103 22.435 26.339 22.2429L20.9005 19.1214L17.1015 17.072L11.6631 13.9487C11.2918 13.7566 10.8775 13.6562 10.4568 13.6562C10.0361 13.6562 9.62188 13.7566 9.25061 13.9487L4.92841 16.39C4.57267 16.5891 4.27513 16.873 4.06391 17.2148C3.85268 17.5566 3.73477 17.9451 3.7213 18.3435V23.2166C3.71363 23.6193 3.82269 24.0159 4.03604 24.3613C4.24939 24.7067 4.55845 24.9869 4.92797 25.1701L9.25061 27.5111C9.62162 27.704 10.036 27.8049 10.4568 27.8049C10.8777 27.8049 11.292 27.704 11.6631 27.5111L15.9852 25.1696C16.3409 24.9705 16.6384 24.6866 16.8495 24.3447C17.0606 24.0029 17.1785 23.6145 17.1919 23.2162V20.0968L20.9005 22.2425V25.266C20.9106 25.6666 20.8048 26.062 20.5951 26.4073C20.3855 26.7525 20.0803 27.0339 19.7143 27.2194L11.7619 31.7062C11.3909 31.8991 10.9765 32 10.5557 32C10.1348 32 9.72046 31.8991 9.34945 31.7062L1.30885 27.2194C0.907432 27.0681 0.565253 26.798 0.330784 26.4474C0.0963145 26.0968 -0.0185567 25.6835 0.00244146 25.266V16.1943C-0.00343457 15.7933 0.106535 15.3987 0.319886 15.0553C0.533237 14.7119 0.841437 14.4333 1.20956 14.2512L9.25061 9.75359C9.62188 9.56155 10.0361 9.4611 10.4568 9.4611C10.8775 9.4611 11.2918 9.56155 11.6631 9.75359L17.1015 12.7788L20.8204 14.9245L26.2402 17.9398C26.6114 18.1319 27.0257 18.2323 27.4464 18.2323C27.8671 18.2323 28.2813 18.1319 28.6526 17.9398L32.9748 15.5983C33.3303 15.3991 33.6276 15.1152 33.8385 14.7733C34.0494 14.4315 34.167 14.0431 34.1801 13.6449V8.86418C34.1879 8.46192 34.0789 8.06565 33.8658 7.72057C33.6527 7.37548 33.344 7.09548 32.9748 6.91249L28.6526 4.47503C28.2816 4.28218 27.8672 4.18127 27.4464 4.18127C27.0255 4.18127 26.6112 4.28218 26.2402 4.47503L21.918 6.81655C21.5623 7.01525 21.2648 7.29873 21.0536 7.64018C20.8424 7.98163 20.7244 8.36975 20.7108 8.76781V11.9011L17.1015 9.85342V6.73357C17.0936 6.33104 17.2024 5.93444 17.4155 5.58904C17.6286 5.24364 17.9375 4.96335 18.3069 4.78015L26.3479 0.293762C26.7192 0.100904 27.1339 0 27.555 0C27.9762 0 28.3908 0.100904 28.7621 0.293762L36.8027 4.78101C37.1561 4.98091 37.4513 5.26469 37.6607 5.6057C37.87 5.94671 37.9867 6.33378 37.9996 6.73054V15.8062C38.0073 16.2086 37.8982 16.6051 37.6848 16.9502C37.4713 17.2954 37.1621 17.5752 36.7925 17.7579L28.7515 22.2429Z" fill="white"/>
</svg>
