<svg width="36" height="30" viewBox="0 0 36 30" fill="none" xmlns="http://www.w3.org/2000/svg">
<path d="M27.2382 9.14724C26.8865 8.96719 26.494 8.87302 26.0955 8.87302C25.6969 8.87302 25.3045 8.96719 24.9527 9.14724L19.8005 12.0737L16.2014 13.995L11.0492 16.9231C10.6975 17.1031 10.305 17.1973 9.90647 17.1973C9.50791 17.1973 9.11546 17.1031 8.76373 16.9231L4.66902 14.6343C4.33201 14.4477 4.05012 14.1815 3.85002 13.8611C3.64991 13.5406 3.5382 13.1765 3.52544 12.803V8.23441C3.51817 7.85693 3.62149 7.4851 3.82362 7.1613C4.02574 6.8375 4.31853 6.57477 4.6686 6.40308L8.76373 4.20831C9.11521 4.02751 9.50776 3.93291 9.90647 3.93291C10.3052 3.93291 10.6977 4.02751 11.0492 4.20831L15.1439 6.40348C15.4809 6.5902 15.7627 6.85635 15.9627 7.1768C16.1627 7.49724 16.2744 7.86139 16.2871 8.23481V11.1593L19.8005 9.14764V6.31313C19.81 5.93752 19.7098 5.56686 19.5112 5.24318C19.3126 4.91949 19.0235 4.65573 18.6767 4.4818L11.1429 0.275406C10.7914 0.0946043 10.3988 0 10.0001 0C9.6014 0 9.20886 0.0946043 8.85738 0.275406L1.23996 4.4818C0.859673 4.62368 0.535503 4.8769 0.313374 5.20558C0.0912454 5.53426 -0.01758 5.92174 0.00231296 6.31313V14.8179C-0.0032538 15.1938 0.100928 15.5637 0.30305 15.8857C0.505172 16.2076 0.797151 16.4688 1.14589 16.6395L8.76373 20.856C9.11546 21.0361 9.50791 21.1302 9.90647 21.1302C10.305 21.1302 10.6975 21.0361 11.0492 20.856L16.2014 18.0199L19.7246 16.0082L24.8591 13.1814C25.2108 13.0014 25.6033 12.9072 26.0018 12.9072C26.4004 12.9072 26.7928 13.0014 27.1446 13.1814L31.2393 15.3766C31.5761 15.5633 31.8577 15.8295 32.0575 16.15C32.2574 16.4705 32.3688 16.8346 32.3812 17.2079V21.6898C32.3885 22.0669 32.2853 22.4385 32.0834 22.762C31.8815 23.0855 31.589 23.348 31.2393 23.5195L27.1446 25.8047C26.7931 25.9855 26.4006 26.0801 26.0018 26.0801C25.6031 26.0801 25.2106 25.9855 24.8591 25.8047L20.7644 23.6095C20.4275 23.4232 20.1456 23.1574 19.9455 22.8373C19.7454 22.5172 19.6336 22.1534 19.6208 21.7802V18.8428L16.2014 20.7624V23.6873C16.1939 24.0647 16.297 24.4365 16.4989 24.7603C16.7008 25.0841 16.9934 25.3469 17.3433 25.5186L24.9612 29.7246C25.313 29.9054 25.7058 30 26.1048 30C26.5037 30 26.8966 29.9054 27.2483 29.7246L34.8658 25.5178C35.2005 25.3304 35.4802 25.0644 35.6785 24.7447C35.8769 24.425 35.9874 24.0621 35.9996 23.6901V15.1817C36.0069 14.8044 35.9036 14.4327 35.7014 14.1092C35.4991 13.7856 35.2062 13.5232 34.8561 13.352L27.2382 9.14724Z" fill="#311F59"/>
</svg>
