<svg width="28" height="31" viewBox="0 0 28 31" fill="none" xmlns="http://www.w3.org/2000/svg">
<path d="M27.9942 15.5102C27.9945 17.5919 27.9808 19.6738 27.9998 21.7553C28.0106 22.9264 27.5034 23.7614 26.4879 24.3368C22.8455 26.4007 19.2047 28.4675 15.5711 30.5467C14.5035 31.1576 13.4765 31.1475 12.4117 30.5379C8.77845 28.4579 5.13814 26.39 1.49451 24.328C0.503556 23.7671 0.000394476 22.9568 0.00251771 21.8184C0.0103777 17.6036 0.0137213 13.3887 2.00678e-05 9.17388C-0.0036044 8.0588 0.483769 7.25076 1.43487 6.70924C5.11822 4.61208 8.80964 2.52881 12.493 0.4316C13.5095 -0.14719 14.5 -0.141877 15.5143 0.435659C19.1978 2.53291 22.8885 4.61762 26.5725 6.71397C27.5294 7.25846 28.0032 8.08272 27.9973 9.18797C27.986 11.2953 27.994 13.4028 27.9942 15.5102ZM19.0226 25.8977C17.6491 23.6602 16.3119 21.4926 14.9927 19.3143C14.8797 19.1276 14.7698 18.8049 14.8552 18.6561C15.477 17.5732 16.1492 16.5188 16.8677 15.3545C18.6904 18.3135 20.4538 21.1763 22.238 24.0728C22.6048 23.8597 22.9271 23.6725 23.2687 23.474C21.4574 20.5227 19.6908 17.6524 17.9388 14.7735C17.8035 14.5511 17.6235 14.1868 17.7138 14.0255C18.335 12.9167 19.0228 11.8444 19.7348 10.6859C21.7005 13.8793 23.5937 16.9549 25.5873 20.1935C25.6333 19.9008 25.6599 19.8104 25.66 19.7199C25.6625 16.2741 25.6772 12.828 25.6365 9.38265C25.633 9.08978 25.3231 8.68863 25.0439 8.52779C21.5708 6.52733 18.0718 4.57107 14.5951 2.57669C14.1496 2.32113 13.8342 2.33162 13.3944 2.58402C9.94009 4.56623 6.47534 6.53084 2.99735 8.47197C2.49792 8.75071 2.32037 9.06949 2.32457 9.62705C2.34822 12.7641 2.33493 15.9015 2.33821 19.0388C2.33844 19.2522 2.3712 19.4655 2.40251 19.8444C2.66205 19.4428 2.82933 19.1946 2.98592 18.94C4.60386 16.309 6.22644 13.6808 7.83296 11.0431C8.32737 10.2313 8.99587 9.59028 9.93732 9.48128C10.9674 9.36202 12.0225 9.45415 13.1427 9.45415C10.2665 14.1379 7.43271 18.7525 4.58051 23.3971C4.95233 23.61 5.25897 23.7855 5.60555 23.9839C5.80369 23.675 5.97291 23.4206 6.13267 23.1606C8.82742 18.7745 11.5181 14.3859 14.2228 10.0058C14.3701 9.76714 14.6256 9.4329 14.8426 9.42387C16.1518 9.36937 17.4644 9.39678 18.9095 9.39678C15.5042 14.9445 12.1758 20.3671 8.82729 25.8223C10.4978 26.7669 12.0665 27.6671 13.654 28.5337C13.8362 28.6332 14.1706 28.6307 14.3534 28.5306C15.8933 27.6876 17.4142 26.8108 19.0226 25.8977Z" fill="white"/>
</svg>
