<svg width="48" height="49" viewBox="0 0 48 49" fill="none" xmlns="http://www.w3.org/2000/svg">
<g clip-path="url(#clip0_749_14008)">
<path d="M33.248 20.58L38.682 15.0349L23.976 0.0224915L9.272 15.0328L14.706 20.58L23.978 11.0659L33.248 20.58ZM42.522 30.0452L48 24.5L42.57 18.9549L37.136 24.5L42.522 30.0452ZM23.978 30.0452L29.41 24.549L23.976 19.0018L18.544 24.5L23.976 30.0432L23.978 30.0452ZM5.432 30.0452L10.82 24.5L5.436 19.0039L1.90735e-06 24.5L5.432 30.0452ZM23.98 48.9796L38.684 34.0142L33.25 28.4711L23.978 37.9362L14.708 28.4221L9.274 33.9672L23.978 48.9776L23.98 48.9796Z" fill="white"/>
</g>
<defs>
<clipPath id="clip0_749_14008">
<rect width="48" height="49" fill="white" transform="matrix(1 0 0 -1 0 49)"/>
</clipPath>
</defs>
</svg>
