<svg width="31" height="32" viewBox="0 0 31 32" fill="none" xmlns="http://www.w3.org/2000/svg">
<g clip-path="url(#clip0_749_14022)">
<path d="M21.4727 18.56L24.9821 22.1813L15.4845 31.9853L5.98817 22.1826L9.49763 18.56L15.4858 24.7733L21.4727 18.56ZM27.4621 12.3786L31 16L27.4931 19.6213L23.9837 16L27.4621 12.3786ZM15.4858 12.3786L18.994 15.968L15.4845 19.5906L11.9763 16L15.4845 12.38L15.4858 12.3786ZM3.50817 12.3786L6.98792 16L3.51075 19.5893L0 16L3.50817 12.3786ZM15.4871 0.0133057L24.9834 9.78664L21.474 13.4066L15.4858 7.22531L9.49892 13.4386L5.98946 9.8173L15.4858 0.014639L15.4871 0.0133057Z" fill="#311F59"/>
</g>
<defs>
<clipPath id="clip0_749_14022">
<rect width="31" height="32" fill="white"/>
</clipPath>
</defs>
</svg>
