<svg width="31" height="32" viewBox="0 0 31 32" fill="none" xmlns="http://www.w3.org/2000/svg">
<g clip-path="url(#clip0_749_14020)">
<path d="M21.4727 13.44L24.9821 9.8187L15.4845 0.0146961L5.98817 9.81736L9.49763 13.44L15.4858 7.2267L21.4727 13.44ZM27.4621 19.6214L31 16L27.4931 12.3787L23.9837 16L27.4621 19.6214ZM15.4858 19.6214L18.994 16.032L15.4845 12.4094L11.9763 16L15.4845 19.62L15.4858 19.6214ZM3.50817 19.6214L6.98792 16L3.51075 12.4107L0 16L3.50817 19.6214ZM15.4871 31.9867L24.9834 22.2134L21.474 18.5934L15.4858 24.7747L9.49892 18.5614L5.98946 22.1827L15.4858 31.9854L15.4871 31.9867Z" fill="#311F59"/>
</g>
<defs>
<clipPath id="clip0_749_14020">
<rect width="31" height="32" fill="white" transform="matrix(1 0 0 -1 0 32)"/>
</clipPath>
</defs>
</svg>
