<svg width="38" height="38" viewBox="0 0 38 38" fill="none" xmlns="http://www.w3.org/2000/svg">
<g clip-path="url(#clip0_749_14010)">
<path d="M18.6891 33.7764L18.689 33.7764C10.3148 33.5613 3.70575 26.5941 3.92359 18.2318L3.92359 18.2317C4.13878 9.85767 11.0944 3.25119 19.4687 3.46644L19.4692 3.46645C27.8284 3.67257 34.4495 10.6368 34.2342 19.0111C34.019 27.3851 27.0515 33.9942 18.6891 33.7764Z" stroke="#311F59" stroke-width="0.887843"/>
<path d="M25.9115 15.1112C25.7595 13.0215 23.9807 12.2675 21.7005 12.012L21.7801 9.10891L20.021 9.0625L19.9494 11.8889C19.4851 11.8796 19.009 11.873 18.5355 11.8782L18.6045 9.03992L16.8454 8.99351L16.7751 11.8821C16.3876 11.8807 16.012 11.8767 15.6483 11.8701L15.6456 11.8582L13.2094 11.7998L13.1656 13.6832C13.1656 13.6832 14.467 13.6939 14.4459 13.7111C15.1614 13.727 15.3809 14.1529 15.4365 14.5153L15.3463 17.8205C15.3966 17.8218 15.4587 17.8205 15.5381 17.8404C15.4759 17.8417 15.4137 17.843 15.3489 17.8324L15.2269 22.4562C15.1886 22.6771 15.0431 23.0342 14.5524 23.0183C14.5696 23.0395 13.2721 22.9904 13.2721 22.9904L12.8646 25.092L15.1646 25.1557C15.5931 25.1729 16.0071 25.1809 16.4237 25.2007L16.3495 28.1277L18.1085 28.1741L18.1881 25.271C18.6669 25.2895 19.1456 25.3081 19.598 25.32L19.5277 28.2086L21.2868 28.255L21.361 25.328C24.3369 25.2291 26.432 24.5388 26.7509 21.7574C27.0169 19.5248 25.988 18.4918 24.3136 18.0393C25.3651 17.5434 26.0251 16.6348 25.9115 15.1112ZM23.2804 21.3167C23.2287 23.5017 19.4804 23.1602 18.2861 23.1257L18.3856 19.2438C19.5799 19.2783 23.3467 19.0286 23.2804 21.3167ZM22.6062 15.808C22.5506 17.8064 19.4319 17.4875 18.4386 17.4583L18.5314 13.9402C19.5247 13.9694 22.658 13.7355 22.6062 15.808Z" fill="#311F59"/>
</g>
<defs>
<clipPath id="clip0_749_14010">
<rect width="31.2163" height="31.2163" fill="white" transform="translate(0.457031 6.76965) rotate(-12.5249)"/>
</clipPath>
</defs>
</svg>
