<svg width="25" height="24" viewBox="0 0 25 24" fill="none" xmlns="http://www.w3.org/2000/svg">
<path fill-rule="evenodd" clip-rule="evenodd" d="M12.8335 3C10.3891 3 10.0831 3.0102 9.1231 3.054C8.1649 3.0978 7.5103 3.2502 6.9379 3.4728C6.3379 3.6984 5.7937 4.0524 5.3437 4.5108C4.88603 4.96028 4.53181 5.5041 4.3057 6.1044C4.0843 6.6768 3.9313 7.332 3.8875 8.2902C3.8443 9.2496 3.8335 9.555 3.8335 12C3.8335 14.445 3.8437 14.7504 3.8875 15.7104C3.9313 16.6686 4.0837 17.3232 4.3063 17.8956C4.5319 18.4956 4.8859 19.0398 5.3443 19.4898C5.79379 19.9475 6.3376 20.3017 6.9379 20.5278C7.5103 20.7498 8.1649 20.9022 9.1231 20.946C10.0831 20.9898 10.3891 21 12.8335 21C15.2779 21 15.5839 20.9898 16.5439 20.946C17.5021 20.9022 18.1567 20.7498 18.7291 20.5272C19.3291 20.3016 19.8733 19.9476 20.3233 19.4892C20.781 19.0397 21.1352 18.4959 21.3613 17.8956C21.5833 17.3232 21.7357 16.6686 21.7795 15.7104C21.8233 14.7504 21.8335 14.4444 21.8335 12C21.8335 9.5556 21.8233 9.2496 21.7795 8.2896C21.7357 7.3314 21.5833 6.6768 21.3607 6.1044C21.1347 5.50384 20.7805 4.95979 20.3227 4.5102C19.8732 4.05253 19.3294 3.69831 18.7291 3.4722C18.1567 3.2508 17.5015 3.0978 16.5433 3.054C15.5839 3.0108 15.2785 3 12.8335 3ZM12.8335 4.6218C15.2365 4.6218 15.5215 4.6308 16.4707 4.674C17.3479 4.7142 17.8243 4.86 18.1417 4.9842C18.5617 5.1468 18.8617 5.3424 19.1767 5.6568C19.4917 5.9718 19.6867 6.2718 19.8493 6.6918C19.9729 7.0092 20.1193 7.4856 20.1595 8.3628C20.2027 9.312 20.2117 9.597 20.2117 12C20.2117 14.403 20.2027 14.688 20.1595 15.6372C20.1193 16.5144 19.9735 16.9908 19.8493 17.3082C19.7053 17.6991 19.4754 18.0528 19.1767 18.3432C18.8863 18.642 18.5327 18.8718 18.1417 19.0158C17.8243 19.1394 17.3479 19.2858 16.4707 19.326C15.5215 19.3692 15.2371 19.3782 12.8335 19.3782C10.4299 19.3782 10.1455 19.3692 9.1963 19.326C8.3191 19.2858 7.8427 19.14 7.5253 19.0158C7.13437 18.8718 6.7807 18.6419 6.4903 18.3432C6.1916 18.0528 5.96177 17.6991 5.8177 17.3082C5.6941 16.9908 5.5477 16.5144 5.5075 15.6372C5.4643 14.688 5.4553 14.403 5.4553 12C5.4553 9.597 5.4643 9.312 5.5075 8.3628C5.5477 7.4856 5.6935 7.0092 5.8177 6.6918C5.9803 6.2718 6.1759 5.9718 6.4903 5.6568C6.78066 5.35803 7.13434 5.12819 7.5253 4.9842C7.8427 4.8606 8.3191 4.7142 9.1963 4.674C10.1455 4.6308 10.4305 4.6218 12.8335 4.6218Z" fill="white"/>
<path fill-rule="evenodd" clip-rule="evenodd" d="M12.8335 15.003C12.4391 15.003 12.0486 14.9254 11.6843 14.7744C11.3199 14.6235 10.9889 14.4023 10.71 14.1235C10.4312 13.8446 10.21 13.5136 10.0591 13.1492C9.90816 12.7849 9.83049 12.3944 9.83049 12C9.83049 11.6057 9.90816 11.2152 10.0591 10.8508C10.21 10.4865 10.4312 10.1554 10.71 9.87659C10.9889 9.59774 11.3199 9.37654 11.6843 9.22562C12.0486 9.07471 12.4391 8.99703 12.8335 8.99703C13.6299 8.99703 14.3938 9.31342 14.9569 9.87659C15.5201 10.4398 15.8365 11.2036 15.8365 12C15.8365 12.7965 15.5201 13.5603 14.9569 14.1235C14.3938 14.6866 13.6299 15.003 12.8335 15.003ZM12.8335 7.37403C11.6066 7.37403 10.43 7.86141 9.56241 8.72896C8.69487 9.5965 8.20749 10.7731 8.20749 12C8.20749 13.2269 8.69487 14.4036 9.56241 15.2711C10.43 16.1387 11.6066 16.626 12.8335 16.626C14.0604 16.626 15.237 16.1387 16.1046 15.2711C16.9721 14.4036 17.4595 13.2269 17.4595 12C17.4595 10.7731 16.9721 9.5965 16.1046 8.72896C15.237 7.86141 14.0604 7.37403 12.8335 7.37403ZM18.8053 7.29003C18.8053 7.58005 18.6901 7.85818 18.485 8.06325C18.2799 8.26833 18.0018 8.38353 17.7118 8.38353C17.4218 8.38353 17.1436 8.26833 16.9386 8.06325C16.7335 7.85818 16.6183 7.58005 16.6183 7.29003C16.6183 7.00002 16.7335 6.72188 16.9386 6.51681C17.1436 6.31174 17.4218 6.19653 17.7118 6.19653C18.0018 6.19653 18.2799 6.31174 18.485 6.51681C18.6901 6.72188 18.8053 7.00002 18.8053 7.29003Z" fill="white"/>
</svg>
