<svg width="19" height="20" viewBox="0 0 19 20" fill="none" xmlns="http://www.w3.org/2000/svg">
<path fill-rule="evenodd" clip-rule="evenodd" d="M5.36576 1.92847C3.27497 1.92847 1.58005 3.62339 1.58005 5.71418V14.2856C1.58005 16.3764 3.27497 18.0713 5.36576 18.0713H13.9372C16.028 18.0713 17.7229 16.3764 17.7229 14.2856V5.71418C17.7229 3.62339 16.028 1.92847 13.9372 1.92847H5.36576ZM0.580048 5.71418C0.580048 3.0711 2.72268 0.928467 5.36576 0.928467H13.9372C16.5803 0.928467 18.7229 3.0711 18.7229 5.71418V14.2856C18.7229 16.9287 16.5803 19.0713 13.9372 19.0713H5.36576C2.72268 19.0713 0.580048 16.9287 0.580048 14.2856V5.71418ZM10.1181 7.06576C9.50881 6.9754 8.88651 7.07948 8.33975 7.36318C7.79298 7.64689 7.3496 8.09577 7.07266 8.64599C6.79572 9.19621 6.69932 9.81975 6.79718 10.4279C6.89504 11.0361 7.18218 11.5979 7.61775 12.0335C8.05331 12.469 8.61513 12.7562 9.2233 12.854C9.83146 12.9519 10.455 12.8555 11.0052 12.5786C11.5554 12.3016 12.0043 11.8582 12.288 11.3115C12.5717 10.7647 12.6758 10.1424 12.5855 9.53308C12.4933 8.91154 12.2037 8.33613 11.7594 7.89184C11.3151 7.44754 10.7397 7.15792 10.1181 7.06576ZM7.87918 6.47556C8.61264 6.09498 9.44743 5.95536 10.2648 6.07657C11.0986 6.20021 11.8705 6.58872 12.4665 7.18473C13.0625 7.78074 13.451 8.55263 13.5746 9.38639C13.6958 10.2038 13.5562 11.0386 13.1756 11.772C12.7951 12.5055 12.1929 13.1003 11.4548 13.4718C10.7167 13.8433 9.88025 13.9726 9.06443 13.8413C8.2486 13.71 7.49494 13.3249 6.91064 12.7406C6.32634 12.1563 5.94116 11.4026 5.80988 10.5868C5.6786 9.77095 5.80792 8.9345 6.17942 8.1964C6.55093 7.4583 7.14571 6.85614 7.87918 6.47556ZM14.3658 4.78561C14.0896 4.78561 13.8658 5.00947 13.8658 5.28561C13.8658 5.56175 14.0896 5.78561 14.3658 5.78561H14.3739C14.6501 5.78561 14.8739 5.56175 14.8739 5.28561C14.8739 5.00947 14.6501 4.78561 14.3739 4.78561H14.3658Z" fill="white"/>
</svg>
