<svg width="305" height="198" viewBox="0 0 305 198" fill="none" xmlns="http://www.w3.org/2000/svg">
<g opacity="0.8">
<rect x="1" y="1" width="303" height="196" rx="11" fill="url(#paint0_linear_721_14898)"/>
<path d="M15.29 23.4V14.636H12.336V13.194H19.826V14.636H16.872V23.4H15.29ZM25.254 15.728V16.68V17.058H24.904H24.764H24.736C24.064 17.058 23.546 17.2727 23.182 17.702C22.8273 18.1313 22.65 18.71 22.65 19.438V23.4H21.152V16.246V15.728H22.244H22.538V16.008V16.246V16.89C23.1353 16.1153 23.9986 15.728 25.128 15.728H25.254ZM33.4473 15.728V22.686V23.372H32.3553H32.0613V23.092V22.686V22.308C31.3987 23.12 30.596 23.526 29.6533 23.526C28.5613 23.526 27.6933 23.1667 27.0493 22.448C26.4147 21.7293 26.0973 20.7773 26.0973 19.592C26.0973 18.332 26.4053 17.352 27.0213 16.652C27.6373 15.9427 28.51 15.588 29.6393 15.588C30.5633 15.588 31.3333 15.9007 31.9493 16.526V15.728H33.4473ZM31.9493 19.48C31.9493 18.6773 31.7487 18.0473 31.3473 17.59C30.9367 17.142 30.3953 16.918 29.7233 16.918C29.042 16.918 28.5193 17.1513 28.1553 17.618C27.7913 18.094 27.6093 18.7427 27.6093 19.564C27.6093 20.3667 27.8007 21.0013 28.1833 21.468C28.5567 21.944 29.0887 22.182 29.7793 22.182C30.4607 22.182 30.9927 21.958 31.3753 21.51C31.758 21.0527 31.9493 20.4133 31.9493 19.592V19.48ZM42.4882 13.194V23.4H41.1022V22.308C40.4395 23.12 39.6322 23.526 38.6802 23.526C37.5975 23.526 36.7342 23.1667 36.0902 22.448C35.4555 21.7293 35.1382 20.7773 35.1382 19.592C35.1382 18.332 35.4462 17.352 36.0622 16.652C36.6782 15.9427 37.5462 15.588 38.6662 15.588C39.5902 15.588 40.3648 15.9007 40.9902 16.526V13.194H42.4882ZM40.9902 19.48C40.9902 18.6773 40.7895 18.0473 40.3882 17.59C39.9775 17.142 39.4315 16.918 38.7502 16.918C38.0782 16.918 37.5602 17.156 37.1962 17.632C36.8228 18.0893 36.6362 18.7333 36.6362 19.564C36.6362 19.9747 36.6828 20.334 36.7762 20.642C36.8788 20.95 37.0235 21.2253 37.2102 21.468C37.6022 21.944 38.1388 22.182 38.8202 22.182C39.5015 22.182 40.0335 21.958 40.4162 21.51C40.7988 21.0527 40.9902 20.4133 40.9902 19.592V19.48ZM51.529 20.054H45.481C45.565 20.6887 45.8077 21.202 46.209 21.594C46.6103 21.9767 47.1237 22.168 47.749 22.168C48.197 22.168 48.5937 22.0607 48.939 21.846C49.2843 21.6313 49.541 21.3373 49.709 20.964C49.7277 20.9267 49.7417 20.894 49.751 20.866C49.7697 20.838 49.7837 20.8147 49.793 20.796C49.8023 20.768 49.8117 20.7493 49.821 20.74L51.277 21.174C51.0157 21.9113 50.577 22.49 49.961 22.91C49.373 23.3207 48.6357 23.526 47.749 23.526C46.5637 23.526 45.6397 23.1667 44.977 22.448C44.2863 21.7013 43.941 20.74 43.941 19.564C43.941 18.3507 44.2863 17.3753 44.977 16.638C45.6583 15.9007 46.5823 15.532 47.749 15.532C48.9063 15.532 49.8257 15.9053 50.507 16.652C51.179 17.3893 51.5197 18.3507 51.529 19.536V20.054ZM49.961 18.724C49.8397 18.1733 49.5783 17.7253 49.177 17.38C48.813 17.0533 48.337 16.89 47.749 16.89C47.1423 16.89 46.657 17.0533 46.293 17.38C45.9197 17.6973 45.6677 18.1453 45.537 18.724H49.961ZM60.8418 15.728V16.68V17.058H60.4918H60.3518H60.3238C59.6518 17.058 59.1338 17.2727 58.7698 17.702C58.4152 18.1313 58.2378 18.71 58.2378 19.438V23.4H56.7398V16.246V15.728H57.8318H58.1258V16.008V16.246V16.89C58.7232 16.1153 59.5865 15.728 60.7158 15.728H60.8418ZM69.2286 20.054H63.1806C63.2646 20.6887 63.5073 21.202 63.9086 21.594C64.3099 21.9767 64.8233 22.168 65.4486 22.168C65.8966 22.168 66.2933 22.0607 66.6386 21.846C66.9839 21.6313 67.2406 21.3373 67.4086 20.964C67.4273 20.9267 67.4413 20.894 67.4506 20.866C67.4693 20.838 67.4833 20.8147 67.4926 20.796C67.5019 20.768 67.5113 20.7493 67.5206 20.74L68.9766 21.174C68.7153 21.9113 68.2766 22.49 67.6606 22.91C67.0726 23.3207 66.3353 23.526 65.4486 23.526C64.2633 23.526 63.3393 23.1667 62.6766 22.448C61.9859 21.7013 61.6406 20.74 61.6406 19.564C61.6406 18.3507 61.9859 17.3753 62.6766 16.638C63.3579 15.9007 64.2819 15.532 65.4486 15.532C66.6059 15.532 67.5253 15.9053 68.2066 16.652C68.8786 17.3893 69.2193 18.3507 69.2286 19.536V20.054ZM67.6606 18.724C67.5393 18.1733 67.2779 17.7253 66.8766 17.38C66.5126 17.0533 66.0366 16.89 65.4486 16.89C64.8419 16.89 64.3566 17.0533 63.9926 17.38C63.6193 17.6973 63.3673 18.1453 63.2366 18.724H67.6606ZM71.0897 21.622C70.9497 21.3233 70.8424 21.0153 70.7677 20.698C70.7024 20.3807 70.6697 20.0307 70.6697 19.648C70.6697 18.388 70.9964 17.3987 71.6497 16.68C72.2937 15.952 73.1944 15.588 74.3517 15.588C75.2291 15.588 75.9711 15.812 76.5777 16.26C77.1751 16.708 77.5857 17.352 77.8097 18.192L76.3397 18.57C76.3304 18.5513 76.3211 18.5233 76.3117 18.486C76.3024 18.4393 76.2744 18.3647 76.2277 18.262C75.8917 17.3847 75.2664 16.946 74.3517 16.946C73.6424 16.946 73.1011 17.1887 72.7277 17.674C72.3637 18.1687 72.1817 18.8267 72.1817 19.648C72.1817 20.04 72.2284 20.3807 72.3217 20.67C72.4151 20.95 72.5597 21.2113 72.7557 21.454C73.1291 21.93 73.6611 22.168 74.3517 22.168C75.3037 22.168 75.9477 21.6967 76.2837 20.754C76.2931 20.7353 76.2977 20.7073 76.2977 20.67C76.3071 20.6327 76.3211 20.5953 76.3397 20.558C76.3491 20.5207 76.3631 20.4787 76.3817 20.432L77.8657 20.754C77.6511 21.6687 77.2404 22.3593 76.6337 22.826C76.0177 23.2927 75.2571 23.526 74.3517 23.526C73.5771 23.526 72.9097 23.358 72.3497 23.022C71.7897 22.6673 71.3697 22.2007 71.0897 21.622ZM82.816 23.526C81.6774 23.526 80.7814 23.1667 80.1281 22.448C79.8014 22.0933 79.554 21.6827 79.386 21.216C79.2274 20.74 79.148 20.194 79.148 19.578C79.148 18.346 79.4747 17.3707 80.1281 16.652C80.7814 15.9427 81.6774 15.588 82.816 15.588C83.9547 15.588 84.8507 15.9473 85.5041 16.666C86.1667 17.3847 86.4981 18.3553 86.4981 19.578C86.4981 20.194 86.4141 20.74 86.2461 21.216C86.078 21.6827 85.8307 22.0933 85.5041 22.448C84.8507 23.1667 83.9547 23.526 82.816 23.526ZM81.2201 17.646C80.8374 18.1313 80.646 18.7753 80.646 19.578C80.646 19.998 80.6927 20.3573 80.786 20.656C80.8887 20.9547 81.0334 21.2207 81.2201 21.454C81.5934 21.93 82.1254 22.168 82.816 22.168C83.4974 22.168 84.0294 21.93 84.4121 21.454C84.6081 21.2113 84.7527 20.9407 84.8461 20.642C84.9394 20.3433 84.9861 19.9887 84.9861 19.578C84.9861 18.7473 84.7947 18.108 84.4121 17.66C84.0387 17.1747 83.5067 16.932 82.816 16.932C82.1254 16.932 81.5934 17.17 81.2201 17.646ZM98.2621 16.428C98.7568 16.988 99.0041 17.786 99.0041 18.822V23.4H97.5061V18.892C97.5061 18.2107 97.3801 17.716 97.1281 17.408C96.8948 17.0907 96.5214 16.932 96.0081 16.932C95.3921 16.932 94.9581 17.0907 94.7061 17.408C94.4634 17.7253 94.3421 18.22 94.3421 18.892V23.4H92.8441V18.892C92.8441 18.2573 92.7134 17.7673 92.4521 17.422C92.1908 17.0953 91.8221 16.932 91.3461 16.932C90.7394 16.932 90.3101 17.0953 90.0581 17.422C89.8154 17.7487 89.6941 18.2573 89.6941 18.948V23.4H88.1961V15.728H89.2881H89.5681V16.624C90.0348 15.9333 90.6741 15.588 91.4861 15.588C92.6341 15.588 93.4368 16.0127 93.8941 16.862C94.1461 16.4513 94.4634 16.134 94.8461 15.91C95.2381 15.686 95.6721 15.574 96.1481 15.574C97.0534 15.574 97.7581 15.8587 98.2621 16.428ZM110.884 16.428C111.379 16.988 111.626 17.786 111.626 18.822V23.4H110.128V18.892C110.128 18.2107 110.002 17.716 109.75 17.408C109.517 17.0907 109.143 16.932 108.63 16.932C108.014 16.932 107.58 17.0907 107.328 17.408C107.085 17.7253 106.964 18.22 106.964 18.892V23.4H105.466V18.892C105.466 18.2573 105.335 17.7673 105.074 17.422C104.813 17.0953 104.444 16.932 103.968 16.932C103.361 16.932 102.932 17.0953 102.68 17.422C102.437 17.7487 102.316 18.2573 102.316 18.948V23.4H100.818V15.728H101.91H102.19V16.624C102.657 15.9333 103.296 15.588 104.108 15.588C105.256 15.588 106.059 16.0127 106.516 16.862C106.768 16.4513 107.085 16.134 107.468 15.91C107.86 15.686 108.294 15.574 108.77 15.574C109.675 15.574 110.38 15.8587 110.884 16.428ZM120.594 20.054H114.546C114.63 20.6887 114.873 21.202 115.274 21.594C115.675 21.9767 116.189 22.168 116.814 22.168C117.262 22.168 117.659 22.0607 118.004 21.846C118.349 21.6313 118.606 21.3373 118.774 20.964C118.793 20.9267 118.807 20.894 118.816 20.866C118.835 20.838 118.849 20.8147 118.858 20.796C118.867 20.768 118.877 20.7493 118.886 20.74L120.342 21.174C120.081 21.9113 119.642 22.49 119.026 22.91C118.438 23.3207 117.701 23.526 116.814 23.526C115.629 23.526 114.705 23.1667 114.042 22.448C113.351 21.7013 113.006 20.74 113.006 19.564C113.006 18.3507 113.351 17.3753 114.042 16.638C114.723 15.9007 115.647 15.532 116.814 15.532C117.971 15.532 118.891 15.9053 119.572 16.652C120.244 17.3893 120.585 18.3507 120.594 19.536V20.054ZM119.026 18.724C118.905 18.1733 118.643 17.7253 118.242 17.38C117.878 17.0533 117.402 16.89 116.814 16.89C116.207 16.89 115.722 17.0533 115.358 17.38C114.985 17.6973 114.733 18.1453 114.602 18.724H119.026ZM128.097 16.414C128.582 16.974 128.825 17.7907 128.825 18.864V23.4H127.313V18.934C127.313 18.2433 127.201 17.7347 126.977 17.408C126.762 17.0813 126.347 16.918 125.731 16.918C125.078 16.918 124.592 17.0907 124.275 17.436C123.939 17.7907 123.771 18.29 123.771 18.934V23.4H122.273V16.26V15.728H123.379H123.659V16.008V16.26V16.722C124.191 15.966 124.919 15.588 125.843 15.588C126.851 15.588 127.602 15.8633 128.097 16.414ZM137.811 13.194V23.4H136.425V22.308C135.763 23.12 134.955 23.526 134.003 23.526C132.921 23.526 132.057 23.1667 131.413 22.448C130.779 21.7293 130.461 20.7773 130.461 19.592C130.461 18.332 130.769 17.352 131.385 16.652C132.001 15.9427 132.869 15.588 133.989 15.588C134.913 15.588 135.688 15.9007 136.313 16.526V13.194H137.811ZM136.313 19.48C136.313 18.6773 136.113 18.0473 135.711 17.59C135.301 17.142 134.755 16.918 134.073 16.918C133.401 16.918 132.883 17.156 132.519 17.632C132.146 18.0893 131.959 18.7333 131.959 19.564C131.959 19.9747 132.006 20.334 132.099 20.642C132.202 20.95 132.347 21.2253 132.533 21.468C132.925 21.944 133.462 22.182 134.143 22.182C134.825 22.182 135.357 21.958 135.739 21.51C136.122 21.0527 136.313 20.4133 136.313 19.592V19.48ZM146.768 15.728V22.686V23.372H145.676H145.382V23.092V22.686V22.308C144.719 23.12 143.917 23.526 142.974 23.526C141.882 23.526 141.014 23.1667 140.37 22.448C139.735 21.7293 139.418 20.7773 139.418 19.592C139.418 18.332 139.726 17.352 140.342 16.652C140.958 15.9427 141.831 15.588 142.96 15.588C143.884 15.588 144.654 15.9007 145.27 16.526V15.728H146.768ZM145.27 19.48C145.27 18.6773 145.069 18.0473 144.668 17.59C144.257 17.142 143.716 16.918 143.044 16.918C142.363 16.918 141.84 17.1513 141.476 17.618C141.112 18.094 140.93 18.7427 140.93 19.564C140.93 20.3667 141.121 21.0013 141.504 21.468C141.877 21.944 142.409 22.182 143.1 22.182C143.781 22.182 144.313 21.958 144.696 21.51C145.079 21.0527 145.27 20.4133 145.27 19.592V19.48ZM150.727 17.114V20.936C150.727 21.272 150.82 21.5333 151.007 21.72C151.184 21.916 151.427 22.014 151.735 22.014H153.177V23.4H151.679C150.914 23.4 150.316 23.176 149.887 22.728C149.439 22.2987 149.215 21.7013 149.215 20.936V17.114H148.011V15.756H149.215V13.194H150.727V15.756H153.177V17.114H150.727ZM154.739 23.4V15.728H156.237V23.4H154.739ZM154.739 13.348H156.237V14.636H154.739V13.348ZM161.509 23.526C160.37 23.526 159.474 23.1667 158.821 22.448C158.494 22.0933 158.247 21.6827 158.079 21.216C157.92 20.74 157.841 20.194 157.841 19.578C157.841 18.346 158.167 17.3707 158.821 16.652C159.474 15.9427 160.37 15.588 161.509 15.588C162.647 15.588 163.543 15.9473 164.197 16.666C164.859 17.3847 165.191 18.3553 165.191 19.578C165.191 20.194 165.107 20.74 164.939 21.216C164.771 21.6827 164.523 22.0933 164.197 22.448C163.543 23.1667 162.647 23.526 161.509 23.526ZM159.913 17.646C159.53 18.1313 159.339 18.7753 159.339 19.578C159.339 19.998 159.385 20.3573 159.479 20.656C159.581 20.9547 159.726 21.2207 159.913 21.454C160.286 21.93 160.818 22.168 161.509 22.168C162.19 22.168 162.722 21.93 163.105 21.454C163.301 21.2113 163.445 20.9407 163.539 20.642C163.632 20.3433 163.679 19.9887 163.679 19.578C163.679 18.7473 163.487 18.108 163.105 17.66C162.731 17.1747 162.199 16.932 161.509 16.932C160.818 16.932 160.286 17.17 159.913 17.646ZM172.643 16.414C173.128 16.974 173.371 17.7907 173.371 18.864V23.4H171.859V18.934C171.859 18.2433 171.747 17.7347 171.523 17.408C171.308 17.0813 170.893 16.918 170.277 16.918C169.623 16.918 169.138 17.0907 168.821 17.436C168.485 17.7907 168.317 18.29 168.317 18.934V23.4H166.819V16.26V15.728H167.925H168.205V16.008V16.26V16.722C168.737 15.966 169.465 15.588 170.389 15.588C171.397 15.588 172.148 15.8633 172.643 16.414ZM180.285 19.662C180.714 20.11 180.929 20.6093 180.929 21.16C180.929 21.888 180.663 22.4667 180.131 22.896C179.599 23.316 178.862 23.526 177.919 23.526C177.611 23.526 177.312 23.498 177.023 23.442C176.743 23.3953 176.472 23.316 176.211 23.204C175.95 23.1013 175.712 22.9753 175.497 22.826C175.282 22.686 175.082 22.5273 174.895 22.35L175.819 21.314C175.828 21.3327 175.847 21.3513 175.875 21.37C175.894 21.3887 175.917 21.4073 175.945 21.426C175.973 21.4447 176.01 21.468 176.057 21.496C176.178 21.5987 176.309 21.6873 176.449 21.762C176.598 21.8367 176.752 21.9113 176.911 21.986C177.247 22.1167 177.574 22.182 177.891 22.182C178.395 22.182 178.778 22.0887 179.039 21.902C179.3 21.7247 179.431 21.4773 179.431 21.16C179.431 20.8893 179.328 20.6653 179.123 20.488C178.927 20.292 178.642 20.166 178.269 20.11C178.204 20.0913 178.12 20.0727 178.017 20.054C177.924 20.0353 177.807 20.012 177.667 19.984C177.527 19.956 177.401 19.9327 177.289 19.914C177.177 19.886 177.079 19.8627 176.995 19.844C176.388 19.7133 175.912 19.4707 175.567 19.116C175.212 18.7333 175.035 18.2947 175.035 17.8C175.035 17.128 175.292 16.5773 175.805 16.148C176.3 15.7467 176.986 15.546 177.863 15.546C178.46 15.546 179.006 15.658 179.501 15.882C179.986 16.1247 180.35 16.386 180.593 16.666L179.655 17.674C179.636 17.6647 179.618 17.6507 179.599 17.632C179.58 17.6133 179.557 17.5947 179.529 17.576C179.51 17.548 179.478 17.5153 179.431 17.478C178.946 17.0767 178.376 16.876 177.723 16.876C177.34 16.876 177.042 16.9507 176.827 17.1C176.603 17.2587 176.491 17.464 176.491 17.716C176.491 17.9027 176.561 18.0707 176.701 18.22C176.832 18.36 177.014 18.4533 177.247 18.5L178.493 18.78C179.258 18.948 179.856 19.242 180.285 19.662Z" fill="#B5B2C1"/>
<g clip-path="url(#clip0_721_14898)">
<path d="M43 44C34.1773 44 27 51.1773 27 60C27 68.8227 34.1773 76 43 76C51.8227 76 59 68.8227 59 60C59 51.1773 51.8227 44 43 44Z" fill="#F9C20A"/>
<path opacity="0.1" d="M43 75.6667C34.2333 75.6667 27.0987 68.5787 27.008 59.8334C27.008 59.8894 27 59.944 27 60C27 68.8227 34.1773 76 43 76C51.8227 76 59 68.8227 59 60C59 59.944 58.992 59.8894 58.992 59.8334C58.9013 68.5787 51.7667 75.6667 43 75.6667Z" fill="black"/>
<path opacity="0.2" d="M43 44.3333C50.0947 44.3333 56.1227 48.9333 58.2933 55.3027C56.2827 48.7667 50.1893 44 43 44C35.8107 44 29.7173 48.7667 27.7067 55.3027C29.8773 48.9333 35.9053 44.3333 43 44.3333Z" fill="white"/>
<path d="M43 48C36.3827 48 31 53.384 31 60C31 66.616 36.3827 72 43 72C49.6173 72 55 66.616 55 60C55 53.384 49.6173 48 43 48Z" fill="#FFDA02"/>
<path d="M47 62.3333C47 61.2267 46.3973 60.2573 45.5026 59.7373C45.8048 59.4209 46.034 59.0421 46.1743 58.6277C46.3145 58.2133 46.3624 57.7731 46.3145 57.3382C46.2666 56.9033 46.1241 56.4842 45.897 56.1102C45.6699 55.7362 45.3637 55.4164 45 55.1733V54H43.6666V54.7C43.556 54.6867 43.448 54.6667 43.3333 54.6667H42.3333V54H41V54.6667H39.6666V56H40.3333V64H39.6666V65.3333H41V66H42.3333V65.3333H43.6666V66H45V65.1493C46.16 64.736 47 63.6347 47 62.3333ZM43.3333 56C43.7638 56.0172 44.1709 56.2004 44.4694 56.511C44.7679 56.8217 44.9346 57.2358 44.9346 57.6667C44.9346 58.0975 44.7679 58.5116 44.4694 58.8223C44.1709 59.133 43.7638 59.3161 43.3333 59.3333H41.6666V56H43.3333ZM44 64H41.6666V60.6667H44C44.4305 60.6839 44.8376 60.867 45.1361 61.1777C45.4346 61.4884 45.6013 61.9025 45.6013 62.3333C45.6013 62.7642 45.4346 63.1783 45.1361 63.489C44.8376 63.7996 44.4305 63.9828 44 64Z" fill="#B57916"/>
<path d="M45 57.6667C45 56.7467 44.2533 56 43.3333 56H41.6666V59.3333H43.3333C44.2533 59.3333 45 58.5867 45 57.6667ZM42.3333 54V54.6667H43L42.3333 54ZM45.6666 62.3333C45.6666 61.4133 44.92 60.6667 44 60.6667H41.6666V64H44C44.92 64 45.6666 63.2533 45.6666 62.3333ZM40.3333 56H39.6666L40.3333 56.6667V56ZM45 54V55.1747C45.3635 55.4178 45.6695 55.7375 45.8964 56.1114C46.1234 56.4852 46.2658 56.9042 46.3137 57.339C46.3616 57.7737 46.3138 58.2136 46.1737 58.6279C46.0336 59.0422 45.8045 59.4209 45.5026 59.7373C45.9577 60.001 46.3355 60.3796 46.5983 60.8352C46.8611 61.2908 46.9996 61.8074 47 62.3333C47 63.6347 46.16 64.7347 45 65.1493V66H43.6666V65.3333H42.3333V66H41V65.3333H39.6666L45.9506 71.6173C47.951 71.1068 49.7864 70.0902 51.2803 68.6654C52.7743 67.2405 53.8766 65.4553 54.4813 63.4813L45 54Z" fill="url(#paint1_linear_721_14898)"/>
<path d="M43 44C34.1773 44 27 51.1773 27 60C27 68.8227 34.1773 76 43 76C51.8227 76 59 68.8227 59 60C59 51.1773 51.8227 44 43 44Z" fill="url(#paint2_linear_721_14898)"/>
</g>
<path d="M72.56 57.47C72.1333 57.8233 71.55 58 70.81 58H67.5V50.71H70.71C71.4233 50.71 71.98 50.88 72.38 51.22C72.78 51.56 72.98 52.0367 72.98 52.65C72.98 53.37 72.7 53.8933 72.14 54.22C72.4733 54.38 72.73 54.61 72.91 54.91C73.09 55.21 73.18 55.5633 73.18 55.97C73.18 56.61 72.9733 57.11 72.56 57.47ZM68.63 53.79H70.65C71.03 53.79 71.32 53.7 71.52 53.52C71.72 53.34 71.82 53.0833 71.82 52.75C71.82 52.43 71.72 52.1833 71.52 52.01C71.3067 51.83 71.0167 51.74 70.65 51.74H68.63V53.79ZM70.75 56.97C71.15 56.97 71.4633 56.8733 71.69 56.68C71.9167 56.4933 72.03 56.2233 72.03 55.87C72.03 55.5033 71.9167 55.22 71.69 55.02C71.47 54.82 71.1567 54.72 70.75 54.72H68.63V56.97H70.75ZM76.093 58V51.74H73.983V50.71H79.333V51.74H77.223V58H76.093ZM80.9525 57.6C80.4192 57.2733 80.0258 56.83 79.7725 56.27C79.6392 55.9833 79.5358 55.6867 79.4625 55.38C79.3958 55.0667 79.3625 54.7233 79.3625 54.35C79.3625 53.6167 79.4992 52.96 79.7725 52.38C80.0458 51.8067 80.4425 51.3667 80.9625 51.06C81.4892 50.74 82.1058 50.58 82.8125 50.58C83.6458 50.58 84.3392 50.7933 84.8925 51.22C85.4525 51.6533 85.8358 52.24 86.0425 52.98L84.9625 53.26C84.9558 53.2333 84.9458 53.2067 84.9325 53.18C84.9192 53.16 84.9092 53.1367 84.9025 53.11C84.8958 53.0833 84.8892 53.0633 84.8825 53.05C84.7025 52.6033 84.4425 52.2533 84.1025 52C83.7625 51.74 83.3325 51.61 82.8125 51.61C82.3192 51.61 81.8925 51.73 81.5325 51.97C81.1792 52.2233 80.9192 52.5467 80.7525 52.94C80.5858 53.34 80.5025 53.81 80.5025 54.35C80.5025 54.49 80.5125 54.6333 80.5325 54.78C80.5525 54.9267 80.5792 55.0867 80.6125 55.26C80.6858 55.5267 80.7858 55.7867 80.9125 56.04C81.0458 56.2933 81.2358 56.5033 81.4825 56.67C81.6692 56.8033 81.8758 56.9 82.1025 56.96C82.3292 57.02 82.5658 57.05 82.8125 57.05C83.3725 57.05 83.8292 56.9067 84.1825 56.62C84.5358 56.3267 84.7825 55.9433 84.9225 55.47C84.9292 55.4567 84.9325 55.4367 84.9325 55.41C84.9392 55.3833 84.9492 55.3567 84.9625 55.33C84.9692 55.3033 84.9792 55.2733 84.9925 55.24L85.1925 55.29C85.2725 55.31 85.3825 55.3367 85.5225 55.37C85.6625 55.4033 85.8492 55.4467 86.0825 55.5C85.9025 56.3 85.5258 56.93 84.9525 57.39C84.3658 57.8567 83.6525 58.09 82.8125 58.09C82.1125 58.09 81.4925 57.9267 80.9525 57.6Z" fill="white"/>
<path d="M59.9131 76.287H59.0551V75.143C58.3438 75.0697 57.7828 74.824 57.3721 74.406C56.9614 73.9807 56.7231 73.5003 56.6571 72.965L57.7021 72.635C57.7388 73.0163 57.8708 73.35 58.0981 73.636C58.3254 73.922 58.6444 74.1017 59.0551 74.175V71.876L58.7801 71.821C58.2081 71.7037 57.7608 71.4727 57.4381 71.128C57.1154 70.7833 56.9541 70.347 56.9541 69.819C56.9541 69.291 57.1484 68.829 57.5371 68.433C57.9331 68.037 58.4391 67.8023 59.0551 67.729V66.574H59.9131V67.74C60.5218 67.8207 60.9874 68.0333 61.3101 68.378C61.6401 68.7153 61.8601 69.1003 61.9701 69.533L60.9801 69.896C60.9434 69.654 60.8334 69.4193 60.6501 69.192C60.4668 68.9647 60.2211 68.807 59.9131 68.719V70.974L60.0781 71.007C60.6794 71.1243 61.1561 71.37 61.5081 71.744C61.8601 72.118 62.0361 72.5543 62.0361 73.053C62.0361 73.5737 61.8491 74.032 61.4751 74.428C61.1011 74.824 60.5804 75.0623 59.9131 75.143V76.287ZM60.9581 73.108C60.9581 72.866 60.8701 72.6497 60.6941 72.459C60.5181 72.2683 60.2578 72.1327 59.9131 72.052V74.175C60.2578 74.109 60.5181 73.9807 60.6941 73.79C60.8701 73.5993 60.9581 73.372 60.9581 73.108ZM58.0431 69.775C58.0431 70.3103 58.3804 70.644 59.0551 70.776V68.686C58.7398 68.7447 58.4904 68.873 58.3071 69.071C58.1311 69.269 58.0431 69.5037 58.0431 69.775ZM64.4201 70.435L63.3421 70.303C63.3347 70.237 63.3311 70.1417 63.3311 70.017C63.3311 69.379 63.5547 68.8363 64.0021 68.389C64.4494 67.9343 65.0471 67.707 65.7951 67.707C66.5357 67.707 67.1224 67.9197 67.5551 68.345C67.9877 68.763 68.2041 69.28 68.2041 69.896C68.2041 70.798 67.7567 71.5313 66.8621 72.096L65.4541 72.998C64.9481 73.3207 64.6584 73.6543 64.5851 73.999H68.2481V75H63.2541C63.2687 74.3987 63.4044 73.8707 63.6611 73.416C63.9251 72.9613 64.3541 72.5433 64.9481 72.162L66.1361 71.392C66.7887 70.974 67.1151 70.479 67.1151 69.907C67.1151 69.555 66.9977 69.258 66.7631 69.016C66.5284 68.774 66.1984 68.653 65.7731 68.653C65.3257 68.653 64.9847 68.7887 64.7501 69.06C64.5154 69.3313 64.3981 69.6833 64.3981 70.116C64.3981 70.182 64.4054 70.2883 64.4201 70.435ZM69.1352 73.394V72.151L72.1932 67.872H73.6782V72.393H74.8992V73.394H73.6782V75H72.6332V73.394H69.1352ZM72.6332 72.393V68.906L70.1252 72.393H72.6332ZM76.0566 74.296C76.0566 74.098 76.1336 73.9257 76.2876 73.779C76.4416 73.6323 76.6323 73.559 76.8596 73.559C77.109 73.559 77.318 73.6507 77.4866 73.834C77.6626 74.0173 77.7506 74.274 77.7506 74.604C77.7506 75.264 77.582 75.7737 77.2446 76.133C76.9073 76.4923 76.5333 76.6977 76.1226 76.749V76.177C76.3866 76.1183 76.603 75.9717 76.7716 75.737C76.9403 75.5097 77.0283 75.2603 77.0356 74.989C76.9843 75.0257 76.9036 75.044 76.7936 75.044C76.581 75.044 76.405 74.978 76.2656 74.846C76.1263 74.7067 76.0566 74.5233 76.0566 74.296ZM84.3002 68.103L83.9702 68.983C83.6182 68.7777 83.1928 68.675 82.6942 68.675C81.9682 68.675 81.3778 68.9133 80.9232 69.39C80.4758 69.8667 80.2302 70.479 80.1862 71.227C80.3475 70.963 80.5895 70.743 80.9122 70.567C81.2422 70.391 81.6272 70.303 82.0672 70.303C82.7932 70.303 83.3798 70.5193 83.8272 70.952C84.2818 71.3847 84.5092 71.9787 84.5092 72.734C84.5092 73.4747 84.2525 74.065 83.7392 74.505C83.2258 74.945 82.6025 75.165 81.8692 75.165C81.1065 75.165 80.4502 74.89 79.9002 74.34C79.3575 73.7827 79.0862 72.9577 79.0862 71.865C79.0862 70.5743 79.4308 69.5587 80.1202 68.818C80.8095 68.0773 81.6895 67.707 82.7602 67.707C83.4128 67.707 83.9262 67.839 84.3002 68.103ZM80.3402 72.734C80.3402 73.1813 80.4942 73.5443 80.8022 73.823C81.1102 74.0943 81.4695 74.23 81.8802 74.23C82.3128 74.23 82.6758 74.0943 82.9692 73.823C83.2698 73.5517 83.4202 73.1887 83.4202 72.734C83.4202 72.272 83.2698 71.9053 82.9692 71.634C82.6758 71.3627 82.3128 71.227 81.8802 71.227C81.4475 71.227 81.0808 71.3627 80.7802 71.634C80.4868 71.9053 80.3402 72.272 80.3402 72.734ZM88.206 70.908C88.5874 70.9007 88.9027 70.7907 89.152 70.578C89.4014 70.3653 89.526 70.0867 89.526 69.742C89.526 69.4193 89.405 69.148 89.163 68.928C88.921 68.708 88.602 68.598 88.206 68.598C87.81 68.598 87.491 68.708 87.249 68.928C87.007 69.148 86.886 69.4193 86.886 69.742C86.886 70.0867 87.0107 70.3653 87.26 70.578C87.5094 70.7907 87.8247 70.9007 88.206 70.908ZM87.106 73.889C87.3774 74.1163 87.744 74.23 88.206 74.23C88.668 74.23 89.031 74.1163 89.295 73.889C89.5664 73.6617 89.702 73.3757 89.702 73.031C89.702 72.679 89.5664 72.3893 89.295 72.162C89.031 71.9273 88.668 71.81 88.206 71.81C87.744 71.81 87.3774 71.9273 87.106 72.162C86.842 72.3893 86.71 72.679 86.71 73.031C86.71 73.3757 86.842 73.6617 87.106 73.889ZM90.098 74.593C89.636 74.9743 89.0054 75.165 88.206 75.165C87.4067 75.165 86.776 74.9743 86.314 74.593C85.852 74.2043 85.621 73.713 85.621 73.119C85.621 72.701 85.7457 72.338 85.995 72.03C86.2517 71.7147 86.578 71.491 86.974 71.359C86.6367 71.2343 86.358 71.0217 86.138 70.721C85.918 70.413 85.808 70.0683 85.808 69.687C85.808 69.1077 86.0354 68.6347 86.49 68.268C86.9447 67.894 87.5167 67.707 88.206 67.707C88.8954 67.707 89.4674 67.894 89.922 68.268C90.3767 68.6347 90.604 69.1077 90.604 69.687C90.604 70.061 90.494 70.402 90.274 70.71C90.054 71.018 89.7754 71.2343 89.438 71.359C89.834 71.4837 90.1567 71.7037 90.406 72.019C90.6627 72.3343 90.791 72.701 90.791 73.119C90.791 73.713 90.56 74.2043 90.098 74.593ZM92.1283 74.747L92.4803 73.856C92.8543 74.0833 93.287 74.197 93.7783 74.197C94.5923 74.197 95.201 73.966 95.6043 73.504C96.015 73.0347 96.2313 72.4223 96.2533 71.667C96.114 71.9237 95.883 72.14 95.5603 72.316C95.245 72.492 94.86 72.58 94.4053 72.58C93.7453 72.58 93.1696 72.3673 92.6783 71.942C92.187 71.5093 91.9413 70.919 91.9413 70.171C91.9413 69.4523 92.198 68.862 92.7113 68.4C93.232 67.938 93.8516 67.707 94.5703 67.707C95.333 67.707 95.9856 67.9857 96.5283 68.543C97.071 69.1003 97.3423 69.9143 97.3423 70.985C97.3423 72.3197 97.0416 73.35 96.4403 74.076C95.8463 74.802 94.959 75.165 93.7783 75.165C93.4996 75.165 93.199 75.1247 92.8763 75.044C92.5536 74.9633 92.3043 74.8643 92.1283 74.747ZM96.1103 70.149C96.1103 69.709 95.9563 69.3497 95.6483 69.071C95.3403 68.7923 94.981 68.653 94.5703 68.653C94.1523 68.653 93.7893 68.7923 93.4813 69.071C93.1806 69.3423 93.0303 69.7017 93.0303 70.149C93.0303 70.611 93.1806 70.9777 93.4813 71.249C93.782 71.5203 94.145 71.656 94.5703 71.656C94.9883 71.656 95.3476 71.5203 95.6483 71.249C95.9563 70.9703 96.1103 70.6037 96.1103 70.149Z" fill="#FF2525"/>
<mask id="mask0_721_14898" style="mask-type:alpha" maskUnits="userSpaceOnUse" x="142" y="48" width="24" height="25">
<rect x="142" y="48.5" width="24" height="24" fill="#D9D9D9"/>
</mask>
<g mask="url(#mask0_721_14898)">
<path d="M154 68.5L152.575 67.1L158.175 61.5H146V59.5H158.175L152.575 53.9L154 52.5L162 60.5L154 68.5Z" fill="white"/>
</g>
<g clip-path="url(#clip1_721_14898)">
<path d="M234.438 75.5312C243.551 75.5312 250.939 68.5777 250.939 60C250.939 51.4223 243.551 44.4688 234.438 44.4688C225.324 44.4688 217.936 51.4223 217.936 60C217.936 68.5777 225.324 75.5312 234.438 75.5312Z" fill="#4956FC"/>
<path d="M234.438 72.4062C241.718 72.4062 247.619 66.8518 247.619 60C247.619 53.1482 241.718 47.5938 234.438 47.5938C227.157 47.5938 221.256 53.1482 221.256 60C221.256 66.8518 227.157 72.4062 234.438 72.4062Z" fill="#5E8DF7"/>
<path d="M240.64 59.2574L239.608 59.8087L234.361 61.6724L228.235 59.2574L234.361 49.3774L240.64 59.2574Z" fill="#FEFEFE"/>
<path d="M240.64 59.2575L234.361 62.61L228.235 59.2575L234.361 56.5657L240.64 59.2575Z" fill="#C0CBF8"/>
<path d="M240.64 61.615L234.361 70.6225L228.235 61.615L234.361 64.9669L240.64 61.615Z" fill="#FEFEFE"/>
<path d="M240.64 61.6149L234.361 70.6224V64.9668L240.64 61.6149ZM240.64 59.2574L239.608 59.8087L234.361 56.9849V49.3774L240.64 59.2574Z" fill="#C0CBF8"/>
<path d="M240.64 59.2575L234.361 62.61V56.5657L240.64 59.2575Z" fill="#8095F0"/>
</g>
<path d="M260.25 56.97V58H255.5V50.71H260.25V51.74H256.64V53.75H260.15V54.78H256.64V56.97H260.25ZM263.204 58V51.74H261.094V50.71H266.444V51.74H264.334V58H263.204ZM268.492 54.78V58H267.352V50.71H268.492V53.75H271.832V50.71H272.972V58H271.832V54.78H268.492Z" fill="white"/>
<path d="M251.82 76.287H250.962V75.143C250.251 75.0697 249.69 74.824 249.279 74.406C248.868 73.9807 248.63 73.5003 248.564 72.965L249.609 72.635C249.646 73.0163 249.778 73.35 250.005 73.636C250.232 73.922 250.551 74.1017 250.962 74.175V71.876L250.687 71.821C250.115 71.7037 249.668 71.4727 249.345 71.128C249.022 70.7833 248.861 70.347 248.861 69.819C248.861 69.291 249.055 68.829 249.444 68.433C249.84 68.037 250.346 67.8023 250.962 67.729V66.574H251.82V67.74C252.429 67.8207 252.894 68.0333 253.217 68.378C253.547 68.7153 253.767 69.1003 253.877 69.533L252.887 69.896C252.85 69.654 252.74 69.4193 252.557 69.192C252.374 68.9647 252.128 68.807 251.82 68.719V70.974L251.985 71.007C252.586 71.1243 253.063 71.37 253.415 71.744C253.767 72.118 253.943 72.5543 253.943 73.053C253.943 73.5737 253.756 74.032 253.382 74.428C253.008 74.824 252.487 75.0623 251.82 75.143V76.287ZM252.865 73.108C252.865 72.866 252.777 72.6497 252.601 72.459C252.425 72.2683 252.165 72.1327 251.82 72.052V74.175C252.165 74.109 252.425 73.9807 252.601 73.79C252.777 73.5993 252.865 73.372 252.865 73.108ZM249.95 69.775C249.95 70.3103 250.287 70.644 250.962 70.776V68.686C250.647 68.7447 250.397 68.873 250.214 69.071C250.038 69.269 249.95 69.5037 249.95 69.775ZM255.054 73.394V72.151L258.112 67.872H259.597V72.393H260.818V73.394H259.597V75H258.552V73.394H255.054ZM258.552 72.393V68.906L256.044 72.393H258.552ZM261.975 74.296C261.975 74.098 262.052 73.9257 262.206 73.779C262.36 73.6323 262.551 73.559 262.778 73.559C263.027 73.559 263.236 73.6507 263.405 73.834C263.581 74.0173 263.669 74.274 263.669 74.604C263.669 75.264 263.5 75.7737 263.163 76.133C262.826 76.4923 262.452 76.6977 262.041 76.749V76.177C262.305 76.1183 262.521 75.9717 262.69 75.737C262.859 75.5097 262.947 75.2603 262.954 74.989C262.903 75.0257 262.822 75.044 262.712 75.044C262.499 75.044 262.323 74.978 262.184 74.846C262.045 74.7067 261.975 74.5233 261.975 74.296ZM267.133 71.689L266.605 70.798L268.706 68.862H265.296V67.872H270.136V68.84L268.101 70.721C268.681 70.721 269.19 70.9117 269.63 71.293C270.078 71.6743 270.301 72.206 270.301 72.888C270.301 73.5187 270.07 74.0577 269.608 74.505C269.146 74.9523 268.516 75.176 267.716 75.176C266.932 75.176 266.301 74.9597 265.824 74.527C265.355 74.087 265.102 73.5553 265.065 72.932L266.121 72.69C266.143 73.152 266.301 73.526 266.594 73.812C266.895 74.0907 267.265 74.23 267.705 74.23C268.175 74.23 268.541 74.1053 268.805 73.856C269.077 73.5993 269.212 73.284 269.212 72.91C269.212 72.4773 269.069 72.1473 268.783 71.92C268.497 71.6927 268.156 71.579 267.76 71.579C267.548 71.579 267.339 71.6157 267.133 71.689ZM272.509 70.435L271.431 70.303C271.424 70.237 271.42 70.1417 271.42 70.017C271.42 69.379 271.644 68.8363 272.091 68.389C272.539 67.9343 273.136 67.707 273.884 67.707C274.625 67.707 275.212 67.9197 275.644 68.345C276.077 68.763 276.293 69.28 276.293 69.896C276.293 70.798 275.846 71.5313 274.951 72.096L273.543 72.998C273.037 73.3207 272.748 73.6543 272.674 73.999H276.337V75H271.343C271.358 74.3987 271.494 73.8707 271.75 73.416C272.014 72.9613 272.443 72.5433 273.037 72.162L274.225 71.392C274.878 70.974 275.204 70.479 275.204 69.907C275.204 69.555 275.087 69.258 274.852 69.016C274.618 68.774 274.288 68.653 273.862 68.653C273.415 68.653 273.074 68.7887 272.839 69.06C272.605 69.3313 272.487 69.6833 272.487 70.116C272.487 70.182 272.495 70.2883 272.509 70.435ZM280.166 75H279.11V69.973H277.383V69.214C277.867 69.2067 278.274 69.082 278.604 68.84C278.934 68.5907 279.139 68.268 279.22 67.872H280.166V75Z" fill="#25FF3A"/>
<path d="M16.713 97.108C15.881 97.108 15.169 96.932 14.577 96.58C13.985 96.228 13.529 95.728 13.209 95.08C12.897 94.432 12.741 93.66 12.741 92.764C12.741 91.876 12.897 91.108 13.209 90.46C13.529 89.812 13.985 89.312 14.577 88.96C15.169 88.608 15.881 88.432 16.713 88.432C17.297 88.432 17.833 88.524 18.321 88.708C18.817 88.892 19.237 89.16 19.581 89.512L19.197 90.316C18.829 89.972 18.445 89.724 18.045 89.572C17.653 89.412 17.217 89.332 16.737 89.332C15.785 89.332 15.057 89.632 14.553 90.232C14.049 90.832 13.797 91.676 13.797 92.764C13.797 93.86 14.049 94.708 14.553 95.308C15.057 95.908 15.785 96.208 16.737 96.208C17.217 96.208 17.653 96.132 18.045 95.98C18.445 95.82 18.829 95.568 19.197 95.224L19.581 96.028C19.237 96.372 18.817 96.64 18.321 96.832C17.833 97.016 17.297 97.108 16.713 97.108ZM22.9903 97.108C21.5903 97.108 20.8903 96.336 20.8903 94.792V91.168H21.8623V94.78C21.8623 95.3 21.9663 95.684 22.1743 95.932C22.3903 96.18 22.7263 96.304 23.1823 96.304C23.6783 96.304 24.0823 96.14 24.3943 95.812C24.7063 95.476 24.8623 95.032 24.8623 94.48V91.168H25.8343V97H24.8863V96.016C24.7023 96.368 24.4423 96.64 24.1063 96.832C23.7783 97.016 23.4063 97.108 22.9903 97.108ZM27.7129 97V91.168H28.6609V92.212C28.9729 91.508 29.6129 91.12 30.5809 91.048L30.9289 91.012L31.0009 91.852L30.3889 91.924C29.8369 91.972 29.4169 92.148 29.1289 92.452C28.8409 92.748 28.6969 93.156 28.6969 93.676V97H27.7129ZM32.0736 97V91.168H33.0216V92.212C33.3336 91.508 33.9736 91.12 34.9416 91.048L35.2896 91.012L35.3616 91.852L34.7496 91.924C34.1976 91.972 33.7776 92.148 33.4896 92.452C33.2016 92.748 33.0576 93.156 33.0576 93.676V97H32.0736ZM38.9921 97.108C38.0721 97.108 37.3441 96.84 36.8081 96.304C36.2721 95.76 36.0041 95.024 36.0041 94.096C36.0041 93.496 36.1241 92.968 36.3641 92.512C36.6041 92.048 36.9321 91.692 37.3481 91.444C37.7721 91.188 38.2601 91.06 38.8121 91.06C39.6041 91.06 40.2241 91.316 40.6721 91.828C41.1201 92.332 41.3441 93.028 41.3441 93.916V94.288H36.9521C36.9841 94.952 37.1761 95.46 37.5281 95.812C37.8801 96.156 38.3681 96.328 38.9921 96.328C39.3441 96.328 39.6801 96.276 40.0001 96.172C40.3201 96.06 40.6241 95.88 40.9121 95.632L41.2481 96.316C40.9841 96.564 40.6481 96.76 40.2401 96.904C39.8321 97.04 39.4161 97.108 38.9921 97.108ZM38.8361 91.78C38.2841 91.78 37.8481 91.952 37.5281 92.296C37.2081 92.64 37.0201 93.092 36.9641 93.652H40.5041C40.4801 93.06 40.3241 92.6 40.0361 92.272C39.7561 91.944 39.3561 91.78 38.8361 91.78ZM42.8108 97V91.168H43.7588V92.164C43.9508 91.796 44.2228 91.52 44.5748 91.336C44.9268 91.152 45.3228 91.06 45.7628 91.06C47.1468 91.06 47.8388 91.828 47.8388 93.364V97H46.8668V93.424C46.8668 92.88 46.7588 92.484 46.5428 92.236C46.3348 91.98 45.9988 91.852 45.5348 91.852C44.9988 91.852 44.5708 92.02 44.2508 92.356C43.9388 92.684 43.7828 93.124 43.7828 93.676V97H42.8108ZM52.0311 97.108C51.3431 97.108 50.8271 96.928 50.4831 96.568C50.1391 96.2 49.9671 95.672 49.9671 94.984V91.924H48.8271V91.168H49.9671V89.38H50.9391V91.168H52.7871V91.924H50.9391V94.888C50.9391 95.344 51.0351 95.692 51.2271 95.932C51.4191 96.164 51.7311 96.28 52.1631 96.28C52.2911 96.28 52.4191 96.264 52.5471 96.232C52.6751 96.2 52.7911 96.168 52.8951 96.136L53.0631 96.88C52.9591 96.936 52.8071 96.988 52.6071 97.036C52.4071 97.084 52.2151 97.108 52.0311 97.108ZM57.0885 97V88.54H58.0605V92.128C58.2525 91.776 58.5205 91.512 58.8645 91.336C59.2165 91.152 59.6085 91.06 60.0405 91.06C61.4245 91.06 62.1165 91.828 62.1165 93.364V97H61.1445V93.424C61.1445 92.88 61.0365 92.484 60.8205 92.236C60.6125 91.98 60.2765 91.852 59.8125 91.852C59.2765 91.852 58.8485 92.02 58.5285 92.356C58.2165 92.684 58.0605 93.124 58.0605 93.676V97H57.0885ZM66.3928 97.108C65.8248 97.108 65.3328 96.984 64.9168 96.736C64.5008 96.488 64.1768 96.14 63.9448 95.692C63.7208 95.236 63.6088 94.7 63.6088 94.084C63.6088 93.468 63.7208 92.936 63.9448 92.488C64.1768 92.032 64.5008 91.68 64.9168 91.432C65.3328 91.184 65.8248 91.06 66.3928 91.06C66.9528 91.06 67.4408 91.184 67.8568 91.432C68.2808 91.68 68.6048 92.032 68.8288 92.488C69.0608 92.936 69.1768 93.468 69.1768 94.084C69.1768 94.7 69.0608 95.236 68.8288 95.692C68.6048 96.14 68.2808 96.488 67.8568 96.736C67.4408 96.984 66.9528 97.108 66.3928 97.108ZM66.3928 96.328C66.9368 96.328 67.3728 96.136 67.7008 95.752C68.0288 95.36 68.1928 94.804 68.1928 94.084C68.1928 93.356 68.0288 92.8 67.7008 92.416C67.3728 92.032 66.9368 91.84 66.3928 91.84C65.8408 91.84 65.4008 92.032 65.0728 92.416C64.7528 92.8 64.5928 93.356 64.5928 94.084C64.5928 94.804 64.7528 95.36 65.0728 95.752C65.4008 96.136 65.8408 96.328 66.3928 96.328ZM72.4848 97.108C71.8928 97.108 71.4448 96.936 71.1408 96.592C70.8448 96.24 70.6968 95.732 70.6968 95.068V88.54H71.6688V94.996C71.6688 95.852 72.0088 96.28 72.6888 96.28C72.8888 96.28 73.0688 96.256 73.2288 96.208L73.2048 97.024C72.9568 97.08 72.7168 97.108 72.4848 97.108ZM76.469 97.108C75.949 97.108 75.493 96.984 75.101 96.736C74.717 96.488 74.417 96.14 74.201 95.692C73.993 95.236 73.889 94.7 73.889 94.084C73.889 93.46 73.993 92.924 74.201 92.476C74.417 92.02 74.717 91.672 75.101 91.432C75.493 91.184 75.949 91.06 76.469 91.06C76.925 91.06 77.325 91.16 77.669 91.36C78.021 91.56 78.281 91.836 78.449 92.188V88.54H79.421V97H78.473V95.932C78.305 96.3 78.045 96.588 77.693 96.796C77.341 97.004 76.933 97.108 76.469 97.108ZM76.673 96.328C77.217 96.328 77.653 96.136 77.981 95.752C78.309 95.36 78.473 94.804 78.473 94.084C78.473 93.356 78.309 92.8 77.981 92.416C77.653 92.032 77.217 91.84 76.673 91.84C76.121 91.84 75.681 92.032 75.353 92.416C75.033 92.8 74.873 93.356 74.873 94.084C74.873 94.804 75.033 95.36 75.353 95.752C75.681 96.136 76.121 96.328 76.673 96.328ZM81.1851 89.716V88.624H82.3851V89.716H81.1851ZM81.3051 97V91.168H82.2771V97H81.3051ZM84.1541 97V91.168H85.1021V92.164C85.2941 91.796 85.5661 91.52 85.9181 91.336C86.2701 91.152 86.6661 91.06 87.1061 91.06C88.4901 91.06 89.1821 91.828 89.1821 93.364V97H88.2101V93.424C88.2101 92.88 88.1021 92.484 87.8861 92.236C87.6781 91.98 87.3421 91.852 86.8781 91.852C86.3421 91.852 85.9141 92.02 85.5941 92.356C85.2821 92.684 85.1261 93.124 85.1261 93.676V97H84.1541ZM93.6144 99.268C93.1104 99.268 92.6344 99.2 92.1864 99.064C91.7464 98.936 91.3544 98.74 91.0104 98.476L91.3344 97.768C91.6944 98.024 92.0504 98.208 92.4024 98.32C92.7624 98.432 93.1504 98.488 93.5664 98.488C94.7184 98.488 95.2944 97.896 95.2944 96.712V95.68C95.1264 96.048 94.8624 96.34 94.5024 96.556C94.1504 96.764 93.7464 96.868 93.2904 96.868C92.7544 96.868 92.2904 96.744 91.8984 96.496C91.5064 96.248 91.2024 95.908 90.9864 95.476C90.7784 95.036 90.6744 94.528 90.6744 93.952C90.6744 93.376 90.7784 92.872 90.9864 92.44C91.2024 92 91.5064 91.66 91.8984 91.42C92.2904 91.18 92.7544 91.06 93.2904 91.06C93.7464 91.06 94.1504 91.164 94.5024 91.372C94.8624 91.58 95.1264 91.864 95.2944 92.224V91.168H96.2424V96.58C96.2424 97.476 96.0184 98.148 95.5704 98.596C95.1304 99.044 94.4784 99.268 93.6144 99.268ZM93.4704 96.076C94.0304 96.076 94.4744 95.884 94.8024 95.5C95.1304 95.116 95.2944 94.6 95.2944 93.952C95.2944 93.304 95.1304 92.792 94.8024 92.416C94.4744 92.032 94.0304 91.84 93.4704 91.84C92.9184 91.84 92.4784 92.032 92.1504 92.416C91.8224 92.792 91.6584 93.304 91.6584 93.952C91.6584 94.6 91.8224 95.116 92.1504 95.5C92.4784 95.884 92.9184 96.076 93.4704 96.076ZM100.094 97.108C99.6377 97.108 99.2057 97.044 98.7977 96.916C98.3897 96.788 98.0537 96.608 97.7897 96.376L98.1017 95.692C98.3897 95.924 98.7057 96.096 99.0497 96.208C99.4017 96.312 99.7577 96.364 100.118 96.364C100.574 96.364 100.918 96.28 101.15 96.112C101.382 95.944 101.498 95.716 101.498 95.428C101.498 95.204 101.422 95.028 101.27 94.9C101.118 94.764 100.878 94.66 100.55 94.588L99.4577 94.348C98.4657 94.132 97.9697 93.62 97.9697 92.812C97.9697 92.284 98.1777 91.86 98.5937 91.54C99.0177 91.22 99.5697 91.06 100.25 91.06C100.65 91.06 101.03 91.124 101.39 91.252C101.758 91.372 102.062 91.552 102.302 91.792L101.978 92.476C101.746 92.26 101.474 92.096 101.162 91.984C100.858 91.864 100.554 91.804 100.25 91.804C99.8017 91.804 99.4617 91.892 99.2297 92.068C98.9977 92.244 98.8817 92.476 98.8817 92.764C98.8817 93.212 99.1777 93.5 99.7697 93.628L100.862 93.856C101.374 93.968 101.762 94.148 102.026 94.396C102.29 94.636 102.422 94.964 102.422 95.38C102.422 95.916 102.21 96.34 101.786 96.652C101.362 96.956 100.798 97.108 100.094 97.108Z" fill="#BABABA"/>
<path d="M16.7441 117.16C15.9761 117.16 15.2401 117.048 14.5361 116.824C13.8428 116.589 13.2668 116.275 12.8081 115.88L13.4801 114.312C14.4401 115.059 15.5068 115.432 16.6801 115.432C18.1201 115.432 18.8401 114.867 18.8401 113.736C18.8401 113.203 18.6588 112.808 18.2961 112.552C17.9441 112.285 17.4268 112.152 16.7441 112.152H14.9361V110.456H16.5521C17.1495 110.456 17.6241 110.312 17.9761 110.024C18.3281 109.725 18.5041 109.315 18.5041 108.792C18.5041 108.301 18.3388 107.928 18.0081 107.672C17.6881 107.416 17.2188 107.288 16.6001 107.288C15.4908 107.288 14.5148 107.672 13.6721 108.44L13.0001 106.904C13.4481 106.477 14.0081 106.147 14.6801 105.912C15.3521 105.677 16.0508 105.56 16.7761 105.56C17.9495 105.56 18.8615 105.827 19.5121 106.36C20.1628 106.883 20.4881 107.613 20.4881 108.552C20.4881 109.16 20.3335 109.693 20.0241 110.152C19.7148 110.611 19.2935 110.941 18.7601 111.144C19.4108 111.325 19.9175 111.661 20.2801 112.152C20.6428 112.632 20.8241 113.219 20.8241 113.912C20.8241 114.915 20.4615 115.709 19.7361 116.296C19.0108 116.872 18.0135 117.16 16.7441 117.16ZM22.7059 117V114.776H24.9459V117H22.7059ZM27.1706 117V115.48L30.8186 111.592C31.3093 111.059 31.6613 110.589 31.8746 110.184C32.088 109.768 32.1946 109.347 32.1946 108.92C32.1946 107.832 31.5386 107.288 30.2266 107.288C29.2026 107.288 28.2586 107.672 27.3946 108.44L26.7066 106.904C27.1546 106.499 27.7146 106.173 28.3866 105.928C29.0586 105.683 29.7573 105.56 30.4826 105.56C31.688 105.56 32.6106 105.832 33.2506 106.376C33.9013 106.92 34.2266 107.699 34.2266 108.712C34.2266 109.395 34.0613 110.051 33.7306 110.68C33.4106 111.309 32.904 111.987 32.2106 112.712L29.7306 115.304H34.6586V117H27.1706ZM36.8444 117V115.48L40.4924 111.592C40.983 111.059 41.335 110.589 41.5484 110.184C41.7617 109.768 41.8684 109.347 41.8684 108.92C41.8684 107.832 41.2124 107.288 39.9004 107.288C38.8764 107.288 37.9324 107.672 37.0684 108.44L36.3804 106.904C36.8284 106.499 37.3884 106.173 38.0604 105.928C38.7324 105.683 39.431 105.56 40.1564 105.56C41.3617 105.56 42.2844 105.832 42.9244 106.376C43.575 106.92 43.9004 107.699 43.9004 108.712C43.9004 109.395 43.735 110.051 43.4044 110.68C43.0844 111.309 42.5777 111.987 41.8844 112.712L39.4044 115.304H44.3324V117H36.8444ZM50.0381 117.16C48.7261 117.16 47.6968 116.877 46.9501 116.312C46.2141 115.747 45.8461 114.963 45.8461 113.96C45.8461 113.277 46.0221 112.696 46.3741 112.216C46.7368 111.736 47.2061 111.4 47.7821 111.208C47.2701 110.984 46.8648 110.643 46.5661 110.184C46.2781 109.725 46.1341 109.197 46.1341 108.6C46.1341 107.651 46.4861 106.909 47.1901 106.376C47.8941 105.832 48.8435 105.56 50.0381 105.56C51.2435 105.56 52.1981 105.832 52.9021 106.376C53.6061 106.909 53.9581 107.651 53.9581 108.6C53.9581 109.197 53.8088 109.731 53.5101 110.2C53.2221 110.659 52.8275 110.995 52.3261 111.208C52.9021 111.4 53.3608 111.741 53.7021 112.232C54.0541 112.712 54.2301 113.288 54.2301 113.96C54.2301 114.963 53.8568 115.747 53.1101 116.312C52.3741 116.877 51.3501 117.16 50.0381 117.16ZM50.0381 110.488C50.6675 110.488 51.1581 110.339 51.5101 110.04C51.8728 109.741 52.0541 109.331 52.0541 108.808C52.0541 108.296 51.8728 107.896 51.5101 107.608C51.1581 107.309 50.6675 107.16 50.0381 107.16C49.4088 107.16 48.9181 107.309 48.5661 107.608C48.2141 107.896 48.0381 108.296 48.0381 108.808C48.0381 109.331 48.2141 109.741 48.5661 110.04C48.9181 110.339 49.4088 110.488 50.0381 110.488ZM50.0381 115.56C51.5635 115.56 52.3261 114.979 52.3261 113.816C52.3261 112.664 51.5635 112.088 50.0381 112.088C49.2915 112.088 48.7208 112.232 48.3261 112.52C47.9421 112.808 47.7501 113.24 47.7501 113.816C47.7501 114.392 47.9421 114.829 48.3261 115.128C48.7208 115.416 49.2915 115.56 50.0381 115.56Z" fill="#F9F9F9"/>
<path d="M15.9822 154.09C15.0556 154.09 14.3522 153.847 13.8722 153.36C13.3922 152.867 13.1522 152.15 13.1522 151.21V146.95H13.9722V151.17C13.9722 152.63 14.6422 153.36 15.9822 153.36C17.3089 153.36 17.9722 152.63 17.9722 151.17V146.95H18.7922V151.21C18.7922 152.15 18.5522 152.867 18.0722 153.36C17.5989 153.847 16.9022 154.09 15.9822 154.09ZM22.8076 154.09C22.2543 154.09 21.7543 154.02 21.3076 153.88C20.861 153.733 20.4743 153.523 20.1476 153.25L20.4376 152.59C20.7776 152.85 21.1343 153.043 21.5076 153.17C21.881 153.297 22.3143 153.36 22.8076 153.36C23.4076 153.36 23.851 153.25 24.1376 153.03C24.431 152.803 24.5776 152.507 24.5776 152.14C24.5776 151.847 24.471 151.613 24.2576 151.44C24.051 151.267 23.701 151.13 23.2076 151.03L22.1676 150.82C21.541 150.687 21.071 150.47 20.7576 150.17C20.4509 149.863 20.2976 149.457 20.2976 148.95C20.2976 148.53 20.4043 148.163 20.6176 147.85C20.8376 147.537 21.141 147.293 21.5276 147.12C21.9143 146.947 22.361 146.86 22.8676 146.86C23.341 146.86 23.781 146.937 24.1876 147.09C24.5943 147.237 24.9376 147.45 25.2176 147.73L24.9276 148.37C24.6276 148.097 24.311 147.9 23.9776 147.78C23.6443 147.653 23.271 147.59 22.8576 147.59C22.331 147.59 21.911 147.713 21.5976 147.96C21.2843 148.2 21.1276 148.52 21.1276 148.92C21.1276 149.24 21.2243 149.493 21.4176 149.68C21.6176 149.867 21.941 150.003 22.3876 150.09L23.4276 150.31C24.101 150.45 24.5976 150.663 24.9176 150.95C25.2443 151.23 25.4076 151.613 25.4076 152.1C25.4076 152.493 25.301 152.84 25.0876 153.14C24.881 153.44 24.581 153.673 24.1876 153.84C23.801 154.007 23.341 154.09 22.8076 154.09ZM26.73 154V146.95H29.11C30.25 146.95 31.13 147.253 31.75 147.86C32.37 148.46 32.68 149.33 32.68 150.47C32.68 151.61 32.37 152.483 31.75 153.09C31.13 153.697 30.25 154 29.11 154H26.73ZM27.55 153.3H29.05C30.89 153.3 31.81 152.357 31.81 150.47C31.81 148.59 30.89 147.65 29.05 147.65H27.55V153.3ZM39.0202 154L35.9402 146.95H36.8202L39.4102 152.96L41.9902 146.95H42.8502L39.7602 154H39.0202ZM44.6183 154.09C44.285 154.09 43.985 154.027 43.7183 153.9C43.4583 153.767 43.2517 153.587 43.0983 153.36C42.945 153.133 42.8683 152.88 42.8683 152.6C42.8683 152.247 42.9583 151.967 43.1383 151.76C43.325 151.553 43.6283 151.407 44.0483 151.32C44.475 151.227 45.055 151.18 45.7883 151.18H46.1083V150.87C46.1083 150.457 46.0217 150.16 45.8483 149.98C45.6817 149.793 45.4117 149.7 45.0383 149.7C44.745 149.7 44.4617 149.743 44.1883 149.83C43.915 149.91 43.635 150.043 43.3483 150.23L43.0683 149.64C43.3217 149.46 43.6283 149.317 43.9883 149.21C44.355 149.103 44.705 149.05 45.0383 149.05C45.665 149.05 46.1283 149.203 46.4283 149.51C46.735 149.817 46.8883 150.293 46.8883 150.94V154H46.1283V153.16C46.0017 153.447 45.805 153.673 45.5383 153.84C45.2783 154.007 44.9717 154.09 44.6183 154.09ZM44.7483 153.48C45.1483 153.48 45.475 153.343 45.7283 153.07C45.9817 152.79 46.1083 152.437 46.1083 152.01V151.71H45.7983C45.2583 151.71 44.8317 151.737 44.5183 151.79C44.2117 151.837 43.995 151.923 43.8683 152.05C43.7483 152.17 43.6883 152.337 43.6883 152.55C43.6883 152.823 43.7817 153.047 43.9683 153.22C44.1617 153.393 44.4217 153.48 44.7483 153.48ZM49.9311 154.09C49.4377 154.09 49.0644 153.947 48.8111 153.66C48.5644 153.367 48.4411 152.943 48.4411 152.39V146.95H49.2511V152.33C49.2511 153.043 49.5344 153.4 50.1011 153.4C50.2677 153.4 50.4177 153.38 50.5511 153.34L50.5311 154.02C50.3244 154.067 50.1244 154.09 49.9311 154.09ZM53.17 154.09C52.0034 154.09 51.42 153.447 51.42 152.16V149.14H52.23V152.15C52.23 152.583 52.3167 152.903 52.49 153.11C52.67 153.317 52.95 153.42 53.33 153.42C53.7434 153.42 54.08 153.283 54.34 153.01C54.6 152.73 54.73 152.36 54.73 151.9V149.14H55.54V154H54.75V153.18C54.5967 153.473 54.38 153.7 54.1 153.86C53.8267 154.013 53.5167 154.09 53.17 154.09ZM59.2955 154.09C58.5288 154.09 57.9222 153.867 57.4755 153.42C57.0288 152.967 56.8055 152.353 56.8055 151.58C56.8055 151.08 56.9055 150.64 57.1055 150.26C57.3055 149.873 57.5788 149.577 57.9255 149.37C58.2788 149.157 58.6855 149.05 59.1455 149.05C59.8055 149.05 60.3222 149.263 60.6955 149.69C61.0688 150.11 61.2555 150.69 61.2555 151.43V151.74H57.5955C57.6222 152.293 57.7822 152.717 58.0755 153.01C58.3688 153.297 58.7755 153.44 59.2955 153.44C59.5888 153.44 59.8688 153.397 60.1355 153.31C60.4022 153.217 60.6555 153.067 60.8955 152.86L61.1755 153.43C60.9555 153.637 60.6755 153.8 60.3355 153.92C59.9955 154.033 59.6488 154.09 59.2955 154.09ZM59.1655 149.65C58.7055 149.65 58.3422 149.793 58.0755 150.08C57.8088 150.367 57.6522 150.743 57.6055 151.21H60.5555C60.5355 150.717 60.4055 150.333 60.1655 150.06C59.9322 149.787 59.5988 149.65 59.1655 149.65Z" fill="#BABABA"/>
<path d="M15.4331 170.12C14.8571 170.12 14.3051 170.036 13.7771 169.868C13.2571 169.692 12.8251 169.456 12.4811 169.16L12.9851 167.984C13.7051 168.544 14.5051 168.824 15.3851 168.824C16.4651 168.824 17.0051 168.4 17.0051 167.552C17.0051 167.152 16.8691 166.856 16.5971 166.664C16.3331 166.464 15.9451 166.364 15.4331 166.364H14.0771V165.092H15.2891C15.7371 165.092 16.0931 164.984 16.3571 164.768C16.6211 164.544 16.7531 164.236 16.7531 163.844C16.7531 163.476 16.6291 163.196 16.3811 163.004C16.1411 162.812 15.7891 162.716 15.3251 162.716C14.4931 162.716 13.7611 163.004 13.1291 163.58L12.6251 162.428C12.9611 162.108 13.3811 161.86 13.8851 161.684C14.3891 161.508 14.9131 161.42 15.4571 161.42C16.3371 161.42 17.0211 161.62 17.5091 162.02C17.9971 162.412 18.2411 162.96 18.2411 163.664C18.2411 164.12 18.1251 164.52 17.8931 164.864C17.6611 165.208 17.3451 165.456 16.9451 165.608C17.4331 165.744 17.8131 165.996 18.0851 166.364C18.3571 166.724 18.4931 167.164 18.4931 167.684C18.4931 168.436 18.2211 169.032 17.6771 169.472C17.1331 169.904 16.3851 170.12 15.4331 170.12ZM19.9044 170V168.332H21.5844V170H19.9044ZM23.253 170V168.86L25.989 165.944C26.357 165.544 26.621 165.192 26.781 164.888C26.941 164.576 27.021 164.26 27.021 163.94C27.021 163.124 26.529 162.716 25.545 162.716C24.777 162.716 24.069 163.004 23.421 163.58L22.905 162.428C23.241 162.124 23.661 161.88 24.165 161.696C24.669 161.512 25.193 161.42 25.737 161.42C26.641 161.42 27.333 161.624 27.813 162.032C28.301 162.44 28.545 163.024 28.545 163.784C28.545 164.296 28.421 164.788 28.173 165.26C27.933 165.732 27.553 166.24 27.033 166.784L25.173 168.728H28.869V170H23.253ZM30.5083 170V168.86L33.2443 165.944C33.6123 165.544 33.8763 165.192 34.0363 164.888C34.1963 164.576 34.2763 164.26 34.2763 163.94C34.2763 163.124 33.7843 162.716 32.8003 162.716C32.0323 162.716 31.3243 163.004 30.6763 163.58L30.1603 162.428C30.4963 162.124 30.9163 161.88 31.4203 161.696C31.9243 161.512 32.4483 161.42 32.9923 161.42C33.8963 161.42 34.5883 161.624 35.0683 162.032C35.5563 162.44 35.8003 163.024 35.8003 163.784C35.8003 164.296 35.6763 164.788 35.4283 165.26C35.1883 165.732 34.8083 166.24 34.2883 166.784L32.4283 168.728H36.1243V170H30.5083ZM40.4036 170.12C39.4196 170.12 38.6476 169.908 38.0876 169.484C37.5356 169.06 37.2596 168.472 37.2596 167.72C37.2596 167.208 37.3916 166.772 37.6556 166.412C37.9276 166.052 38.2796 165.8 38.7116 165.656C38.3276 165.488 38.0236 165.232 37.7996 164.888C37.5836 164.544 37.4756 164.148 37.4756 163.7C37.4756 162.988 37.7396 162.432 38.2676 162.032C38.7956 161.624 39.5076 161.42 40.4036 161.42C41.3076 161.42 42.0236 161.624 42.5516 162.032C43.0796 162.432 43.3436 162.988 43.3436 163.7C43.3436 164.148 43.2316 164.548 43.0076 164.9C42.7916 165.244 42.4956 165.496 42.1196 165.656C42.5516 165.8 42.8956 166.056 43.1516 166.424C43.4156 166.784 43.5476 167.216 43.5476 167.72C43.5476 168.472 43.2676 169.06 42.7076 169.484C42.1556 169.908 41.3876 170.12 40.4036 170.12ZM40.4036 165.116C40.8756 165.116 41.2436 165.004 41.5076 164.78C41.7796 164.556 41.9156 164.248 41.9156 163.856C41.9156 163.472 41.7796 163.172 41.5076 162.956C41.2436 162.732 40.8756 162.62 40.4036 162.62C39.9316 162.62 39.5636 162.732 39.2996 162.956C39.0356 163.172 38.9036 163.472 38.9036 163.856C38.9036 164.248 39.0356 164.556 39.2996 164.78C39.5636 165.004 39.9316 165.116 40.4036 165.116ZM40.4036 168.92C41.5476 168.92 42.1196 168.484 42.1196 167.612C42.1196 166.748 41.5476 166.316 40.4036 166.316C39.8436 166.316 39.4156 166.424 39.1196 166.64C38.8316 166.856 38.6876 167.18 38.6876 167.612C38.6876 168.044 38.8316 168.372 39.1196 168.596C39.4156 168.812 39.8436 168.92 40.4036 168.92Z" fill="#F9F9F9"/>
<path d="M78.8958 154.09C78.2024 154.09 77.6091 153.943 77.1158 153.65C76.6224 153.357 76.2424 152.94 75.9758 152.4C75.7158 151.86 75.5858 151.217 75.5858 150.47C75.5858 149.73 75.7158 149.09 75.9758 148.55C76.2424 148.01 76.6224 147.593 77.1158 147.3C77.6091 147.007 78.2024 146.86 78.8958 146.86C79.3824 146.86 79.8291 146.937 80.2358 147.09C80.6491 147.243 80.9991 147.467 81.2858 147.76L80.9658 148.43C80.6591 148.143 80.3391 147.937 80.0058 147.81C79.6791 147.677 79.3158 147.61 78.9158 147.61C78.1224 147.61 77.5158 147.86 77.0958 148.36C76.6758 148.86 76.4658 149.563 76.4658 150.47C76.4658 151.383 76.6758 152.09 77.0958 152.59C77.5158 153.09 78.1224 153.34 78.9158 153.34C79.3158 153.34 79.6791 153.277 80.0058 153.15C80.3391 153.017 80.6591 152.807 80.9658 152.52L81.2858 153.19C80.9991 153.477 80.6491 153.7 80.2358 153.86C79.8291 154.013 79.3824 154.09 78.8958 154.09ZM84.1269 154.09C82.9602 154.09 82.3769 153.447 82.3769 152.16V149.14H83.1869V152.15C83.1869 152.583 83.2735 152.903 83.4469 153.11C83.6269 153.317 83.9069 153.42 84.2869 153.42C84.7002 153.42 85.0369 153.283 85.2969 153.01C85.5569 152.73 85.6869 152.36 85.6869 151.9V149.14H86.4969V154H85.7069V153.18C85.5535 153.473 85.3369 153.7 85.0569 153.86C84.7835 154.013 84.4735 154.09 84.1269 154.09ZM88.0623 154V149.14H88.8523V150.01C89.1123 149.423 89.6457 149.1 90.4523 149.04L90.7423 149.01L90.8023 149.71L90.2923 149.77C89.8323 149.81 89.4823 149.957 89.2423 150.21C89.0023 150.457 88.8823 150.797 88.8823 151.23V154H88.0623ZM91.6963 154V149.14H92.4863V150.01C92.7463 149.423 93.2797 149.1 94.0863 149.04L94.3763 149.01L94.4363 149.71L93.9263 149.77C93.4663 149.81 93.1163 149.957 92.8763 150.21C92.6363 150.457 92.5163 150.797 92.5163 151.23V154H91.6963ZM97.4617 154.09C96.6951 154.09 96.0884 153.867 95.6417 153.42C95.1951 152.967 94.9717 152.353 94.9717 151.58C94.9717 151.08 95.0717 150.64 95.2717 150.26C95.4717 149.873 95.7451 149.577 96.0917 149.37C96.4451 149.157 96.8517 149.05 97.3117 149.05C97.9717 149.05 98.4884 149.263 98.8617 149.69C99.2351 150.11 99.4217 150.69 99.4217 151.43V151.74H95.7617C95.7884 152.293 95.9484 152.717 96.2417 153.01C96.5351 153.297 96.9417 153.44 97.4617 153.44C97.7551 153.44 98.0351 153.397 98.3017 153.31C98.5684 153.217 98.8217 153.067 99.0617 152.86L99.3417 153.43C99.1217 153.637 98.8417 153.8 98.5017 153.92C98.1617 154.033 97.8151 154.09 97.4617 154.09ZM97.3317 149.65C96.8717 149.65 96.5084 149.793 96.2417 150.08C95.9751 150.367 95.8184 150.743 95.7717 151.21H98.7217C98.7017 150.717 98.5717 150.333 98.3317 150.06C98.0984 149.787 97.7651 149.65 97.3317 149.65ZM100.644 154V149.14H101.434V149.97C101.594 149.663 101.821 149.433 102.114 149.28C102.407 149.127 102.737 149.05 103.104 149.05C104.257 149.05 104.834 149.69 104.834 150.97V154H104.024V151.02C104.024 150.567 103.934 150.237 103.754 150.03C103.581 149.817 103.301 149.71 102.914 149.71C102.467 149.71 102.111 149.85 101.844 150.13C101.584 150.403 101.454 150.77 101.454 151.23V154H100.644ZM108.328 154.09C107.754 154.09 107.324 153.94 107.038 153.64C106.751 153.333 106.608 152.893 106.608 152.32V149.77H105.658V149.14H106.608V147.65H107.418V149.14H108.958V149.77H107.418V152.24C107.418 152.62 107.498 152.91 107.658 153.11C107.818 153.303 108.078 153.4 108.438 153.4C108.544 153.4 108.651 153.387 108.758 153.36C108.864 153.333 108.961 153.307 109.048 153.28L109.188 153.9C109.101 153.947 108.974 153.99 108.808 154.03C108.641 154.07 108.481 154.09 108.328 154.09ZM112.652 154V146.95H115.442C116.202 146.95 116.782 147.133 117.182 147.5C117.589 147.867 117.792 148.39 117.792 149.07C117.792 149.743 117.589 150.267 117.182 150.64C116.782 151.007 116.202 151.19 115.442 151.19H113.472V154H112.652ZM113.472 150.5H115.342C116.435 150.5 116.982 150.023 116.982 149.07C116.982 148.11 116.435 147.63 115.342 147.63H113.472V150.5ZM118.823 154V149.14H119.613V150.01C119.873 149.423 120.406 149.1 121.213 149.04L121.503 149.01L121.563 149.71L121.053 149.77C120.593 149.81 120.243 149.957 120.003 150.21C119.763 150.457 119.643 150.797 119.643 151.23V154H118.823ZM122.356 147.93V147.02H123.356V147.93H122.356ZM122.456 154V149.14H123.266V154H122.456ZM126.891 154.09C126.404 154.09 125.984 153.987 125.631 153.78C125.277 153.567 125.004 153.27 124.811 152.89C124.624 152.503 124.531 152.053 124.531 151.54C124.531 150.767 124.741 150.16 125.161 149.72C125.581 149.273 126.157 149.05 126.891 149.05C127.191 149.05 127.487 149.103 127.781 149.21C128.074 149.317 128.317 149.467 128.511 149.66L128.231 150.25C128.037 150.063 127.824 149.927 127.591 149.84C127.364 149.753 127.147 149.71 126.941 149.71C126.434 149.71 126.044 149.87 125.771 150.19C125.497 150.503 125.361 150.957 125.361 151.55C125.361 152.13 125.497 152.59 125.771 152.93C126.044 153.263 126.434 153.43 126.941 153.43C127.147 153.43 127.364 153.387 127.591 153.3C127.824 153.213 128.037 153.073 128.231 152.88L128.511 153.47C128.317 153.663 128.071 153.817 127.771 153.93C127.477 154.037 127.184 154.09 126.891 154.09ZM131.602 154.09C130.835 154.09 130.229 153.867 129.782 153.42C129.335 152.967 129.112 152.353 129.112 151.58C129.112 151.08 129.212 150.64 129.412 150.26C129.612 149.873 129.885 149.577 130.232 149.37C130.585 149.157 130.992 149.05 131.452 149.05C132.112 149.05 132.629 149.263 133.002 149.69C133.375 150.11 133.562 150.69 133.562 151.43V151.74H129.902C129.929 152.293 130.089 152.717 130.382 153.01C130.675 153.297 131.082 153.44 131.602 153.44C131.895 153.44 132.175 153.397 132.442 153.31C132.709 153.217 132.962 153.067 133.202 152.86L133.482 153.43C133.262 153.637 132.982 153.8 132.642 153.92C132.302 154.033 131.955 154.09 131.602 154.09ZM131.472 149.65C131.012 149.65 130.649 149.793 130.382 150.08C130.115 150.367 129.959 150.743 129.912 151.21H132.862C132.842 150.717 132.712 150.333 132.472 150.06C132.239 149.787 131.905 149.65 131.472 149.65Z" fill="#BABABA"/>
<path d="M77.9331 170.12C77.3571 170.12 76.8051 170.036 76.2771 169.868C75.7571 169.692 75.3251 169.456 74.9811 169.16L75.4851 167.984C76.2051 168.544 77.0051 168.824 77.8851 168.824C78.9651 168.824 79.5051 168.4 79.5051 167.552C79.5051 167.152 79.3691 166.856 79.0971 166.664C78.8331 166.464 78.4451 166.364 77.9331 166.364H76.5771V165.092H77.7891C78.2371 165.092 78.5931 164.984 78.8571 164.768C79.1211 164.544 79.2531 164.236 79.2531 163.844C79.2531 163.476 79.1291 163.196 78.8811 163.004C78.6411 162.812 78.2891 162.716 77.8251 162.716C76.9931 162.716 76.2611 163.004 75.6291 163.58L75.1251 162.428C75.4611 162.108 75.8811 161.86 76.3851 161.684C76.8891 161.508 77.4131 161.42 77.9571 161.42C78.8371 161.42 79.5211 161.62 80.0091 162.02C80.4971 162.412 80.7411 162.96 80.7411 163.664C80.7411 164.12 80.6251 164.52 80.3931 164.864C80.1611 165.208 79.8451 165.456 79.4451 165.608C79.9331 165.744 80.3131 165.996 80.5851 166.364C80.8571 166.724 80.9931 167.164 80.9931 167.684C80.9931 168.436 80.7211 169.032 80.1771 169.472C79.6331 169.904 78.8851 170.12 77.9331 170.12ZM82.4044 170V168.332H84.0844V170H82.4044ZM85.753 170V168.86L88.489 165.944C88.857 165.544 89.121 165.192 89.281 164.888C89.441 164.576 89.521 164.26 89.521 163.94C89.521 163.124 89.029 162.716 88.045 162.716C87.277 162.716 86.569 163.004 85.921 163.58L85.405 162.428C85.741 162.124 86.161 161.88 86.665 161.696C87.169 161.512 87.693 161.42 88.237 161.42C89.141 161.42 89.833 161.624 90.313 162.032C90.801 162.44 91.045 163.024 91.045 163.784C91.045 164.296 90.921 164.788 90.673 165.26C90.433 165.732 90.053 166.24 89.533 166.784L87.673 168.728H91.369V170H85.753ZM93.0083 170V168.86L95.7443 165.944C96.1123 165.544 96.3763 165.192 96.5363 164.888C96.6963 164.576 96.7763 164.26 96.7763 163.94C96.7763 163.124 96.2843 162.716 95.3003 162.716C94.5323 162.716 93.8243 163.004 93.1763 163.58L92.6603 162.428C92.9963 162.124 93.4163 161.88 93.9203 161.696C94.4243 161.512 94.9483 161.42 95.4923 161.42C96.3963 161.42 97.0883 161.624 97.5683 162.032C98.0563 162.44 98.3003 163.024 98.3003 163.784C98.3003 164.296 98.1763 164.788 97.9283 165.26C97.6883 165.732 97.3083 166.24 96.7883 166.784L94.9283 168.728H98.6243V170H93.0083ZM102.904 170.12C101.92 170.12 101.148 169.908 100.588 169.484C100.036 169.06 99.7596 168.472 99.7596 167.72C99.7596 167.208 99.8916 166.772 100.156 166.412C100.428 166.052 100.78 165.8 101.212 165.656C100.828 165.488 100.524 165.232 100.3 164.888C100.084 164.544 99.9756 164.148 99.9756 163.7C99.9756 162.988 100.24 162.432 100.768 162.032C101.296 161.624 102.008 161.42 102.904 161.42C103.808 161.42 104.524 161.624 105.052 162.032C105.58 162.432 105.844 162.988 105.844 163.7C105.844 164.148 105.732 164.548 105.508 164.9C105.292 165.244 104.996 165.496 104.62 165.656C105.052 165.8 105.396 166.056 105.652 166.424C105.916 166.784 106.048 167.216 106.048 167.72C106.048 168.472 105.768 169.06 105.208 169.484C104.656 169.908 103.888 170.12 102.904 170.12ZM102.904 165.116C103.376 165.116 103.744 165.004 104.008 164.78C104.28 164.556 104.416 164.248 104.416 163.856C104.416 163.472 104.28 163.172 104.008 162.956C103.744 162.732 103.376 162.62 102.904 162.62C102.432 162.62 102.064 162.732 101.8 162.956C101.536 163.172 101.404 163.472 101.404 163.856C101.404 164.248 101.536 164.556 101.8 164.78C102.064 165.004 102.432 165.116 102.904 165.116ZM102.904 168.92C104.048 168.92 104.62 168.484 104.62 167.612C104.62 166.748 104.048 166.316 102.904 166.316C102.344 166.316 101.916 166.424 101.62 166.64C101.332 166.856 101.188 167.18 101.188 167.612C101.188 168.044 101.332 168.372 101.62 168.596C101.916 168.812 102.344 168.92 102.904 168.92Z" fill="#F9F9F9"/>
<rect x="261" y="142" width="32" height="32" rx="16" fill="#E94560"/>
<path d="M274.133 166L272.267 164.133L278.4 158L272.267 151.867L274.133 150L282.133 158L274.133 166Z" fill="white"/>
<g opacity="0.8">
<mask id="path-31-inside-1_721_14898" fill="white">
<path d="M147 103C147 96.3726 152.373 91 159 91H305V131H159C152.373 131 147 125.627 147 119V103Z"/>
</mask>
<path d="M147 103C147 96.3726 152.373 91 159 91H305V131H159C152.373 131 147 125.627 147 119V103Z" fill="#2B2933"/>
<path d="M160.568 111.832V115.32H166.616V121.592H170.2V115.32H176.28V111.832H170.2V105.592H166.616V111.832H160.568ZM194.107 102.232H178.331V106.04H189.019C189.019 106.04 182.075 111.832 181.211 123H185.787C186.715 112.536 192.539 107.256 194.107 105.912V102.232ZM196.921 116.056C196.921 115.482 197.327 115.09 197.845 115.09C198.377 115.09 198.769 115.482 198.769 116.056C198.769 116.63 198.377 117.036 197.845 117.036C197.327 117.036 196.921 116.644 196.921 116.056ZM195.521 116.056C195.521 117.33 196.571 118.338 197.845 118.338C199.105 118.338 200.183 117.358 200.183 116.056C200.183 114.768 199.105 113.76 197.845 113.76C196.585 113.76 195.521 114.768 195.521 116.056ZM203.039 120.872C203.039 120.298 203.445 119.906 203.963 119.906C204.495 119.906 204.887 120.298 204.887 120.872C204.887 121.446 204.495 121.852 203.963 121.852C203.445 121.852 203.039 121.46 203.039 120.872ZM201.639 120.872C201.639 122.146 202.689 123.154 203.963 123.154C205.223 123.154 206.301 122.174 206.301 120.872C206.301 119.584 205.223 118.576 203.963 118.576C202.703 118.576 201.639 119.584 201.639 120.872ZM198.517 123L204.929 113.914H203.305L196.893 123H198.517Z" fill="#3BEE4C"/>
<path d="M217.28 108H216.08V99.492H217.28V108ZM220.691 104.664V108H219.563V102.228H220.667V103.056C221.087 102.336 221.771 102.06 222.443 102.06C223.823 102.06 224.507 103.056 224.507 104.34V108H223.379V104.532C223.379 103.728 223.043 103.08 222.035 103.08C221.147 103.08 220.691 103.788 220.691 104.664ZM226.002 106.5L227.022 106.14C227.094 106.74 227.55 107.22 228.366 107.22C229.002 107.22 229.35 106.86 229.35 106.452C229.35 106.092 229.086 105.816 228.606 105.708L227.622 105.492C226.722 105.3 226.182 104.688 226.182 103.872C226.182 102.888 227.106 102.048 228.234 102.048C229.818 102.048 230.31 103.08 230.43 103.596L229.434 103.968C229.386 103.668 229.146 103.008 228.234 103.008C227.658 103.008 227.274 103.38 227.274 103.776C227.274 104.124 227.49 104.376 227.934 104.472L228.87 104.676C229.914 104.904 230.466 105.54 230.466 106.392C230.466 107.208 229.782 108.18 228.354 108.18C226.77 108.18 226.098 107.16 226.002 106.5ZM233.719 100.404V102.228H234.967V103.248H233.719V106.248C233.719 106.776 233.935 107.04 234.523 107.04C234.667 107.04 234.871 107.016 234.967 106.992V107.952C234.871 107.988 234.583 108.06 234.199 108.06C233.215 108.06 232.591 107.46 232.591 106.416V103.248H231.487V102.228H231.799C232.423 102.228 232.687 101.844 232.687 101.34V100.404H233.719ZM236.353 106.452C236.353 105.42 237.109 104.844 238.105 104.7L239.665 104.472C240.013 104.424 240.109 104.244 240.109 104.04C240.109 103.476 239.737 103.008 238.861 103.008C238.069 103.008 237.625 103.5 237.553 104.172L236.473 103.92C236.593 102.816 237.589 102.048 238.837 102.048C240.565 102.048 241.237 103.032 241.237 104.16V107.052C241.237 107.556 241.285 107.856 241.309 108H240.205C240.181 107.856 240.145 107.64 240.145 107.22C239.893 107.628 239.317 108.18 238.285 108.18C237.109 108.18 236.353 107.364 236.353 106.452ZM238.441 107.232C239.365 107.232 240.109 106.788 240.109 105.528V105.264L238.345 105.528C237.865 105.6 237.505 105.876 237.505 106.392C237.505 106.824 237.865 107.232 238.441 107.232ZM244.362 104.664V108H243.234V102.228H244.338V103.056C244.758 102.336 245.442 102.06 246.114 102.06C247.494 102.06 248.178 103.056 248.178 104.34V108H247.05V104.532C247.05 103.728 246.714 103.08 245.706 103.08C244.818 103.08 244.362 103.788 244.362 104.664ZM251.724 100.404V102.228H252.972V103.248H251.724V106.248C251.724 106.776 251.94 107.04 252.528 107.04C252.672 107.04 252.876 107.016 252.972 106.992V107.952C252.876 107.988 252.588 108.06 252.204 108.06C251.22 108.06 250.596 107.46 250.596 106.416V103.248H249.492V102.228H249.804C250.428 102.228 250.692 101.844 250.692 101.34V100.404H251.724ZM260.43 107.172C261.39 107.172 262.23 106.452 262.23 105.108C262.23 103.776 261.39 103.056 260.43 103.056C259.47 103.056 258.63 103.776 258.63 105.108C258.63 106.452 259.47 107.172 260.43 107.172ZM260.43 102.048C262.158 102.048 263.382 103.356 263.382 105.108C263.382 106.872 262.158 108.18 260.43 108.18C258.702 108.18 257.478 106.872 257.478 105.108C257.478 103.356 258.702 102.048 260.43 102.048ZM266.193 104.664V108H265.065V102.228H266.169V103.056C266.589 102.336 267.273 102.06 267.945 102.06C269.325 102.06 270.009 103.056 270.009 104.34V108H268.881V104.532C268.881 103.728 268.545 103.08 267.537 103.08C266.649 103.08 266.193 103.788 266.193 104.664ZM217.076 122H215.96V116.228H217.076V122ZM215.708 114.044C215.708 113.588 216.068 113.228 216.512 113.228C216.968 113.228 217.328 113.588 217.328 114.044C217.328 114.488 216.968 114.848 216.512 114.848C216.068 114.848 215.708 114.488 215.708 114.044ZM220.363 118.664V122H219.235V116.228H220.339V117.056C220.759 116.336 221.443 116.06 222.115 116.06C223.495 116.06 224.179 117.056 224.179 118.34V122H223.051V118.532C223.051 117.728 222.715 117.08 221.707 117.08C220.819 117.08 220.363 117.788 220.363 118.664ZM227.329 122H226.213V116.228H227.329V122ZM225.961 114.044C225.961 113.588 226.321 113.228 226.765 113.228C227.221 113.228 227.581 113.588 227.581 114.044C227.581 114.488 227.221 114.848 226.765 114.848C226.321 114.848 225.961 114.488 225.961 114.044ZM231.001 114.404V116.228H232.249V117.248H231.001V120.248C231.001 120.776 231.217 121.04 231.805 121.04C231.949 121.04 232.153 121.016 232.249 120.992V121.952C232.153 121.988 231.865 122.06 231.481 122.06C230.497 122.06 229.873 121.46 229.873 120.416V117.248H228.769V116.228H229.081C229.705 116.228 229.969 115.844 229.969 115.34V114.404H231.001ZM235.11 122H233.994V116.228H235.11V122ZM233.742 114.044C233.742 113.588 234.102 113.228 234.546 113.228C235.002 113.228 235.362 113.588 235.362 114.044C235.362 114.488 235.002 114.848 234.546 114.848C234.102 114.848 233.742 114.488 233.742 114.044ZM236.909 120.452C236.909 119.42 237.665 118.844 238.661 118.7L240.221 118.472C240.569 118.424 240.665 118.244 240.665 118.04C240.665 117.476 240.293 117.008 239.417 117.008C238.625 117.008 238.181 117.5 238.109 118.172L237.029 117.92C237.149 116.816 238.145 116.048 239.393 116.048C241.121 116.048 241.793 117.032 241.793 118.16V121.052C241.793 121.556 241.841 121.856 241.865 122H240.761C240.737 121.856 240.701 121.64 240.701 121.22C240.449 121.628 239.873 122.18 238.841 122.18C237.665 122.18 236.909 121.364 236.909 120.452ZM238.997 121.232C239.921 121.232 240.665 120.788 240.665 119.528V119.264L238.901 119.528C238.421 119.6 238.061 119.876 238.061 120.392C238.061 120.824 238.421 121.232 238.997 121.232ZM244.919 122H243.791V113.312H244.919V122ZM255.261 116.228L252.957 122H251.817L249.477 116.228H250.749L252.393 120.68L254.049 116.228H255.261ZM256.162 120.452C256.162 119.42 256.918 118.844 257.914 118.7L259.474 118.472C259.822 118.424 259.918 118.244 259.918 118.04C259.918 117.476 259.546 117.008 258.67 117.008C257.878 117.008 257.434 117.5 257.362 118.172L256.282 117.92C256.402 116.816 257.398 116.048 258.646 116.048C260.374 116.048 261.046 117.032 261.046 118.16V121.052C261.046 121.556 261.094 121.856 261.118 122H260.014C259.99 121.856 259.954 121.64 259.954 121.22C259.702 121.628 259.126 122.18 258.094 122.18C256.918 122.18 256.162 121.364 256.162 120.452ZM258.25 121.232C259.174 121.232 259.918 120.788 259.918 119.528V119.264L258.154 119.528C257.674 119.6 257.314 119.876 257.314 120.392C257.314 120.824 257.674 121.232 258.25 121.232ZM264.172 122H263.044V113.312H264.172V122ZM270.076 121.304C269.764 121.904 269.044 122.18 268.372 122.18C267.028 122.18 266.212 121.172 266.212 119.864V116.228H267.34V119.696C267.34 120.488 267.7 121.184 268.648 121.184C269.56 121.184 270.016 120.584 270.016 119.708V116.228H271.144V120.932C271.144 121.388 271.18 121.796 271.204 122H270.124C270.1 121.868 270.076 121.544 270.076 121.304ZM273.982 118.52H277.138C277.114 117.692 276.574 117.044 275.554 117.044C274.606 117.044 274.03 117.776 273.982 118.52ZM277.306 120.02L278.278 120.356C277.954 121.376 277.03 122.18 275.686 122.18C274.138 122.18 272.782 121.052 272.782 119.096C272.782 117.284 274.09 116.048 275.542 116.048C277.318 116.048 278.314 117.272 278.314 119.072C278.314 119.216 278.302 119.36 278.29 119.432H273.946C273.97 120.464 274.714 121.184 275.686 121.184C276.622 121.184 277.09 120.668 277.306 120.02Z" fill="white"/>
<path d="M146 103C146 95.8203 151.82 90 159 90H305V92H159C152.925 92 148 96.9249 148 103H146ZM305 132H159C151.82 132 146 126.18 146 119H148C148 125.075 152.925 130 159 130H305V132ZM159 132C151.82 132 146 126.18 146 119V103C146 95.8203 151.82 90 159 90V92C152.925 92 148 96.9249 148 103V119C148 125.075 152.925 130 159 130V132ZM305 91V131V91Z" fill="url(#paint3_angular_721_14898)" mask="url(#path-31-inside-1_721_14898)"/>
</g>
<rect x="1" y="1" width="303" height="196" rx="11" stroke="url(#paint4_angular_721_14898)" stroke-width="2"/>
</g>
<defs>
<linearGradient id="paint0_linear_721_14898" x1="152.5" y1="0" x2="152.5" y2="198" gradientUnits="userSpaceOnUse">
<stop stop-color="#2B2933"/>
<stop offset="1" stop-color="#2B2933" stop-opacity="0"/>
</linearGradient>
<linearGradient id="paint1_linear_721_14898" x1="39.8079" y1="57.1413" x2="49.4205" y2="66.7538" gradientUnits="userSpaceOnUse">
<stop stop-color="#3E2723" stop-opacity="0.2"/>
<stop offset="1" stop-color="#3E2723" stop-opacity="0.02"/>
</linearGradient>
<linearGradient id="paint2_linear_721_14898" x1="28.4998" y1="53.2384" x2="57.5002" y2="66.7616" gradientUnits="userSpaceOnUse">
<stop stop-color="white" stop-opacity="0.2"/>
<stop offset="1" stop-color="white" stop-opacity="0"/>
</linearGradient>
<radialGradient id="paint3_angular_721_14898" cx="0" cy="0" r="1" gradientUnits="userSpaceOnUse" gradientTransform="translate(218.1 111) rotate(163.414) scale(91.0847 58.8559)">
<stop offset="0.262384" stop-color="#E94560"/>
<stop offset="0.316101" stop-color="#E94560"/>
<stop offset="0.847059" stop-color="#7758ED"/>
<stop offset="0.980162" stop-color="#6443EB"/>
</radialGradient>
<radialGradient id="paint4_angular_721_14898" cx="0" cy="0" r="1" gradientUnits="userSpaceOnUse" gradientTransform="translate(137.25 99) rotate(142.63) scale(212.038 241.585)">
<stop offset="0.262384" stop-color="#E94560"/>
<stop offset="0.316101" stop-color="#E94560"/>
<stop offset="0.847059" stop-color="#7758ED"/>
<stop offset="0.980162" stop-color="#6443EB"/>
</radialGradient>
<clipPath id="clip0_721_14898">
<rect width="32" height="32" fill="white" transform="translate(20 44)"/>
</clipPath>
<clipPath id="clip1_721_14898">
<rect width="34" height="32" fill="white" transform="translate(210 44)"/>
</clipPath>
</defs>
</svg>
