<svg width="328" height="217" viewBox="0 0 328 217" fill="none" xmlns="http://www.w3.org/2000/svg">
<g opacity="0.8">
<rect x="1" y="1" width="326" height="215" rx="11" fill="#2B2933"/>
<path d="M21.2885 31.5557L17.5589 25.0437V24.1754H17.9931C18.6903 24.1754 19.2757 24.1096 19.7493 23.9781C20.2361 23.8465 20.6176 23.6294 20.8939 23.3269C21.1701 23.0243 21.3346 22.6099 21.3872 22.0837H17.5589V20.8207H21.3675C21.2754 20.334 21.0912 19.9393 20.8149 19.6367C20.5387 19.321 20.1637 19.0908 19.6901 18.9461C19.2297 18.8014 18.664 18.729 17.9931 18.729H17.5589V17.4661H25.7285V18.729H21.9989C22.3015 18.979 22.5515 19.275 22.7488 19.617C22.9461 19.959 23.0711 20.3603 23.1237 20.8207H25.7285V22.0837H23.1632C23.0711 23.044 22.7028 23.7939 22.0581 24.3333C21.4267 24.8595 20.5847 25.195 19.5323 25.3397L23.3013 31.5557H21.2885ZM28.378 31.1215L29.0292 29.1877C29.5226 29.5034 30.4698 29.7797 31.3183 29.7797C34.002 29.7797 35.4426 28.1615 35.561 25.7541C35.0874 26.5829 33.9626 27.2341 32.4431 27.2341C30.1343 27.2341 28.0228 25.6554 28.0228 22.9322C28.0228 20.2879 30.154 18.4725 32.8378 18.4725C35.5018 18.4725 37.8895 20.3669 37.8895 24.4517C37.8895 29.089 35.6794 31.8517 31.338 31.8517C30.2922 31.8517 29.0292 31.5557 28.378 31.1215ZM35.2452 22.8533C35.2452 21.4325 34.081 20.4853 32.7983 20.4853C31.4959 20.4853 30.3514 21.4127 30.3514 22.8533C30.3514 24.353 31.4762 25.241 32.7983 25.241C34.081 25.241 35.2452 24.3135 35.2452 22.8533ZM39.3518 28.0234L41.5816 27.4511C41.6803 28.8127 42.6867 29.8389 44.1667 29.8389C45.5086 29.8389 46.5939 28.9311 46.5939 27.5103C46.5939 25.9317 45.4296 25.1423 44.1272 25.1423C43.2195 25.1423 42.4499 25.5173 41.996 26.0303L39.7662 25.2213L41.3448 18.7685H48.3502V20.8405H42.9432L42.1539 24.0767C42.7064 23.5045 43.6931 23.1887 44.6008 23.1887C47.1464 23.1887 48.9816 24.7674 48.9816 27.4511C48.9816 29.8586 47.1267 31.8714 44.1667 31.8714C41.404 31.8714 39.5096 30.0362 39.3518 28.0234ZM50.679 30.1151C50.679 29.2863 51.3894 28.6154 52.3169 28.6154C53.3628 28.6154 54.1126 29.4442 54.1126 30.7071C54.1126 33.4698 52.238 34.6341 50.8961 34.8117V33.6474C51.8038 33.4501 52.6326 32.5423 52.6524 31.5162C52.5734 31.5557 52.4353 31.6149 52.1788 31.6149C51.3105 31.6149 50.679 31.0229 50.679 30.1151ZM56.0211 28.0234L58.2509 27.4511C58.3496 28.8127 59.356 29.8389 60.836 29.8389C62.1779 29.8389 63.2632 28.9311 63.2632 27.5103C63.2632 25.9317 62.0989 25.1423 60.7965 25.1423C59.8888 25.1423 59.1192 25.5173 58.6653 26.0303L56.4355 25.2213L58.0141 18.7685H65.0195V20.8405H59.6125L58.8232 24.0767C59.3757 23.5045 60.3624 23.1887 61.2701 23.1887C63.8157 23.1887 65.6509 24.7674 65.6509 27.4511C65.6509 29.8586 63.796 31.8714 60.836 31.8714C58.0733 31.8714 56.1789 30.0362 56.0211 28.0234ZM69.4561 25.1621C69.4561 26.7802 69.7521 28.0234 70.3638 28.8127C70.7979 29.385 71.4097 29.7599 72.3371 29.7599C73.2646 29.7599 73.8566 29.385 74.3105 28.8127C74.9222 28.0234 75.1985 26.7802 75.1985 25.1621C75.1985 23.5439 74.9222 22.3007 74.3105 21.5114C73.8566 20.9391 73.2646 20.5642 72.3371 20.5642C71.4097 20.5642 70.7979 20.9391 70.3638 21.5114C69.7323 22.3007 69.4561 23.5439 69.4561 25.1621ZM67.1078 25.1621C67.1078 23.465 67.3841 21.8666 68.2523 20.5642C69.0811 19.321 70.423 18.4725 72.3371 18.4725C74.2513 18.4725 75.5734 19.321 76.4022 20.5642C77.2705 21.8666 77.5467 23.465 77.5467 25.1621C77.5467 26.8591 77.2705 28.4575 76.4022 29.7599C75.5734 31.0031 74.2513 31.8517 72.3371 31.8517C70.423 31.8517 69.0811 31.0031 68.2523 29.7599C67.3841 28.4575 67.1078 26.8591 67.1078 25.1621ZM79.5228 31.1215L80.174 29.1877C80.6674 29.5034 81.6146 29.7797 82.4631 29.7797C85.1468 29.7797 86.5874 28.1615 86.7058 25.7541C86.2322 26.5829 85.1074 27.2341 83.5879 27.2341C81.2791 27.2341 79.1676 25.6554 79.1676 22.9322C79.1676 20.2879 81.2988 18.4725 83.9826 18.4725C86.6466 18.4725 89.0343 20.3669 89.0343 24.4517C89.0343 29.089 86.8242 31.8517 82.4828 31.8517C81.437 31.8517 80.174 31.5557 79.5228 31.1215ZM86.39 22.8533C86.39 21.4325 85.2258 20.4853 83.9431 20.4853C82.6407 20.4853 81.4962 21.4127 81.4962 22.8533C81.4962 24.353 82.621 25.241 83.9431 25.241C85.2258 25.241 86.39 24.3135 86.39 22.8533ZM90.4549 30.0757C90.4549 29.1877 91.1653 28.4575 92.0533 28.4575C92.9413 28.4575 93.6715 29.1877 93.6715 30.0757C93.6715 30.9637 92.9413 31.6741 92.0533 31.6741C91.1653 31.6741 90.4549 30.9637 90.4549 30.0757ZM104.024 18.7685V20.8405C102.958 21.7285 99.3473 24.9647 98.775 31.5557H96.3281C96.8806 24.4122 101.34 20.8405 101.34 20.8405H94.4731V18.7685H104.024ZM104.526 28.0234L106.756 27.4511C106.854 28.8127 107.861 29.8389 109.341 29.8389C110.683 29.8389 111.768 28.9311 111.768 27.5103C111.768 25.9317 110.604 25.1423 109.301 25.1423C108.393 25.1423 107.624 25.5173 107.17 26.0303L104.94 25.2213L106.519 18.7685H113.524V20.8405H108.117L107.328 24.0767C107.88 23.5045 108.867 23.1887 109.775 23.1887C112.32 23.1887 114.156 24.7674 114.156 27.4511C114.156 29.8586 112.301 31.8714 109.341 31.8714C106.578 31.8714 104.684 30.0362 104.526 28.0234Z" fill="#B5B2C1"/>
<path d="M19.4994 50.5557V47.7535H16.6972V46.7669H19.4994V43.9779H20.486V46.7669H23.275V47.7535H20.486V50.5557H19.4994ZM28.5947 50.5557V41.6757H26.7529V40.7548H29.6471V50.5557H28.5947ZM32.1348 50.5557L36.555 41.6757H31.6612V40.7548H37.647V41.6757L33.2398 50.5557H32.1348ZM43.0666 50.7135C42.2948 50.7135 41.6151 50.503 41.0275 50.0821C40.4487 49.6523 39.997 49.0603 39.6725 48.3061C39.348 47.543 39.1857 46.6572 39.1857 45.6486C39.1857 44.64 39.348 43.7586 39.6725 43.0044C39.997 42.2414 40.4487 41.6494 41.0275 41.2284C41.6064 40.8074 42.2817 40.5969 43.0535 40.5969C43.8253 40.5969 44.5006 40.8074 45.0794 41.2284C45.6583 41.6494 46.11 42.2414 46.4345 43.0044C46.759 43.7586 46.9212 44.64 46.9212 45.6486C46.9212 46.6572 46.759 47.543 46.4345 48.3061C46.1187 49.0691 45.6714 49.6611 45.0926 50.0821C44.5137 50.503 43.8384 50.7135 43.0666 50.7135ZM43.0666 49.7269C43.6279 49.7269 44.1191 49.5558 44.5401 49.2138C44.961 48.8718 45.2899 48.3982 45.5267 47.793C45.7635 47.1791 45.8819 46.4643 45.8819 45.6486C45.8819 44.833 45.7635 44.1226 45.5267 43.5174C45.2899 42.9035 44.961 42.4299 44.5401 42.0966C44.1191 41.7546 43.6236 41.5836 43.0535 41.5836C42.4922 41.5836 42.001 41.7546 41.5801 42.0966C41.1591 42.4299 40.8302 42.9035 40.5934 43.5174C40.3566 44.1226 40.2382 44.833 40.2382 45.6486C40.2382 46.4555 40.3566 47.1659 40.5934 47.7798C40.8302 48.3938 41.1591 48.8718 41.5801 49.2138C42.0098 49.5558 42.5053 49.7269 43.0666 49.7269ZM52.702 50.7135C51.9303 50.7135 51.2506 50.503 50.6629 50.0821C50.0841 49.6523 49.6324 49.0603 49.3079 48.3061C48.9834 47.543 48.8212 46.6572 48.8212 45.6486C48.8212 44.64 48.9834 43.7586 49.3079 43.0044C49.6324 42.2414 50.0841 41.6494 50.6629 41.2284C51.2418 40.8074 51.9171 40.5969 52.6889 40.5969C53.4607 40.5969 54.136 40.8074 54.7148 41.2284C55.2937 41.6494 55.7454 42.2414 56.0699 43.0044C56.3944 43.7586 56.5566 44.64 56.5566 45.6486C56.5566 46.6572 56.3944 47.543 56.0699 48.3061C55.7541 49.0691 55.3068 49.6611 54.728 50.0821C54.1492 50.503 53.4738 50.7135 52.702 50.7135ZM52.702 49.7269C53.2634 49.7269 53.7545 49.5558 54.1755 49.2138C54.5964 48.8718 54.9253 48.3982 55.1621 47.793C55.3989 47.1791 55.5173 46.4643 55.5173 45.6486C55.5173 44.833 55.3989 44.1226 55.1621 43.5174C54.9253 42.9035 54.5964 42.4299 54.1755 42.0966C53.7545 41.7546 53.259 41.5836 52.6889 41.5836C52.1276 41.5836 51.6364 41.7546 51.2155 42.0966C50.7945 42.4299 50.4656 42.9035 50.2288 43.5174C49.992 44.1226 49.8736 44.833 49.8736 45.6486C49.8736 46.4555 49.992 47.1659 50.2288 47.7798C50.4656 48.3938 50.7945 48.8718 51.2155 49.2138C51.6452 49.5558 52.1407 49.7269 52.702 49.7269ZM58.8644 50.5557V49.1086H59.9168V50.5557H58.8644ZM62.0366 50.5557V49.8979L64.773 46.8853C65.308 46.2976 65.7421 45.8109 66.0754 45.425C66.4174 45.0391 66.6718 44.6883 66.8384 44.3726C67.0051 44.0568 67.0884 43.7148 67.0884 43.3464C67.0884 42.7588 66.9173 42.3071 66.5753 41.9914C66.2333 41.6757 65.7772 41.5178 65.2071 41.5178C64.6195 41.5178 64.124 41.6844 63.7205 42.0177C63.3259 42.351 63.0584 42.8158 62.9181 43.4122L61.9577 43.2017C62.1331 42.4036 62.5102 41.7721 63.0891 41.3073C63.6679 40.8337 64.3696 40.5969 65.194 40.5969C65.7816 40.5969 66.2947 40.7153 66.7332 40.9521C67.1717 41.1889 67.5137 41.5134 67.7593 41.9256C68.0136 42.3378 68.1408 42.8114 68.1408 43.3464C68.1408 43.7148 68.0619 44.07 67.904 44.412C67.7549 44.7541 67.5269 45.1224 67.2199 45.5171C66.913 45.9118 66.5183 46.3722 66.0359 46.8984L63.5495 49.6348H68.4039V50.5557H62.0366ZM73.1348 50.7135C72.3718 50.7135 71.6964 50.5206 71.1088 50.1347C70.5212 49.74 70.1002 49.2094 69.8459 48.5429L70.6484 48.1482C70.8501 48.6569 71.179 49.0603 71.6351 49.3585C72.0999 49.6479 72.5998 49.7926 73.1348 49.7926C73.5645 49.7926 73.946 49.6918 74.2793 49.4901C74.6214 49.2883 74.8889 49.0165 75.0818 48.6744C75.2748 48.3236 75.3712 47.9333 75.3712 47.5036C75.3712 47.0563 75.2704 46.6616 75.0687 46.3196C74.8757 45.9775 74.6126 45.71 74.2793 45.5171C73.946 45.3154 73.5689 45.2145 73.1479 45.2145C72.7182 45.2145 72.3191 45.3154 71.9508 45.5171C71.5912 45.71 71.3281 45.9468 71.1615 46.2275L70.3327 46.0696L71.0694 40.7548H76.029V41.6757H71.8061L71.3588 44.833C71.6307 44.64 71.9245 44.4997 72.2402 44.412C72.5559 44.3155 72.8761 44.2673 73.2006 44.2673C73.832 44.2673 74.3889 44.4164 74.8713 44.7146C75.3537 45.004 75.7308 45.3943 76.0027 45.8854C76.2833 46.3678 76.4237 46.9072 76.4237 47.5036C76.4237 48.1087 76.279 48.6569 75.9895 49.148C75.7089 49.6304 75.3186 50.0119 74.8187 50.2926C74.3276 50.5732 73.7663 50.7135 73.1348 50.7135ZM82.8595 50.5557V48.2403H77.8736V47.3852L82.8595 40.7548H83.7804V47.3852H84.9776V48.2403H83.7804V50.5557H82.8595ZM82.8595 47.3852V42.1887L78.9655 47.3852H82.8595ZM90.5529 52.3974C89.8601 51.6081 89.3295 50.7179 88.9611 49.7269C88.6015 48.7358 88.4217 47.6834 88.4217 46.5695C88.4217 45.4469 88.6015 44.3945 88.9611 43.4122C89.3295 42.4211 89.8601 41.5353 90.5529 40.7548H91.4081C90.7766 41.6318 90.2942 42.5659 89.9609 43.5569C89.6364 44.548 89.4742 45.5522 89.4742 46.5695C89.4742 47.5869 89.6364 48.5911 89.9609 49.5822C90.2942 50.5732 90.7766 51.5116 91.4081 52.3974H90.5529ZM93.5777 50.5557L96.6561 46.5301C96.4895 46.6353 96.3053 46.7099 96.1036 46.7537C95.9018 46.7976 95.6826 46.8195 95.4458 46.8195C94.8757 46.8195 94.3626 46.6879 93.9066 46.4248C93.4505 46.1529 93.0866 45.7846 92.8147 45.3198C92.5516 44.8462 92.42 44.3068 92.42 43.7016C92.42 43.1052 92.5559 42.5746 92.8278 42.1098C93.1085 41.645 93.4856 41.2766 93.9592 41.0047C94.4416 40.7328 94.981 40.5969 95.5773 40.5969C96.1913 40.5969 96.735 40.7372 97.2086 41.0179C97.6822 41.2898 98.055 41.6713 98.3268 42.1624C98.5987 42.6448 98.7347 43.2017 98.7347 43.8332C98.7347 44.8593 98.3575 45.8767 97.6033 46.8853L94.8406 50.5557H93.5777ZM95.5773 45.8723C95.9895 45.8723 96.3535 45.7802 96.6692 45.596C96.985 45.4031 97.2306 45.1443 97.406 44.8198C97.5901 44.4866 97.6822 44.1138 97.6822 43.7016C97.6822 43.2806 97.5901 42.9079 97.406 42.5834C97.2218 42.2501 96.9718 41.9914 96.6561 41.8072C96.3404 41.6143 95.9808 41.5178 95.5773 41.5178C95.1739 41.5178 94.8143 41.6143 94.4986 41.8072C94.1828 41.9914 93.9329 42.2501 93.7487 42.5834C93.5645 42.9079 93.4724 43.2806 93.4724 43.7016C93.4724 44.1138 93.5602 44.4866 93.7356 44.8198C93.9197 45.1443 94.1697 45.4031 94.4854 45.596C94.8099 45.7802 95.1739 45.8723 95.5773 45.8723ZM100.618 50.5557V49.1086H101.67V50.5557H100.618ZM104.066 50.5557L108.487 41.6757H103.593V40.7548H109.579V41.6757L105.171 50.5557H104.066ZM111.209 50.5557L115.63 41.6757H110.736V40.7548H116.722V41.6757L112.314 50.5557H111.209ZM120.563 45.7276C120.089 45.7276 119.659 45.6136 119.273 45.3855C118.887 45.1487 118.576 44.8374 118.339 44.4515C118.111 44.0656 117.997 43.6358 117.997 43.1622C117.997 42.6886 118.111 42.2589 118.339 41.873C118.576 41.4783 118.887 41.167 119.273 40.939C119.659 40.7109 120.089 40.5969 120.563 40.5969C121.036 40.5969 121.466 40.7109 121.852 40.939C122.238 41.167 122.545 41.4783 122.773 41.873C123.001 42.2589 123.115 42.6886 123.115 43.1622C123.115 43.6358 123.001 44.0656 122.773 44.4515C122.545 44.8374 122.238 45.1487 121.852 45.3855C121.466 45.6136 121.036 45.7276 120.563 45.7276ZM119.129 50.5557L127.154 40.7548H128.43L120.405 50.5557H119.129ZM120.563 44.7804C120.87 44.7804 121.137 44.7058 121.365 44.5567C121.602 44.3989 121.786 44.1971 121.918 43.9516C122.058 43.6972 122.128 43.4341 122.128 43.1622C122.128 42.8816 122.058 42.6185 121.918 42.3729C121.786 42.1273 121.602 41.93 121.365 41.7809C121.137 41.623 120.87 41.5441 120.563 41.5441C120.264 41.5441 119.993 41.623 119.747 41.7809C119.51 41.93 119.322 42.1273 119.181 42.3729C119.05 42.6185 118.984 42.8816 118.984 43.1622C118.984 43.4341 119.05 43.6972 119.181 43.9516C119.322 44.1971 119.51 44.3989 119.747 44.5567C119.993 44.7058 120.264 44.7804 120.563 44.7804ZM126.877 50.7135C126.404 50.7135 125.974 50.5995 125.588 50.3715C125.202 50.1347 124.891 49.8233 124.654 49.4374C124.426 49.0515 124.312 48.6218 124.312 48.1482C124.312 47.6746 124.426 47.2448 124.654 46.859C124.891 46.4643 125.202 46.1529 125.588 45.9249C125.974 45.6969 126.404 45.5829 126.877 45.5829C127.351 45.5829 127.781 45.6969 128.167 45.9249C128.552 46.1529 128.859 46.4643 129.087 46.859C129.315 47.2448 129.429 47.6746 129.429 48.1482C129.429 48.6218 129.315 49.0515 129.087 49.4374C128.859 49.8233 128.552 50.1347 128.167 50.3715C127.781 50.5995 127.351 50.7135 126.877 50.7135ZM126.877 49.7663C127.184 49.7663 127.452 49.6918 127.68 49.5427C127.917 49.3848 128.101 49.1831 128.232 48.9375C128.373 48.6832 128.443 48.4201 128.443 48.1482C128.443 47.8675 128.373 47.6044 128.232 47.3589C128.101 47.1133 127.917 46.916 127.68 46.7669C127.452 46.609 127.184 46.5301 126.877 46.5301C126.579 46.5301 126.307 46.609 126.062 46.7669C125.825 46.916 125.636 47.1133 125.496 47.3589C125.364 47.6044 125.299 47.8675 125.299 48.1482C125.299 48.4201 125.364 48.6832 125.496 48.9375C125.636 49.1831 125.825 49.3848 126.062 49.5427C126.307 49.6918 126.579 49.7663 126.877 49.7663ZM130.385 52.3974C131.016 51.5116 131.494 50.5732 131.819 49.5822C132.152 48.5911 132.319 47.5869 132.319 46.5695C132.319 45.5522 132.152 44.548 131.819 43.5569C131.494 42.5659 131.016 41.6318 130.385 40.7548H131.24C131.942 41.5353 132.472 42.4211 132.832 43.4122C133.192 44.3945 133.371 45.4469 133.371 46.5695C133.371 47.6834 133.192 48.7358 132.832 49.7269C132.472 50.7179 131.942 51.6081 131.24 52.3974H130.385Z" fill="#099268"/>
<g filter="url(#filter0_d_721_14865)">
<path d="M16 118.028L20.7658 122.514L28.391 120.503L36.0162 142.934L43.6414 135.199L50.79 132.106L58.8918 122.514L66.0404 99.7741L73.6656 99.1553L82.2439 100.702L89.3926 102.713L97.0178 127.31L104.643 125.144L112.268 140.769L119.893 134.271L127.519 139.686L142.769 133.188L150.394 118.028L158.019 111.376L173.746 147.111L180.895 112.15L188.997 98.6912L196.145 112.15L204.247 108.282L211.396 102.713L219.021 87.2437L227.574 69.0004L235.225 74.2492L242.373 88.3266L249.522 90.4923L257.624 89.8735L265.249 79.973L272.397 83.2216L280.499 63.1111L288.601 65.2768L311 81.6746" stroke="#E6E5EA" stroke-width="1.41641"/>
</g>
<line x1="16" y1="157.695" x2="312" y2="157.695" stroke="#3C53F4" stroke-width="0.708207"/>
<line x1="53.1937" y1="157.111" x2="53.1937" y2="162.777" stroke="#3C53F4" stroke-width="0.708207"/>
<line x1="161.975" y1="157.111" x2="161.975" y2="162.777" stroke="#3C53F4" stroke-width="0.708207"/>
<line x1="107.584" y1="157.111" x2="107.584" y2="162.777" stroke="#3C53F4" stroke-width="0.708207"/>
<line x1="216.365" y1="157.111" x2="216.365" y2="162.777" stroke="#3C53F4" stroke-width="0.708207"/>
<line x1="270.755" y1="157.111" x2="270.755" y2="162.777" stroke="#3C53F4" stroke-width="0.708207"/>
<path d="M45.855 171.081C45.3726 171.081 44.9478 170.95 44.5805 170.687C44.2187 170.418 43.9364 170.048 43.7336 169.577C43.5308 169.1 43.4294 168.546 43.4294 167.916C43.4294 167.285 43.5308 166.735 43.7336 166.263C43.9364 165.786 44.2187 165.416 44.5805 165.153C44.9423 164.89 45.3644 164.758 45.8467 164.758C46.3291 164.758 46.7512 164.89 47.113 165.153C47.4747 165.416 47.757 165.786 47.9598 166.263C48.1627 166.735 48.2641 167.285 48.2641 167.916C48.2641 168.546 48.1627 169.1 47.9598 169.577C47.7625 170.054 47.483 170.424 47.1212 170.687C46.7594 170.95 46.3373 171.081 45.855 171.081ZM45.855 170.465C46.2058 170.465 46.5127 170.358 46.7758 170.144C47.039 169.93 47.2445 169.634 47.3925 169.256C47.5405 168.872 47.6145 168.426 47.6145 167.916C47.6145 167.406 47.5405 166.962 47.3925 166.584C47.2445 166.2 47.039 165.904 46.7758 165.696C46.5127 165.482 46.203 165.375 45.8467 165.375C45.4959 165.375 45.189 165.482 44.9258 165.696C44.6627 165.904 44.4572 166.2 44.3092 166.584C44.1612 166.962 44.0872 167.406 44.0872 167.916C44.0872 168.42 44.1612 168.864 44.3092 169.248C44.4572 169.631 44.6627 169.93 44.9258 170.144C45.1944 170.358 45.5041 170.465 45.855 170.465ZM52.354 170.983V169.536H49.2378V169.001L52.354 164.857H52.9295V169.001H53.6778V169.536H52.9295V170.983H52.354ZM52.354 169.001V165.753L49.9202 169.001H52.354ZM54.8855 167.48V166.576H55.5432V167.48H54.8855ZM54.8855 170.983V170.078H55.5432V170.983H54.8855ZM57.8794 170.983V165.433H56.7283V164.857H58.5372V170.983H57.8794ZM61.8288 171.081C61.4451 171.081 61.1053 170.996 60.8093 170.826C60.5133 170.651 60.2803 170.413 60.1104 170.111C59.9404 169.804 59.8555 169.453 59.8555 169.059C59.8555 168.417 60.0912 167.781 60.5626 167.151L62.2893 164.857H63.0786L61.1546 167.373C61.2587 167.307 61.3738 167.261 61.4999 167.233C61.626 167.206 61.763 167.192 61.911 167.192C62.2673 167.192 62.588 167.277 62.873 167.447C63.1581 167.612 63.3828 167.839 63.5473 168.13C63.7172 168.42 63.8021 168.757 63.8021 169.141C63.8021 169.508 63.7144 169.84 63.539 170.136C63.3691 170.426 63.1361 170.657 62.8401 170.826C62.5441 170.996 62.207 171.081 61.8288 171.081ZM61.8288 170.506C62.081 170.506 62.3057 170.448 62.503 170.333C62.7004 170.213 62.8566 170.048 62.9717 169.84C63.0868 169.631 63.1444 169.399 63.1444 169.141C63.1444 168.878 63.0868 168.645 62.9717 168.442C62.8621 168.239 62.7086 168.08 62.5113 167.965C62.3139 167.845 62.0864 167.784 61.8288 167.784C61.5767 167.784 61.3492 167.845 61.1464 167.965C60.949 168.08 60.7928 168.239 60.6777 168.442C60.5681 168.645 60.5133 168.878 60.5133 169.141C60.5133 169.399 60.5708 169.631 60.6859 169.84C60.801 170.048 60.9573 170.213 61.1546 170.333C61.3519 170.448 61.5767 170.506 61.8288 170.506Z" fill="#6C757D"/>
<path d="M98.7073 171.081C98.2249 171.081 97.8001 170.95 97.4328 170.687C97.071 170.418 96.7887 170.048 96.5859 169.577C96.3831 169.1 96.2817 168.546 96.2817 167.916C96.2817 167.285 96.3831 166.735 96.5859 166.263C96.7887 165.786 97.071 165.416 97.4328 165.153C97.7946 164.89 98.2167 164.758 98.699 164.758C99.1814 164.758 99.6035 164.89 99.9653 165.153C100.327 165.416 100.609 165.786 100.812 166.263C101.015 166.735 101.116 167.285 101.116 167.916C101.116 168.546 101.015 169.1 100.812 169.577C100.615 170.054 100.335 170.424 99.9735 170.687C99.6117 170.95 99.1896 171.081 98.7073 171.081ZM98.7073 170.465C99.0581 170.465 99.365 170.358 99.6281 170.144C99.8913 169.93 100.097 169.634 100.245 169.256C100.393 168.872 100.467 168.426 100.467 167.916C100.467 167.406 100.393 166.962 100.245 166.584C100.097 166.2 99.8913 165.904 99.6281 165.696C99.365 165.482 99.0553 165.375 98.699 165.375C98.3482 165.375 98.0413 165.482 97.7781 165.696C97.515 165.904 97.3095 166.2 97.1615 166.584C97.0135 166.962 96.9395 167.406 96.9395 167.916C96.9395 168.42 97.0135 168.864 97.1615 169.248C97.3095 169.631 97.515 169.93 97.7781 170.144C98.0467 170.358 98.3564 170.465 98.7073 170.465ZM104.178 171.081C103.795 171.081 103.455 170.996 103.159 170.826C102.863 170.651 102.63 170.413 102.46 170.111C102.29 169.804 102.205 169.453 102.205 169.059C102.205 168.417 102.441 167.781 102.912 167.151L104.639 164.857H105.428L103.504 167.373C103.608 167.307 103.724 167.261 103.85 167.233C103.976 167.206 104.113 167.192 104.261 167.192C104.617 167.192 104.938 167.277 105.223 167.447C105.508 167.612 105.732 167.839 105.897 168.13C106.067 168.42 106.152 168.757 106.152 169.141C106.152 169.508 106.064 169.84 105.889 170.136C105.719 170.426 105.486 170.657 105.19 170.826C104.894 170.996 104.557 171.081 104.178 171.081ZM104.178 170.506C104.431 170.506 104.655 170.448 104.853 170.333C105.05 170.213 105.206 170.048 105.321 169.84C105.436 169.631 105.494 169.399 105.494 169.141C105.494 168.878 105.436 168.645 105.321 168.442C105.212 168.239 105.058 168.08 104.861 167.965C104.664 167.845 104.436 167.784 104.178 167.784C103.926 167.784 103.699 167.845 103.496 167.965C103.299 168.08 103.142 168.239 103.027 168.442C102.918 168.645 102.863 168.878 102.863 169.141C102.863 169.399 102.92 169.631 103.036 169.84C103.151 170.048 103.307 170.213 103.504 170.333C103.702 170.448 103.926 170.506 104.178 170.506ZM107.465 167.48V166.576H108.123V167.48H107.465ZM107.465 170.983V170.078H108.123V170.983H107.465ZM111.454 171.081C110.977 171.081 110.555 170.961 110.187 170.72C109.82 170.473 109.557 170.141 109.398 169.725L109.9 169.478C110.026 169.796 110.231 170.048 110.516 170.234C110.807 170.415 111.119 170.506 111.454 170.506C111.722 170.506 111.961 170.443 112.169 170.317C112.383 170.191 112.55 170.021 112.671 169.807C112.791 169.588 112.851 169.344 112.851 169.075C112.851 168.796 112.788 168.549 112.662 168.335C112.542 168.121 112.377 167.954 112.169 167.834C111.961 167.707 111.725 167.644 111.462 167.644C111.193 167.644 110.944 167.707 110.714 167.834C110.489 167.954 110.324 168.102 110.22 168.278L109.702 168.179L110.163 164.857H113.263V165.433H110.623L110.344 167.406C110.514 167.285 110.697 167.198 110.895 167.143C111.092 167.083 111.292 167.052 111.495 167.052C111.889 167.052 112.237 167.146 112.539 167.332C112.84 167.513 113.076 167.757 113.246 168.064C113.421 168.365 113.509 168.702 113.509 169.075C113.509 169.453 113.419 169.796 113.238 170.103C113.062 170.404 112.819 170.643 112.506 170.818C112.199 170.994 111.848 171.081 111.454 171.081ZM117.532 170.983V169.536H114.415V169.001L117.532 164.857H118.107V169.001H118.855V169.536H118.107V170.983H117.532ZM117.532 169.001V165.753L115.098 169.001H117.532Z" fill="#6C757D"/>
<path d="M153.961 171.081C153.478 171.081 153.054 170.95 152.686 170.687C152.325 170.418 152.042 170.048 151.839 169.577C151.637 169.1 151.535 168.546 151.535 167.916C151.535 167.285 151.637 166.735 151.839 166.263C152.042 165.786 152.325 165.416 152.686 165.153C153.048 164.89 153.47 164.758 153.953 164.758C154.435 164.758 154.857 164.89 155.219 165.153C155.581 165.416 155.863 165.786 156.066 166.263C156.268 166.735 156.37 167.285 156.37 167.916C156.37 168.546 156.268 169.1 156.066 169.577C155.868 170.054 155.589 170.424 155.227 170.687C154.865 170.95 154.443 171.081 153.961 171.081ZM153.961 170.465C154.312 170.465 154.619 170.358 154.882 170.144C155.145 169.93 155.35 169.634 155.498 169.256C155.646 168.872 155.72 168.426 155.72 167.916C155.72 167.406 155.646 166.962 155.498 166.584C155.35 166.2 155.145 165.904 154.882 165.696C154.619 165.482 154.309 165.375 153.953 165.375C153.602 165.375 153.295 165.482 153.032 165.696C152.769 165.904 152.563 166.2 152.415 166.584C152.267 166.962 152.193 167.406 152.193 167.916C152.193 168.42 152.267 168.864 152.415 169.248C152.563 169.631 152.769 169.93 153.032 170.144C153.3 170.358 153.61 170.465 153.961 170.465ZM158.158 170.983L160.082 168.467C159.977 168.532 159.862 168.579 159.736 168.606C159.61 168.634 159.473 168.648 159.325 168.648C158.969 168.648 158.648 168.565 158.363 168.401C158.078 168.231 157.851 168.001 157.681 167.71C157.516 167.414 157.434 167.077 157.434 166.699C157.434 166.326 157.519 165.995 157.689 165.704C157.864 165.413 158.1 165.183 158.396 165.013C158.698 164.843 159.035 164.758 159.407 164.758C159.791 164.758 160.131 164.846 160.427 165.022C160.723 165.191 160.956 165.43 161.126 165.737C161.296 166.038 161.381 166.386 161.381 166.781C161.381 167.422 161.145 168.058 160.674 168.689L158.947 170.983H158.158ZM159.407 168.056C159.665 168.056 159.892 167.998 160.09 167.883C160.287 167.762 160.441 167.601 160.55 167.398C160.665 167.189 160.723 166.957 160.723 166.699C160.723 166.436 160.665 166.203 160.55 166C160.435 165.792 160.279 165.63 160.082 165.515C159.884 165.394 159.66 165.334 159.407 165.334C159.155 165.334 158.93 165.394 158.733 165.515C158.536 165.63 158.38 165.792 158.264 166C158.149 166.203 158.092 166.436 158.092 166.699C158.092 166.957 158.147 167.189 158.256 167.398C158.371 167.601 158.528 167.762 158.725 167.883C158.928 167.998 159.155 168.056 159.407 168.056ZM162.718 167.48V166.576H163.376V167.48H162.718ZM162.718 170.983V170.078H163.376V170.983H162.718ZM165.712 170.983V165.433H164.561V164.857H166.37V170.983H165.712ZM169.857 171.081C169.462 171.081 169.109 171.002 168.796 170.843C168.489 170.678 168.245 170.456 168.065 170.177C167.889 169.892 167.801 169.571 167.801 169.215C167.801 168.864 167.895 168.543 168.081 168.253C168.267 167.962 168.522 167.746 168.846 167.603C168.61 167.461 168.429 167.277 168.303 167.052C168.182 166.828 168.122 166.589 168.122 166.337C168.122 166.036 168.199 165.767 168.352 165.531C168.506 165.296 168.711 165.109 168.969 164.972C169.232 164.83 169.528 164.758 169.857 164.758C170.191 164.758 170.487 164.827 170.745 164.964C171.003 165.096 171.205 165.282 171.353 165.523C171.507 165.759 171.584 166.03 171.584 166.337C171.584 166.611 171.518 166.858 171.386 167.077C171.26 167.291 171.088 167.466 170.868 167.603C171.192 167.746 171.447 167.962 171.633 168.253C171.819 168.543 171.913 168.864 171.913 169.215C171.913 169.571 171.822 169.892 171.641 170.177C171.466 170.456 171.222 170.678 170.909 170.843C170.603 171.002 170.252 171.081 169.857 171.081ZM169.857 167.348C170.159 167.348 170.411 167.255 170.613 167.069C170.822 166.883 170.926 166.639 170.926 166.337C170.926 166.036 170.822 165.794 170.613 165.614C170.411 165.427 170.159 165.334 169.857 165.334C169.556 165.334 169.301 165.427 169.092 165.614C168.884 165.794 168.78 166.036 168.78 166.337C168.78 166.639 168.884 166.883 169.092 167.069C169.301 167.255 169.556 167.348 169.857 167.348ZM169.857 170.506C170.279 170.506 170.616 170.388 170.868 170.152C171.126 169.911 171.255 169.599 171.255 169.215C171.255 168.826 171.126 168.513 170.868 168.278C170.616 168.042 170.279 167.924 169.857 167.924C169.44 167.924 169.103 168.042 168.846 168.278C168.588 168.513 168.459 168.826 168.459 169.215C168.459 169.599 168.588 169.911 168.846 170.152C169.103 170.388 169.44 170.506 169.857 170.506Z" fill="#6C757D"/>
<path d="M206.895 170.983V165.433H205.744V164.857H207.553V170.983H206.895ZM211.953 170.983V169.536H208.836V169.001L211.953 164.857H212.528V169.001H213.276V169.536H212.528V170.983H211.953ZM211.953 169.001V165.753L209.519 169.001H211.953ZM214.484 167.48V166.576H215.142V167.48H214.484ZM214.484 170.983V170.078H215.142V170.983H214.484ZM218.473 171.081C217.996 171.081 217.574 170.961 217.207 170.72C216.84 170.473 216.576 170.141 216.417 169.725L216.919 169.478C217.045 169.796 217.251 170.048 217.536 170.234C217.826 170.415 218.139 170.506 218.473 170.506C218.742 170.506 218.98 170.443 219.188 170.317C219.402 170.191 219.569 170.021 219.69 169.807C219.81 169.588 219.871 169.344 219.871 169.075C219.871 168.796 219.808 168.549 219.682 168.335C219.561 168.121 219.397 167.954 219.188 167.834C218.98 167.707 218.744 167.644 218.481 167.644C218.213 167.644 217.963 167.707 217.733 167.834C217.508 167.954 217.344 168.102 217.24 168.278L216.722 168.179L217.182 164.857H220.282V165.433H217.643L217.363 167.406C217.533 167.285 217.717 167.198 217.914 167.143C218.111 167.083 218.311 167.052 218.514 167.052C218.909 167.052 219.257 167.146 219.558 167.332C219.86 167.513 220.096 167.757 220.265 168.064C220.441 168.365 220.529 168.702 220.529 169.075C220.529 169.453 220.438 169.796 220.257 170.103C220.082 170.404 219.838 170.643 219.525 170.818C219.218 170.994 218.868 171.081 218.473 171.081ZM221.706 170.983L224.469 165.433H221.41V164.857H225.151V165.433L222.397 170.983H221.706Z" fill="#6C757D"/>
<path d="M261.802 170.983V165.433H260.651V164.857H262.459V170.983H261.802ZM265.751 171.081C265.367 171.081 265.028 170.996 264.732 170.826C264.436 170.651 264.203 170.413 264.033 170.111C263.863 169.804 263.778 169.453 263.778 169.059C263.778 168.417 264.013 167.781 264.485 167.151L266.212 164.857H267.001L265.077 167.373C265.181 167.307 265.296 167.261 265.422 167.233C265.548 167.206 265.685 167.192 265.833 167.192C266.19 167.192 266.51 167.277 266.795 167.447C267.08 167.612 267.305 167.839 267.47 168.13C267.639 168.42 267.724 168.757 267.724 169.141C267.724 169.508 267.637 169.84 267.461 170.136C267.291 170.426 267.058 170.657 266.762 170.826C266.466 170.996 266.129 171.081 265.751 171.081ZM265.751 170.506C266.003 170.506 266.228 170.448 266.425 170.333C266.623 170.213 266.779 170.048 266.894 169.84C267.009 169.631 267.067 169.399 267.067 169.141C267.067 168.878 267.009 168.645 266.894 168.442C266.784 168.239 266.631 168.08 266.434 167.965C266.236 167.845 266.009 167.784 265.751 167.784C265.499 167.784 265.271 167.845 265.069 167.965C264.871 168.08 264.715 168.239 264.6 168.442C264.49 168.645 264.436 168.878 264.436 169.141C264.436 169.399 264.493 169.631 264.608 169.84C264.723 170.048 264.88 170.213 265.077 170.333C265.274 170.448 265.499 170.506 265.751 170.506ZM269.037 167.48V166.576H269.695V167.48H269.037ZM269.037 170.983V170.078H269.695V170.983H269.037ZM271.02 170.983V170.572L272.73 168.689C273.065 168.321 273.336 168.017 273.544 167.776C273.758 167.535 273.917 167.316 274.021 167.118C274.125 166.921 274.177 166.707 274.177 166.477C274.177 166.11 274.07 165.827 273.857 165.63C273.643 165.433 273.358 165.334 273.002 165.334C272.634 165.334 272.325 165.438 272.072 165.646C271.826 165.855 271.659 166.145 271.571 166.518L270.971 166.386C271.08 165.888 271.316 165.493 271.678 165.202C272.04 164.906 272.478 164.758 272.993 164.758C273.361 164.758 273.681 164.832 273.955 164.98C274.229 165.128 274.443 165.331 274.597 165.589C274.756 165.847 274.835 166.143 274.835 166.477C274.835 166.707 274.786 166.929 274.687 167.143C274.594 167.357 274.451 167.587 274.26 167.834C274.068 168.08 273.821 168.368 273.52 168.697L271.966 170.407H275V170.983H271.02ZM276.665 170.983L278.589 168.467C278.485 168.532 278.37 168.579 278.244 168.606C278.118 168.634 277.981 168.648 277.833 168.648C277.477 168.648 277.156 168.565 276.871 168.401C276.586 168.231 276.358 168.001 276.189 167.71C276.024 167.414 275.942 167.077 275.942 166.699C275.942 166.326 276.027 165.995 276.197 165.704C276.372 165.413 276.608 165.183 276.904 165.013C277.205 164.843 277.542 164.758 277.915 164.758C278.299 164.758 278.639 164.846 278.935 165.022C279.231 165.191 279.464 165.43 279.634 165.737C279.804 166.038 279.889 166.386 279.889 166.781C279.889 167.422 279.653 168.058 279.181 168.689L277.455 170.983H276.665ZM277.915 168.056C278.173 168.056 278.4 167.998 278.598 167.883C278.795 167.762 278.948 167.601 279.058 167.398C279.173 167.189 279.231 166.957 279.231 166.699C279.231 166.436 279.173 166.203 279.058 166C278.943 165.792 278.787 165.63 278.589 165.515C278.392 165.394 278.167 165.334 277.915 165.334C277.663 165.334 277.438 165.394 277.241 165.515C277.044 165.63 276.887 165.792 276.772 166C276.657 166.203 276.6 166.436 276.6 166.699C276.6 166.957 276.654 167.189 276.764 167.398C276.879 167.601 277.035 167.762 277.233 167.883C277.436 167.998 277.663 168.056 277.915 168.056Z" fill="#6C757D"/>
<path d="M18.8976 194.691H20.8856C22.0756 194.691 22.8036 194.033 22.8036 193.011C22.8036 191.961 22.0756 191.289 20.8856 191.289H18.8976V194.691ZM21.1376 195.923H18.8976V199.983H17.5256V190.057H21.1376C22.9716 190.057 24.2036 191.331 24.2036 192.997C24.2036 194.677 22.9716 195.923 21.1376 195.923ZM29.2721 193.179V194.579C29.0761 194.551 28.8801 194.537 28.6981 194.537C27.5921 194.537 26.8501 195.125 26.8501 196.609V199.983H25.5341V193.249H26.8221V194.425C27.3121 193.389 28.1521 193.137 28.8381 193.137C29.0201 193.137 29.2021 193.165 29.2721 193.179ZM33.4903 199.017C34.6103 199.017 35.5903 198.177 35.5903 196.609C35.5903 195.055 34.6103 194.215 33.4903 194.215C32.3703 194.215 31.3903 195.055 31.3903 196.609C31.3903 198.177 32.3703 199.017 33.4903 199.017ZM33.4903 193.039C35.5063 193.039 36.9343 194.565 36.9343 196.609C36.9343 198.667 35.5063 200.193 33.4903 200.193C31.4743 200.193 30.0463 198.667 30.0463 196.609C30.0463 194.565 31.4743 193.039 33.4903 193.039ZM41.236 189.805C41.684 189.805 41.964 189.903 42.02 189.945V191.121C41.95 191.093 41.782 191.037 41.446 191.037C40.984 191.037 40.382 191.247 40.382 192.171V193.249H44.834V199.983H43.532V194.439H40.382V199.983H39.024V194.439H37.778V193.249H39.024V192.115C39.024 190.617 40.018 189.805 41.236 189.805ZM43.238 190.673C43.238 190.141 43.658 189.721 44.176 189.721C44.708 189.721 45.128 190.141 45.128 190.673C45.128 191.191 44.708 191.611 44.176 191.611C43.658 191.611 43.238 191.191 43.238 190.673ZM48.8313 191.121V193.249H50.2873V194.439H48.8313V197.939C48.8313 198.555 49.0833 198.863 49.7693 198.863C49.9373 198.863 50.1753 198.835 50.2873 198.807V199.927C50.1753 199.969 49.8393 200.053 49.3913 200.053C48.2433 200.053 47.5153 199.353 47.5153 198.135V194.439H46.2273V193.249H46.5913C47.3193 193.249 47.6273 192.801 47.6273 192.213V191.121H48.8313ZM61.7593 199.983L60.4993 198.667C59.6873 199.577 58.8193 200.151 57.7133 200.151C55.8373 200.151 54.8433 198.891 54.8433 197.617C54.8433 196.329 55.5433 195.629 56.5933 194.845L56.7333 194.733L56.5513 194.537C56.0893 194.047 55.3613 193.291 55.3613 192.325C55.3613 190.715 56.6913 189.847 57.9233 189.847C59.4213 189.847 60.5553 190.785 60.5553 192.269C60.5553 193.249 59.8553 193.949 59.1553 194.467L58.6513 194.845L60.4993 196.763L62.7113 194.299V196.105L61.3673 197.659L63.6213 199.983H61.7593ZM57.7273 198.891C58.4833 198.891 59.0293 198.401 59.5753 197.799L59.6173 197.743L57.6013 195.629L57.0973 196.007C56.6213 196.371 56.2573 196.819 56.2573 197.505C56.2573 198.177 56.8173 198.891 57.7273 198.891ZM56.7193 192.241C56.7193 192.801 57.1533 193.291 57.4753 193.627L57.7833 193.963L58.4553 193.459C59.0433 193.025 59.1973 192.647 59.1973 192.227C59.1973 191.569 58.6653 191.023 57.9373 191.023C57.3633 191.023 56.7193 191.457 56.7193 192.241ZM69.0005 199.983H67.6845V189.847H69.0005V199.983ZM74.1231 199.017C75.2431 199.017 76.2231 198.177 76.2231 196.609C76.2231 195.055 75.2431 194.215 74.1231 194.215C73.0031 194.215 72.0231 195.055 72.0231 196.609C72.0231 198.177 73.0031 199.017 74.1231 199.017ZM74.1231 193.039C76.1391 193.039 77.5671 194.565 77.5671 196.609C77.5671 198.667 76.1391 200.193 74.1231 200.193C72.1071 200.193 70.6791 198.667 70.6791 196.609C70.6791 194.565 72.1071 193.039 74.1231 193.039ZM78.6209 198.233L79.8109 197.813C79.8949 198.513 80.4269 199.073 81.3789 199.073C82.1209 199.073 82.5269 198.653 82.5269 198.177C82.5269 197.757 82.2189 197.435 81.6589 197.309L80.5109 197.057C79.4609 196.833 78.8309 196.119 78.8309 195.167C78.8309 194.019 79.9089 193.039 81.2249 193.039C83.0729 193.039 83.6469 194.243 83.7869 194.845L82.6249 195.279C82.5689 194.929 82.2889 194.159 81.2249 194.159C80.5529 194.159 80.1049 194.593 80.1049 195.055C80.1049 195.461 80.3569 195.755 80.8749 195.867L81.9669 196.105C83.1849 196.371 83.8289 197.113 83.8289 198.107C83.8289 199.059 83.0309 200.193 81.3649 200.193C79.5169 200.193 78.7329 199.003 78.6209 198.233ZM84.9509 198.233L86.1409 197.813C86.2249 198.513 86.7569 199.073 87.7089 199.073C88.4509 199.073 88.8569 198.653 88.8569 198.177C88.8569 197.757 88.5489 197.435 87.9889 197.309L86.8409 197.057C85.7909 196.833 85.1609 196.119 85.1609 195.167C85.1609 194.019 86.2389 193.039 87.5549 193.039C89.4029 193.039 89.9769 194.243 90.1169 194.845L88.9549 195.279C88.8989 194.929 88.6189 194.159 87.5549 194.159C86.8829 194.159 86.4349 194.593 86.4349 195.055C86.4349 195.461 86.6869 195.755 87.2049 195.867L88.2969 196.105C89.5149 196.371 90.1589 197.113 90.1589 198.107C90.1589 199.059 89.3609 200.193 87.6949 200.193C85.8469 200.193 85.0629 199.003 84.9509 198.233ZM99.149 193.179V194.579C98.953 194.551 98.757 194.537 98.575 194.537C97.469 194.537 96.727 195.125 96.727 196.609V199.983H95.411V193.249H96.699V194.425C97.189 193.389 98.029 193.137 98.715 193.137C98.897 193.137 99.079 193.165 99.149 193.179ZM101.337 195.923H105.019C104.991 194.957 104.361 194.201 103.171 194.201C102.065 194.201 101.393 195.055 101.337 195.923ZM105.215 197.673L106.349 198.065C105.971 199.255 104.893 200.193 103.325 200.193C101.519 200.193 99.9373 198.877 99.9373 196.595C99.9373 194.481 101.463 193.039 103.157 193.039C105.229 193.039 106.391 194.467 106.391 196.567C106.391 196.735 106.377 196.903 106.363 196.987H101.295C101.323 198.191 102.191 199.031 103.325 199.031C104.417 199.031 104.963 198.429 105.215 197.673ZM109.373 202.643H108.071V193.249H109.345V194.299C109.709 193.627 110.507 193.095 111.599 193.095C113.615 193.095 114.693 194.649 114.693 196.609C114.693 198.611 113.531 200.165 111.557 200.165C110.521 200.165 109.737 199.675 109.373 199.073V202.643ZM113.349 196.609C113.349 195.265 112.593 194.257 111.361 194.257C110.157 194.257 109.359 195.265 109.359 196.609C109.359 197.995 110.157 198.989 111.361 198.989C112.579 198.989 113.349 197.995 113.349 196.609ZM119.254 199.017C120.374 199.017 121.354 198.177 121.354 196.609C121.354 195.055 120.374 194.215 119.254 194.215C118.134 194.215 117.154 195.055 117.154 196.609C117.154 198.177 118.134 199.017 119.254 199.017ZM119.254 193.039C121.27 193.039 122.698 194.565 122.698 196.609C122.698 198.667 121.27 200.193 119.254 200.193C117.238 200.193 115.81 198.667 115.81 196.609C115.81 194.565 117.238 193.039 119.254 193.039ZM128.12 193.179V194.579C127.924 194.551 127.728 194.537 127.546 194.537C126.44 194.537 125.698 195.125 125.698 196.609V199.983H124.382V193.249H125.67V194.425C126.16 193.389 127 193.137 127.686 193.137C127.868 193.137 128.05 193.165 128.12 193.179ZM131.642 191.121V193.249H133.098V194.439H131.642V197.939C131.642 198.555 131.894 198.863 132.58 198.863C132.748 198.863 132.986 198.835 133.098 198.807V199.927C132.986 199.969 132.65 200.053 132.202 200.053C131.054 200.053 130.326 199.353 130.326 198.135V194.439H129.038V193.249H129.402C130.13 193.249 130.438 192.801 130.438 192.213V191.121H131.642Z" fill="#E6E5EA"/>
<path d="M301.5 187.483L300.443 188.54L306.128 194.233L291 194.233L291 195.733L306.128 195.733L300.443 201.425L301.5 202.483L309 194.983L301.5 187.483Z" fill="#E6E5EA"/>
<rect x="1" y="1" width="326" height="215" rx="11" stroke="url(#paint0_angular_721_14865)" stroke-width="2"/>
</g>
<defs>
<filter id="filter0_d_721_14865" x="9.84887" y="56.5995" width="307.235" height="98.499" filterUnits="userSpaceOnUse" color-interpolation-filters="sRGB">
<feFlood flood-opacity="0" result="BackgroundImageFix"/>
<feColorMatrix in="SourceAlpha" type="matrix" values="0 0 0 0 0 0 0 0 0 0 0 0 0 0 0 0 0 0 127 0" result="hardAlpha"/>
<feOffset/>
<feGaussianBlur stdDeviation="2.83283"/>
<feColorMatrix type="matrix" values="0 0 0 0 0 0 0 0 0 0.388235 0 0 0 0 0.960784 0 0 0 0.24 0"/>
<feBlend mode="normal" in2="BackgroundImageFix" result="effect1_dropShadow_721_14865"/>
<feBlend mode="normal" in="SourceGraphic" in2="effect1_dropShadow_721_14865" result="shape"/>
</filter>
<radialGradient id="paint0_angular_721_14865" cx="0" cy="0" r="1" gradientUnits="userSpaceOnUse" gradientTransform="translate(147.6 108.5) rotate(142.105) scale(229.643 262.905)">
<stop offset="0.262384" stop-color="#E94560"/>
<stop offset="0.316101" stop-color="#E94560"/>
<stop offset="0.847059" stop-color="#7758ED"/>
<stop offset="0.980162" stop-color="#6443EB"/>
</radialGradient>
</defs>
</svg>
