<svg width="381" height="278" viewBox="0 0 381 278" fill="none" xmlns="http://www.w3.org/2000/svg">
<path fill-rule="evenodd" clip-rule="evenodd" d="M232 197C232 188.599 232 184.399 230.365 181.19C228.927 178.368 226.632 176.073 223.81 174.635C220.601 173 216.401 173 208 173H29C20.5992 173 16.3988 173 13.1901 174.635C10.3677 176.073 8.073 178.368 6.6349 181.19C5 184.399 5 188.599 5 197V244C5 252.401 5 256.601 6.6349 259.81C8.073 262.632 10.3677 264.927 13.1901 266.365C16.3988 268 20.5992 268 29 268H208C216.401 268 220.601 268 223.81 266.365C226.632 264.927 228.927 262.632 230.365 259.81C232 256.601 232 252.401 232 244V197Z" fill="#262629"/>
<path fill-rule="evenodd" clip-rule="evenodd" d="M0 267.672V268H6C13.732 268 20 261.732 20 254H5.00033C5.00033 256.738 5.00033 258.107 4.80939 259.252C4.24701 262.622 2.49706 265.575 0 267.672Z" fill="#262629"/>
<path fill-rule="evenodd" clip-rule="evenodd" d="M376 110C376 101.599 376 97.3988 374.365 94.1901C372.927 91.3677 370.632 89.073 367.81 87.6349C364.601 86 360.401 86 352 86H90C81.5992 86 77.3988 86 74.1902 87.6349C71.3677 89.073 69.073 91.3677 67.6349 94.1901C66 97.3988 66 101.599 66 110V121C66 129.401 66 133.601 67.6349 136.81C69.073 139.632 71.3677 141.927 74.1902 143.365C77.3988 145 81.5992 145 90 145H352C360.401 145 364.601 145 367.81 143.365C370.632 141.927 372.927 139.632 374.365 136.81C376 133.601 376 129.401 376 121V110Z" fill="url(#paint0_linear_793_1878)"/>
<path d="M84.0093 110L80.7471 98.022H82.3076L84.6899 107.759H84.7896L87.4707 98.022H88.9814L91.6626 107.759H91.7622L94.1445 98.022H95.7051L92.4429 110H91.0317L88.2759 100.545H88.1763L85.4204 110H84.0093ZM97.8799 110V97.499H99.3242V102.396H99.457C99.9053 101.45 100.744 100.894 102.063 100.894C104.072 100.894 105.193 102.081 105.193 104.206V110H103.749V104.555C103.749 102.944 103.084 102.172 101.657 102.172C100.229 102.172 99.3242 103.135 99.3242 104.704V110H97.8799ZM110.265 110.158C108.563 110.158 107.276 109.128 107.276 107.501V107.485C107.276 105.891 108.455 104.97 110.539 104.845L113.104 104.688V103.874C113.104 102.77 112.431 102.172 111.095 102.172C110.024 102.172 109.318 102.571 109.086 103.268L109.078 103.293H107.633L107.642 103.243C107.874 101.84 109.235 100.894 111.145 100.894C113.328 100.894 114.548 102.015 114.548 103.874V110H113.104V108.68H112.971C112.406 109.635 111.468 110.158 110.265 110.158ZM108.754 107.468C108.754 108.373 109.526 108.904 110.563 108.904C112.033 108.904 113.104 107.941 113.104 106.663V105.85L110.713 105.999C109.352 106.082 108.754 106.563 108.754 107.452V107.468ZM120.367 110.066C118.524 110.066 117.752 109.386 117.752 107.676V102.247H116.341V101.052H117.752V98.7358H119.246V101.052H121.205V102.247H119.246V107.311C119.246 108.365 119.611 108.788 120.541 108.788C120.798 108.788 120.939 108.78 121.205 108.755V109.983C120.923 110.033 120.649 110.066 120.367 110.066ZM128.908 99.3252C128.36 99.3252 127.912 98.877 127.912 98.3291C127.912 97.7812 128.36 97.333 128.908 97.333C129.456 97.333 129.904 97.7812 129.904 98.3291C129.904 98.877 129.456 99.3252 128.908 99.3252ZM128.178 110V101.052H129.622V110H128.178ZM135.416 110.158C133.424 110.158 132.054 109.195 131.888 107.717H133.366C133.606 108.464 134.32 108.954 135.466 108.954C136.669 108.954 137.524 108.381 137.524 107.568V107.551C137.524 106.945 137.068 106.522 135.964 106.256L134.578 105.924C132.901 105.526 132.146 104.795 132.146 103.509V103.5C132.146 102.015 133.573 100.894 135.474 100.894C137.35 100.894 138.653 101.832 138.853 103.293H137.433C137.242 102.587 136.545 102.098 135.466 102.098C134.403 102.098 133.623 102.646 133.623 103.434V103.451C133.623 104.057 134.071 104.438 135.125 104.696L136.503 105.028C138.188 105.435 139.002 106.165 139.002 107.443V107.46C139.002 109.054 137.45 110.158 135.416 110.158ZM149.204 110.066C147.361 110.066 146.589 109.386 146.589 107.676V102.247H145.178V101.052H146.589V98.7358H148.083V101.052H150.042V102.247H148.083V107.311C148.083 108.365 148.448 108.788 149.378 108.788C149.635 108.788 149.776 108.78 150.042 108.755V109.983C149.76 110.033 149.486 110.066 149.204 110.066ZM152.283 110V97.499H153.728V102.396H153.86C154.309 101.45 155.147 100.894 156.467 100.894C158.476 100.894 159.596 102.081 159.596 104.206V110H158.152V104.555C158.152 102.944 157.488 102.172 156.06 102.172C154.632 102.172 153.728 103.135 153.728 104.704V110H152.283ZM165.863 110.158C163.307 110.158 161.763 108.365 161.763 105.559V105.551C161.763 102.787 163.34 100.894 165.772 100.894C168.204 100.894 169.682 102.704 169.682 105.376V105.941H163.24C163.282 107.792 164.303 108.871 165.896 108.871C167.108 108.871 167.855 108.298 168.096 107.759L168.129 107.684H169.574L169.557 107.75C169.25 108.962 167.972 110.158 165.863 110.158ZM165.764 102.181C164.436 102.181 163.423 103.085 163.265 104.787H168.212C168.063 103.019 167.083 102.181 165.764 102.181ZM179.883 110.066C178.041 110.066 177.269 109.386 177.269 107.676V102.247H175.857V101.052H177.269V98.7358H178.763V101.052H180.722V102.247H178.763V107.311C178.763 108.365 179.128 108.788 180.058 108.788C180.315 108.788 180.456 108.78 180.722 108.755V109.983C180.439 110.033 180.166 110.066 179.883 110.066ZM186.424 110.158C183.876 110.158 182.299 108.398 182.299 105.534V105.518C182.299 102.646 183.876 100.894 186.424 100.894C188.973 100.894 190.55 102.646 190.55 105.518V105.534C190.55 108.398 188.973 110.158 186.424 110.158ZM186.424 108.879C188.118 108.879 189.072 107.643 189.072 105.534V105.518C189.072 103.401 188.118 102.172 186.424 102.172C184.731 102.172 183.776 103.401 183.776 105.518V105.534C183.776 107.643 184.731 108.879 186.424 108.879ZM195.97 110.066C194.127 110.066 193.355 109.386 193.355 107.676V102.247H191.944V101.052H193.355V98.7358H194.85V101.052H196.809V102.247H194.85V107.311C194.85 108.365 195.215 108.788 196.145 108.788C196.402 108.788 196.543 108.78 196.809 108.755V109.983C196.526 110.033 196.252 110.066 195.97 110.066ZM201.424 110.158C199.722 110.158 198.436 109.128 198.436 107.501V107.485C198.436 105.891 199.614 104.97 201.698 104.845L204.263 104.688V103.874C204.263 102.77 203.59 102.172 202.254 102.172C201.183 102.172 200.478 102.571 200.245 103.268L200.237 103.293H198.792L198.801 103.243C199.033 101.84 200.395 100.894 202.304 100.894C204.487 100.894 205.707 102.015 205.707 103.874V110H204.263V108.68H204.13C203.565 109.635 202.627 110.158 201.424 110.158ZM199.913 107.468C199.913 108.373 200.685 108.904 201.723 108.904C203.192 108.904 204.263 107.941 204.263 106.663V105.85L201.872 105.999C200.511 106.082 199.913 106.563 199.913 107.452V107.468ZM208.43 110V97.499H209.874V110H208.43ZM219.959 110L216.647 101.052H218.175L220.624 108.423H220.756L223.205 101.052H224.732L221.42 110H219.959ZM228.767 110.158C227.065 110.158 225.778 109.128 225.778 107.501V107.485C225.778 105.891 226.957 104.97 229.041 104.845L231.605 104.688V103.874C231.605 102.77 230.933 102.172 229.597 102.172C228.526 102.172 227.82 102.571 227.588 103.268L227.58 103.293H226.135L226.144 103.243C226.376 101.84 227.737 100.894 229.646 100.894C231.83 100.894 233.05 102.015 233.05 103.874V110H231.605V108.68H231.473C230.908 109.635 229.97 110.158 228.767 110.158ZM227.256 107.468C227.256 108.373 228.028 108.904 229.065 108.904C230.535 108.904 231.605 107.941 231.605 106.663V105.85L229.215 105.999C227.854 106.082 227.256 106.563 227.256 107.452V107.468ZM235.772 110V97.499H237.217V110H235.772ZM242.986 110.158C240.952 110.158 239.906 108.962 239.906 106.846V101.052H241.351V106.497C241.351 108.107 241.932 108.879 243.359 108.879C244.937 108.879 245.775 107.917 245.775 106.348V101.052H247.219V110H245.775V108.664H245.642C245.202 109.618 244.297 110.158 242.986 110.158ZM253.569 110.158C251.013 110.158 249.469 108.365 249.469 105.559V105.551C249.469 102.787 251.046 100.894 253.478 100.894C255.91 100.894 257.388 102.704 257.388 105.376V105.941H250.946C250.988 107.792 252.009 108.871 253.603 108.871C254.814 108.871 255.562 108.298 255.802 107.759L255.835 107.684H257.28L257.263 107.75C256.956 108.962 255.678 110.158 253.569 110.158ZM253.47 102.181C252.142 102.181 251.129 103.085 250.971 104.787H255.918C255.769 103.019 254.79 102.181 253.47 102.181ZM264.493 110V97.499H265.938V110H264.493ZM272.387 110.158C269.839 110.158 268.262 108.398 268.262 105.534V105.518C268.262 102.646 269.839 100.894 272.387 100.894C274.936 100.894 276.513 102.646 276.513 105.518V105.534C276.513 108.398 274.936 110.158 272.387 110.158ZM272.387 108.879C274.081 108.879 275.035 107.643 275.035 105.534V105.518C275.035 103.401 274.081 102.172 272.387 102.172C270.694 102.172 269.739 103.401 269.739 105.518V105.534C269.739 107.643 270.694 108.879 272.387 108.879ZM282.415 110.158C279.908 110.158 278.306 108.34 278.306 105.501V105.484C278.306 102.704 279.899 100.894 282.406 100.894C284.581 100.894 285.884 102.147 286.15 103.741L286.158 103.791H284.722L284.714 103.766C284.49 102.886 283.693 102.172 282.406 102.172C280.796 102.172 279.783 103.467 279.783 105.484V105.501C279.783 107.56 280.812 108.879 282.406 108.879C283.61 108.879 284.374 108.348 284.706 107.352L284.722 107.302L286.15 107.294L286.133 107.385C285.768 109.004 284.564 110.158 282.415 110.158ZM288.35 110V97.499H289.794V104.961H289.927L293.795 101.052H295.546L291.645 104.812L295.804 110H293.986L290.632 105.792L289.794 106.605V110H288.35ZM300.734 110.158C298.178 110.158 296.634 108.365 296.634 105.559V105.551C296.634 102.787 298.211 100.894 300.643 100.894C303.075 100.894 304.553 102.704 304.553 105.376V105.941H298.111C298.153 107.792 299.174 108.871 300.768 108.871C301.979 108.871 302.727 108.298 302.967 107.759L303 107.684H304.445L304.428 107.75C304.121 108.962 302.843 110.158 300.734 110.158ZM300.635 102.181C299.307 102.181 298.294 103.085 298.136 104.787H303.083C302.934 103.019 301.955 102.181 300.635 102.181ZM310.098 110.158C307.832 110.158 306.346 108.323 306.346 105.534V105.518C306.346 102.712 307.823 100.894 310.098 100.894C311.326 100.894 312.397 101.508 312.887 102.463H313.02V97.499H314.464V110H313.02V108.572H312.887C312.339 109.568 311.343 110.158 310.098 110.158ZM310.43 108.879C312.057 108.879 313.053 107.601 313.053 105.534V105.518C313.053 103.451 312.057 102.172 310.43 102.172C308.794 102.172 307.823 103.434 307.823 105.518V105.534C307.823 107.618 308.794 108.879 310.43 108.879ZM84.3662 134.988C82.7476 132.838 82.0088 130.332 82.0088 127.244C82.0088 124.164 82.7393 121.649 84.3662 119.499H85.5781C84.3745 121.035 83.478 124.363 83.478 127.244C83.478 130.149 84.3745 133.453 85.5781 134.988H84.3662ZM91.1313 132V121.367H87.2715V120.022H96.4854V121.367H92.6255V132H91.1313ZM102.254 132L97.8384 120.022H99.4072L102.927 130.066H103.06L106.579 120.022H108.148L103.732 132H102.254ZM110.248 132V120.022H111.742V130.655H117.52V132H110.248ZM120.508 134.988H119.296C120.5 133.453 121.396 130.149 121.396 127.244C121.396 124.363 120.5 121.035 119.296 119.499H120.508C122.135 121.649 122.865 124.164 122.865 127.244C122.865 130.332 122.126 132.838 120.508 134.988ZM131.764 121.325C131.216 121.325 130.768 120.877 130.768 120.329C130.768 119.781 131.216 119.333 131.764 119.333C132.312 119.333 132.76 119.781 132.76 120.329C132.76 120.877 132.312 121.325 131.764 121.325ZM131.033 132V123.052H132.478V132H131.033ZM135.2 132V123.052H136.645V124.396H136.777C137.226 123.45 138.064 122.894 139.384 122.894C141.393 122.894 142.513 124.081 142.513 126.206V132H141.069V126.555C141.069 124.944 140.405 124.172 138.977 124.172C137.549 124.172 136.645 125.135 136.645 126.704V132H135.2ZM153.088 132.066C151.246 132.066 150.474 131.386 150.474 129.676V124.247H149.062V123.052H150.474V120.736H151.968V123.052H153.927V124.247H151.968V129.311C151.968 130.365 152.333 130.788 153.263 130.788C153.52 130.788 153.661 130.78 153.927 130.755V131.983C153.645 132.033 153.371 132.066 153.088 132.066ZM156.168 132V119.499H157.612V124.396H157.745C158.193 123.45 159.032 122.894 160.352 122.894C162.36 122.894 163.481 124.081 163.481 126.206V132H162.037V126.555C162.037 124.944 161.373 124.172 159.945 124.172C158.517 124.172 157.612 125.135 157.612 126.704V132H156.168ZM169.748 132.158C167.191 132.158 165.647 130.365 165.647 127.559V127.551C165.647 124.787 167.225 122.894 169.657 122.894C172.089 122.894 173.566 124.704 173.566 127.376V127.941H167.125C167.167 129.792 168.188 130.871 169.781 130.871C170.993 130.871 171.74 130.298 171.981 129.759L172.014 129.684H173.458L173.442 129.75C173.135 130.962 171.856 132.158 169.748 132.158ZM169.648 124.181C168.32 124.181 167.308 125.085 167.15 126.787H172.097C171.948 125.019 170.968 124.181 169.648 124.181ZM187.429 133.942C183.146 133.942 180.431 131.253 180.431 127.02V127.003C180.431 122.902 183.22 120.088 187.288 120.088C191.214 120.088 193.945 122.595 193.945 126.189V126.206C193.945 128.904 192.733 130.622 190.824 130.622C189.869 130.622 189.139 130.083 189.006 129.277L188.998 129.228H188.865C188.508 130.074 187.761 130.547 186.79 130.547C185.063 130.547 183.901 129.128 183.901 127.028V127.011C183.901 125.002 185.088 123.591 186.79 123.591C187.661 123.591 188.408 124.04 188.732 124.762H188.865V123.749H190.118V128.622C190.118 129.203 190.458 129.543 191.056 129.543C192.102 129.543 192.774 128.223 192.774 126.189V126.173C192.774 123.185 190.5 121.134 187.18 121.134C183.934 121.134 181.602 123.608 181.602 127.053V127.069C181.602 130.605 183.893 132.888 187.445 132.888C188.583 132.888 189.703 132.73 190.226 132.49V133.536C189.479 133.793 188.475 133.942 187.429 133.942ZM186.98 129.377C188.118 129.377 188.848 128.472 188.848 127.061V127.044C188.848 125.633 188.126 124.737 186.997 124.737C185.885 124.737 185.229 125.6 185.229 127.044V127.061C185.229 128.497 185.893 129.377 186.98 129.377ZM196.302 132V120.022H201.54C203.864 120.022 205.25 121.159 205.25 123.002V123.019C205.25 124.28 204.312 125.384 203.084 125.567V125.716C204.669 125.841 205.823 127.028 205.823 128.563V128.58C205.823 130.68 204.238 132 201.681 132H196.302ZM200.901 121.881H198.809V125.002H200.693C202.046 125.002 202.785 124.438 202.785 123.45V123.434C202.785 122.462 202.096 121.881 200.901 121.881ZM200.984 126.654H198.809V130.132H201.042C202.486 130.132 203.267 129.518 203.267 128.381V128.364C203.267 127.252 202.461 126.654 200.984 126.654ZM210.339 132.141C208.596 132.141 207.359 131.062 207.359 129.402V129.385C207.359 127.742 208.629 126.779 210.903 126.646L213.111 126.513V125.758C213.111 124.969 212.572 124.521 211.576 124.521C210.704 124.521 210.148 124.828 209.957 125.368L209.94 125.401H207.699L207.708 125.326C207.898 123.724 209.409 122.662 211.708 122.662C214.132 122.662 215.502 123.807 215.502 125.758V132H213.111V130.788H212.962C212.497 131.635 211.534 132.141 210.339 132.141ZM209.725 129.252C209.725 129.95 210.314 130.373 211.152 130.373C212.273 130.373 213.111 129.634 213.111 128.671V127.999L211.269 128.115C210.231 128.182 209.725 128.572 209.725 129.236V129.252ZM217.876 132V122.861H220.3V124.272H220.449C220.864 123.284 221.769 122.662 223.072 122.662C225.106 122.662 226.202 123.907 226.202 126.09V132H223.778V126.638C223.778 125.351 223.247 124.67 222.101 124.67C220.98 124.67 220.3 125.476 220.3 126.712V132H217.876ZM232.577 132.191C229.721 132.191 228.103 130.456 228.103 127.418V127.401C228.103 124.396 229.713 122.662 232.577 122.662C235 122.662 236.437 123.981 236.652 126.023V126.048H234.395L234.386 126.032C234.229 125.144 233.623 124.562 232.585 124.562C231.282 124.562 230.568 125.575 230.568 127.401V127.418C230.568 129.269 231.29 130.29 232.585 130.29C233.581 130.29 234.17 129.817 234.386 128.904L234.403 128.871H236.644L236.636 128.92C236.387 130.913 234.959 132.191 232.577 132.191ZM242.604 132.191C239.79 132.191 238.097 130.406 238.097 127.435V127.418C238.097 124.471 239.815 122.662 242.604 122.662C245.393 122.662 247.111 124.463 247.111 127.418V127.435C247.111 130.415 245.418 132.191 242.604 132.191ZM242.604 130.29C243.891 130.29 244.629 129.236 244.629 127.435V127.418C244.629 125.633 243.882 124.562 242.604 124.562C241.317 124.562 240.579 125.633 240.579 127.418V127.435C240.579 129.236 241.309 130.29 242.604 130.29ZM249.087 132V122.861H251.511V124.28H251.66C251.951 123.292 252.781 122.711 253.968 122.711C254.292 122.711 254.632 122.761 254.873 122.828V124.944C254.507 124.861 254.134 124.803 253.76 124.803C252.382 124.803 251.511 125.592 251.511 126.887V132H249.087ZM258.542 128.298V127.534C258.533 126.438 259.064 125.691 260.202 125.011C261.165 124.421 261.538 123.898 261.538 123.019V123.002C261.538 121.981 260.741 121.226 259.504 121.226C258.251 121.226 257.454 121.964 257.371 123.143L257.354 123.151L255.943 123.16V123.143C256.035 121.358 257.23 119.931 259.562 119.931C261.654 119.931 263.082 121.226 263.082 122.927V122.944C263.082 124.239 262.41 125.16 261.347 125.799C260.293 126.422 259.994 126.887 259.994 127.758V128.298H258.542ZM259.38 132.149C258.708 132.149 258.226 131.668 258.226 130.996C258.226 130.315 258.708 129.833 259.38 129.833C260.052 129.833 260.525 130.315 260.525 130.996C260.525 131.668 260.052 132.149 259.38 132.149Z" fill="white"/>
<path d="M20.4111 200V188.022H25.9976C28.3882 188.022 29.7993 189.151 29.7993 191.002V191.019C29.7993 192.297 28.8364 193.384 27.5664 193.559V193.716C29.1353 193.799 30.3472 195.02 30.3472 196.539V196.555C30.3472 198.647 28.7285 200 26.1636 200H20.4111ZM25.1841 190.172H23.4575V192.903H25.0679C26.1802 192.903 26.8276 192.388 26.8276 191.55V191.533C26.8276 190.687 26.2217 190.172 25.1841 190.172ZM25.2837 194.754H23.4575V197.85H25.3003C26.562 197.85 27.251 197.294 27.251 196.29V196.273C27.251 195.293 26.5454 194.754 25.2837 194.754ZM34.7715 200.141C33.0034 200.141 31.7915 199.037 31.7915 197.352V197.335C31.7915 195.659 33.103 194.688 35.4854 194.538L37.5024 194.422V193.7C37.5024 193.077 37.0376 192.704 36.2241 192.704C35.4521 192.704 34.979 192.961 34.8047 193.426L34.7881 193.467H32.1235L32.1318 193.368C32.2979 191.666 33.8916 190.545 36.3901 190.545C38.9385 190.545 40.3911 191.708 40.3911 193.7V200H37.5024V198.854H37.3447C36.938 199.643 35.9502 200.141 34.7715 200.141ZM34.6221 197.145C34.6221 197.726 35.1118 198.091 35.8506 198.091C36.7803 198.091 37.5024 197.477 37.5024 196.68V196.074L35.9502 196.173C35.0786 196.231 34.6221 196.58 34.6221 197.128V197.145ZM42.624 200V190.761H45.5625V192.206H45.7202C46.1187 191.193 47.0483 190.545 48.3516 190.545C50.4019 190.545 51.4727 191.815 51.4727 194.032V200H48.5342V194.688C48.5342 193.567 48.0776 192.936 47.0815 192.936C46.127 192.936 45.5625 193.658 45.5625 194.721V200H42.624ZM57.8975 200.216C54.8511 200.216 53.2241 198.522 53.2241 195.376V195.36C53.2241 192.23 54.8511 190.545 57.8975 190.545C60.4458 190.545 61.9648 191.898 62.1475 194.173L62.1392 194.181L59.458 194.189L59.4497 194.173C59.3252 193.285 58.8105 192.778 57.9141 192.778C56.7686 192.778 56.2124 193.633 56.2124 195.36V195.376C56.2124 197.12 56.7769 197.983 57.9141 197.983C58.7939 197.983 59.3003 197.543 59.4414 196.663L59.458 196.646H62.1392V196.671C61.9399 198.863 60.4043 200.216 57.8975 200.216ZM68.1738 200.216C65.2188 200.216 63.4673 198.415 63.4673 195.385V195.368C63.4673 192.388 65.2686 190.545 68.1738 190.545C71.0957 190.545 72.8804 192.372 72.8804 195.368V195.385C72.8804 198.423 71.1372 200.216 68.1738 200.216ZM68.1738 197.983C69.2529 197.983 69.8672 197.02 69.8672 195.385V195.368C69.8672 193.766 69.2363 192.778 68.1738 192.778C67.1113 192.778 66.4805 193.766 66.4805 195.368V195.385C66.4805 197.028 67.0947 197.983 68.1738 197.983ZM74.7148 200V190.761H77.6533V192.23H77.811C78.0767 191.209 78.8901 190.62 80.0688 190.62C80.4258 190.62 80.7827 190.67 81.0649 190.77V193.251C80.6748 193.152 80.2515 193.094 79.8364 193.094C78.4585 193.094 77.6533 193.833 77.6533 195.111V200H74.7148ZM90.6025 202.988C88.9839 200.838 88.2451 198.332 88.2451 195.244C88.2451 192.164 88.9756 189.649 90.6025 187.499H91.8145C90.6108 189.035 89.7144 192.363 89.7144 195.244C89.7144 198.149 90.6108 201.453 91.8145 202.988H90.6025ZM94.2549 200V188.022H98.8369C101.037 188.022 102.381 189.176 102.381 191.002V191.019C102.381 192.255 101.468 193.384 100.314 193.592V193.725C101.95 193.932 102.987 195.053 102.987 196.63V196.646C102.987 198.747 101.477 200 98.9282 200H94.2549ZM98.5215 189.342H95.749V193.185H98.1396C99.9492 193.185 100.871 192.538 100.871 191.276V191.259C100.871 190.047 100.007 189.342 98.5215 189.342ZM98.563 194.472H95.749V198.68H98.7041C100.505 198.68 101.452 197.95 101.452 196.572V196.555C101.452 195.177 100.472 194.472 98.563 194.472ZM105.428 200V188.022H106.88L113.38 197.344H113.513V188.022H114.99V200H113.538L107.038 190.711H106.905V200H105.428ZM121.158 200V189.367H117.298V188.022H126.512V189.367H122.652V200H121.158ZM129.417 202.988H128.205C129.409 201.453 130.305 198.149 130.305 195.244C130.305 192.363 129.409 189.035 128.205 187.499H129.417C131.044 189.649 131.774 192.164 131.774 195.244C131.774 198.332 131.036 200.838 129.417 202.988Z" fill="white"/>
<path d="M26.6704 252.179V250.817C24.3379 250.685 22.6445 249.506 22.5781 247.439L22.5864 247.431H24.8027V247.439C24.9438 248.286 25.5332 248.833 26.6704 248.941V245.961L26.1143 245.829C23.9478 245.339 22.7607 244.368 22.7607 242.583V242.566C22.7607 240.591 24.3877 239.346 26.6704 239.213V237.818H27.625V239.213C29.9243 239.387 31.4268 240.699 31.5098 242.649L31.5015 242.658L29.3018 242.666L29.2935 242.649C29.1772 241.761 28.5547 241.23 27.625 241.089V243.978L28.2144 244.102C30.4805 244.617 31.6675 245.53 31.6675 247.348V247.364C31.6675 249.431 29.9824 250.651 27.625 250.809V252.179H26.6704ZM25.0767 242.4C25.0767 243.04 25.5498 243.455 26.6704 243.753V241.081C25.6245 241.197 25.0767 241.711 25.0767 242.384V242.4ZM29.3516 247.597C29.3516 246.875 28.9116 246.501 27.625 246.177V248.95C28.7788 248.842 29.3516 248.36 29.3516 247.613V247.597ZM34.5479 251L39.6528 241.155V241.014H33.6099V239.014H42.1763V241.039L37.1709 251H34.5479ZM48.7671 251.266C45.8867 251.266 43.9028 249.83 43.9028 247.754V247.738C43.9028 246.177 45.0649 245.023 46.7002 244.7V244.65C45.2974 244.31 44.3428 243.297 44.3428 241.994V241.977C44.3428 240.118 46.1606 238.756 48.7671 238.756C51.3652 238.756 53.1914 240.118 53.1914 241.977V241.994C53.1914 243.297 52.2285 244.301 50.834 244.65V244.7C52.4609 245.015 53.6313 246.177 53.6313 247.738V247.754C53.6313 249.83 51.6475 251.266 48.7671 251.266ZM48.7671 243.895C49.9126 243.895 50.7095 243.214 50.7095 242.234V242.218C50.7095 241.238 49.9043 240.566 48.7671 240.566C47.6216 240.566 46.8164 241.238 46.8164 242.218V242.234C46.8164 243.214 47.6133 243.895 48.7671 243.895ZM48.7671 249.439C50.0786 249.439 51.0083 248.667 51.0083 247.588V247.572C51.0083 246.493 50.0952 245.712 48.7671 245.712C47.439 245.712 46.5176 246.493 46.5176 247.572V247.588C46.5176 248.667 47.4473 249.439 48.7671 249.439ZM56.96 251.208C56.1133 251.208 55.499 250.585 55.499 249.763C55.499 248.941 56.1133 248.327 56.96 248.327C57.8149 248.327 58.4209 248.941 58.4209 249.763C58.4209 250.585 57.8149 251.208 56.96 251.208ZM64.8457 238.707C67.6182 238.707 69.793 240.682 69.793 244.891V244.907C69.793 248.917 67.9004 251.299 64.8291 251.299C62.5132 251.299 60.7949 249.929 60.4214 248.053L60.4048 247.979H62.8618L62.8867 248.053C63.1772 248.8 63.8579 249.307 64.8208 249.307C66.5557 249.307 67.3193 247.605 67.4106 245.422C67.4106 245.339 67.4106 245.248 67.4106 245.156H67.2446C66.813 246.078 65.8169 246.908 64.1567 246.908C61.8242 246.908 60.2554 245.248 60.2554 242.981V242.965C60.2554 240.516 62.1479 238.707 64.8457 238.707ZM64.8457 245.057C66.0825 245.057 67.0371 244.177 67.0371 242.94V242.923C67.0371 241.67 66.0825 240.699 64.8623 240.699C63.6504 240.699 62.6792 241.653 62.6792 242.874V242.89C62.6792 244.152 63.5923 245.057 64.8457 245.057ZM77.5874 251V248.8H71.7188V246.833C73.2378 244.135 74.8647 241.479 76.4585 239.022H79.978V246.792H81.5386V248.8H79.978V251H77.5874ZM73.9766 246.858H77.6372V240.923H77.5044C76.3423 242.708 75.0557 244.791 73.9766 246.725V246.858ZM83.7217 251V241.861H86.1455V243.289H86.2949C86.6851 242.259 87.6313 241.662 88.8267 241.662C90.0718 241.662 90.9932 242.292 91.3667 243.347H91.5161C91.9312 242.334 92.9937 241.662 94.272 241.662C96.0898 241.662 97.2271 242.84 97.2271 244.725V251H94.8032V245.331C94.8032 244.227 94.3052 243.67 93.2925 243.67C92.313 243.67 91.6821 244.393 91.6821 245.38V251H89.2583V245.223C89.2583 244.243 88.7021 243.67 87.7559 243.67C86.8096 243.67 86.1455 244.442 86.1455 245.488V251H83.7217Z" fill="white"/>
<path d="M23.2754 227V219.494H20.5508V218.545H27.0547V219.494H24.3301V227H23.2754ZM29.9785 227.111C28.1797 227.111 27.0664 225.869 27.0664 223.848V223.836C27.0664 221.809 28.1797 220.572 29.9785 220.572C31.7773 220.572 32.8906 221.809 32.8906 223.836V223.848C32.8906 225.869 31.7773 227.111 29.9785 227.111ZM29.9785 226.209C31.1738 226.209 31.8477 225.336 31.8477 223.848V223.836C31.8477 222.342 31.1738 221.475 29.9785 221.475C28.7832 221.475 28.1094 222.342 28.1094 223.836V223.848C28.1094 225.336 28.7832 226.209 29.9785 226.209ZM36.7168 227.047C35.416 227.047 34.8711 226.566 34.8711 225.359V221.527H33.875V220.684H34.8711V219.049H35.9258V220.684H37.3086V221.527H35.9258V225.102C35.9258 225.846 36.1836 226.145 36.8398 226.145C37.0215 226.145 37.1211 226.139 37.3086 226.121V226.988C37.1094 227.023 36.916 227.047 36.7168 227.047ZM40.5664 227.111C39.3652 227.111 38.457 226.385 38.457 225.236V225.225C38.457 224.1 39.2891 223.449 40.7598 223.361L42.5703 223.25V222.676C42.5703 221.896 42.0957 221.475 41.1523 221.475C40.3965 221.475 39.8984 221.756 39.7344 222.248L39.7285 222.266H38.709L38.7148 222.23C38.8789 221.24 39.8398 220.572 41.1875 220.572C42.7285 220.572 43.5898 221.363 43.5898 222.676V227H42.5703V226.068H42.4766C42.0781 226.742 41.416 227.111 40.5664 227.111ZM39.5 225.213C39.5 225.852 40.0449 226.227 40.7773 226.227C41.8145 226.227 42.5703 225.547 42.5703 224.645V224.07L40.8828 224.176C39.9219 224.234 39.5 224.574 39.5 225.201V225.213ZM45.5117 227V218.176H46.5312V227H45.5117ZM53.6504 227L51.3125 220.684H52.3906L54.1191 225.887H54.2129L55.9414 220.684H57.0195L54.6816 227H53.6504ZM59.8672 227.111C58.666 227.111 57.7578 226.385 57.7578 225.236V225.225C57.7578 224.1 58.5898 223.449 60.0605 223.361L61.8711 223.25V222.676C61.8711 221.896 61.3965 221.475 60.4531 221.475C59.6973 221.475 59.1992 221.756 59.0352 222.248L59.0293 222.266H58.0098L58.0156 222.23C58.1797 221.24 59.1406 220.572 60.4883 220.572C62.0293 220.572 62.8906 221.363 62.8906 222.676V227H61.8711V226.068H61.7773C61.3789 226.742 60.7168 227.111 59.8672 227.111ZM58.8008 225.213C58.8008 225.852 59.3457 226.227 60.0781 226.227C61.1152 226.227 61.8711 225.547 61.8711 224.645V224.07L60.1836 224.176C59.2227 224.234 58.8008 224.574 58.8008 225.201V225.213ZM64.8125 227V218.176H65.832V227H64.8125ZM69.9043 227.111C68.4688 227.111 67.7305 226.268 67.7305 224.773V220.684H68.75V224.527C68.75 225.664 69.1602 226.209 70.168 226.209C71.2812 226.209 71.873 225.529 71.873 224.422V220.684H72.8926V227H71.873V226.057H71.7793C71.4688 226.73 70.8301 227.111 69.9043 227.111ZM77.375 227.111C75.5703 227.111 74.4805 225.846 74.4805 223.865V223.859C74.4805 221.908 75.5938 220.572 77.3105 220.572C79.0273 220.572 80.0703 221.85 80.0703 223.736V224.135H75.5234C75.5527 225.441 76.2734 226.203 77.3984 226.203C78.2539 226.203 78.7812 225.799 78.9512 225.418L78.9746 225.365H79.9941L79.9824 225.412C79.7656 226.268 78.8633 227.111 77.375 227.111ZM77.3047 221.48C76.3672 221.48 75.6523 222.119 75.541 223.32H79.0332C78.9277 222.072 78.2363 221.48 77.3047 221.48ZM85.0859 227V218.176H86.1055V227H85.0859ZM90.6582 227.111C88.8594 227.111 87.7461 225.869 87.7461 223.848V223.836C87.7461 221.809 88.8594 220.572 90.6582 220.572C92.457 220.572 93.5703 221.809 93.5703 223.836V223.848C93.5703 225.869 92.457 227.111 90.6582 227.111ZM90.6582 226.209C91.8535 226.209 92.5273 225.336 92.5273 223.848V223.836C92.5273 222.342 91.8535 221.475 90.6582 221.475C89.4629 221.475 88.7891 222.342 88.7891 223.836V223.848C88.7891 225.336 89.4629 226.209 90.6582 226.209ZM97.7363 227.111C95.9668 227.111 94.8359 225.828 94.8359 223.824V223.812C94.8359 221.85 95.9609 220.572 97.7305 220.572C99.2656 220.572 100.186 221.457 100.373 222.582L100.379 222.617H99.3652L99.3594 222.6C99.2012 221.979 98.6387 221.475 97.7305 221.475C96.5938 221.475 95.8789 222.389 95.8789 223.812V223.824C95.8789 225.277 96.6055 226.209 97.7305 226.209C98.5801 226.209 99.1191 225.834 99.3535 225.131L99.3652 225.096L100.373 225.09L100.361 225.154C100.104 226.297 99.2539 227.111 97.7363 227.111ZM101.926 227V218.176H102.945V223.443H103.039L105.77 220.684H107.006L104.252 223.338L107.188 227H105.904L103.537 224.029L102.945 224.604V227H101.926ZM110.668 227.111C108.863 227.111 107.773 225.846 107.773 223.865V223.859C107.773 221.908 108.887 220.572 110.604 220.572C112.32 220.572 113.363 221.85 113.363 223.736V224.135H108.816C108.846 225.441 109.566 226.203 110.691 226.203C111.547 226.203 112.074 225.799 112.244 225.418L112.268 225.365H113.287L113.275 225.412C113.059 226.268 112.156 227.111 110.668 227.111ZM110.598 221.48C109.66 221.48 108.945 222.119 108.834 223.32H112.326C112.221 222.072 111.529 221.48 110.598 221.48ZM117.277 227.111C115.678 227.111 114.629 225.816 114.629 223.848V223.836C114.629 221.855 115.672 220.572 117.277 220.572C118.145 220.572 118.9 221.006 119.246 221.68H119.34V218.176H120.359V227H119.34V225.992H119.246C118.859 226.695 118.156 227.111 117.277 227.111ZM117.512 226.209C118.66 226.209 119.363 225.307 119.363 223.848V223.836C119.363 222.377 118.66 221.475 117.512 221.475C116.357 221.475 115.672 222.365 115.672 223.836V223.848C115.672 225.318 116.357 226.209 117.512 226.209Z" fill="white" fill-opacity="0.69"/>
<path fill-rule="evenodd" clip-rule="evenodd" d="M267 24C267 15.5992 267 11.3988 265.365 8.19014C263.927 5.36771 261.632 3.073 258.81 1.6349C255.601 0 251.401 0 243 0H29C20.5992 0 16.3988 0 13.1901 1.6349C10.3677 3.073 8.073 5.36771 6.63489 8.19014C5 11.3988 5 15.5992 5 24V34C5 42.4008 5 46.6012 6.63489 49.8099C8.073 52.6323 10.3677 54.927 13.1901 56.3651C16.3988 58 20.5992 58 29 58H243C251.401 58 255.601 58 258.81 56.3651C261.632 54.927 263.927 52.6323 265.365 49.8099C267 46.6012 267 42.4008 267 34V24Z" fill="#262629"/>
<path fill-rule="evenodd" clip-rule="evenodd" d="M0 57.6716V58H6C13.732 58 20 51.732 20 44H5.00033C5.00033 46.7383 5.00033 48.1074 4.80939 49.2517C4.24701 52.6218 2.49706 55.5753 0 57.6716Z" fill="#262629"/>
<path d="M20.5273 24V12.022H22.0215V17.2017H28.5957V12.022H30.0898V24H28.5957V18.5464H22.0215V24H20.5273ZM36.6143 24.1577C34.0576 24.1577 32.5137 22.3647 32.5137 19.5591V19.5508C32.5137 16.7866 34.0908 14.894 36.5229 14.894C38.9551 14.894 40.4326 16.7036 40.4326 19.3765V19.9409H33.9912C34.0327 21.792 35.0537 22.8711 36.6475 22.8711C37.8594 22.8711 38.6064 22.2983 38.8472 21.7588L38.8804 21.6841H40.3247L40.3081 21.7505C40.001 22.9624 38.7227 24.1577 36.6143 24.1577ZM36.5146 16.1807C35.1865 16.1807 34.1738 17.0854 34.0161 18.7871H38.9634C38.814 17.019 37.8345 16.1807 36.5146 16.1807ZM42.7568 24V11.499H44.2012V24H42.7568ZM47.0566 24V11.499H48.501V24H47.0566ZM54.9507 24.1577C52.4023 24.1577 50.8252 22.3979 50.8252 19.5342V19.5176C50.8252 16.6455 52.4023 14.894 54.9507 14.894C57.499 14.894 59.0762 16.6455 59.0762 19.5176V19.5342C59.0762 22.3979 57.499 24.1577 54.9507 24.1577ZM54.9507 22.8794C56.644 22.8794 57.5986 21.6426 57.5986 19.5342V19.5176C57.5986 17.4009 56.644 16.1724 54.9507 16.1724C53.2573 16.1724 52.3027 17.4009 52.3027 19.5176V19.5342C52.3027 21.6426 53.2573 22.8794 54.9507 22.8794ZM60.7861 27.0464L61.5083 22.3232H63.1602L61.8569 27.0464H60.7861ZM71.1621 24V12.022H75.6777C77.9272 12.022 79.521 13.5742 79.521 15.8486V15.8652C79.521 18.1396 77.9272 19.7251 75.6777 19.7251H72.6562V24H71.1621ZM75.2959 13.3501H72.6562V18.397H75.2959C77.0059 18.397 77.9937 17.459 77.9937 15.8818V15.8652C77.9937 14.2881 77.0059 13.3501 75.2959 13.3501ZM81.7871 24V15.0518H83.2314V16.3799H83.3643C83.7046 15.4419 84.543 14.894 85.7549 14.894C86.0288 14.894 86.3359 14.9272 86.4771 14.9521V16.355C86.1782 16.3052 85.9043 16.272 85.5889 16.272C84.2109 16.272 83.2314 17.1436 83.2314 18.4551V24H81.7871ZM90.7188 24.1577C89.0171 24.1577 87.7305 23.1284 87.7305 21.5015V21.4849C87.7305 19.8911 88.9092 18.9697 90.9927 18.8452L93.5576 18.6875V17.874C93.5576 16.77 92.8853 16.1724 91.5488 16.1724C90.478 16.1724 89.7725 16.5708 89.54 17.2681L89.5317 17.293H88.0874L88.0957 17.2432C88.3281 15.8403 89.6895 14.894 91.5986 14.894C93.7817 14.894 95.002 16.0146 95.002 17.874V24H93.5576V22.6802H93.4248C92.8604 23.6348 91.9224 24.1577 90.7188 24.1577ZM89.208 21.4683C89.208 22.373 89.98 22.9043 91.0176 22.9043C92.4868 22.9043 93.5576 21.9414 93.5576 20.6631V19.8496L91.167 19.999C89.8057 20.082 89.208 20.5635 89.208 21.4517V21.4683ZM99.8413 24L96.5293 15.0518H98.0566L100.505 22.4229H100.638L103.087 15.0518H104.614L101.302 24H99.8413ZM107.287 13.3252C106.739 13.3252 106.291 12.877 106.291 12.3291C106.291 11.7812 106.739 11.333 107.287 11.333C107.835 11.333 108.283 11.7812 108.283 12.3291C108.283 12.877 107.835 13.3252 107.287 13.3252ZM106.557 24V15.0518H108.001V24H106.557ZM110.724 24V15.0518H112.168V16.3965H112.301C112.749 15.4502 113.587 14.894 114.907 14.894C116.916 14.894 118.037 16.0811 118.037 18.2061V24H116.592V18.5547C116.592 16.9443 115.928 16.1724 114.5 16.1724C113.073 16.1724 112.168 17.1353 112.168 18.7041V24H110.724ZM125.516 24V11.499H126.96V16.3965H127.093C127.541 15.4502 128.379 14.894 129.699 14.894C131.708 14.894 132.829 16.0811 132.829 18.2061V24H131.384V18.5547C131.384 16.9443 130.72 16.1724 129.292 16.1724C127.865 16.1724 126.96 17.1353 126.96 18.7041V24H125.516ZM139.121 24.1577C136.572 24.1577 134.995 22.3979 134.995 19.5342V19.5176C134.995 16.6455 136.572 14.894 139.121 14.894C141.669 14.894 143.246 16.6455 143.246 19.5176V19.5342C143.246 22.3979 141.669 24.1577 139.121 24.1577ZM139.121 22.8794C140.814 22.8794 141.769 21.6426 141.769 19.5342V19.5176C141.769 17.4009 140.814 16.1724 139.121 16.1724C137.427 16.1724 136.473 17.4009 136.473 19.5176V19.5342C136.473 21.6426 137.427 22.8794 139.121 22.8794ZM146.882 24L144.375 15.0518H145.819L147.579 22.207H147.712L149.712 15.0518H151.082L153.083 22.207H153.215L154.975 15.0518H156.411L153.904 24H152.452L150.451 17.0771H150.318L148.326 24H146.882ZM166.762 24.1577C164.255 24.1577 162.653 22.3398 162.653 19.501V19.4844C162.653 16.7036 164.247 14.894 166.754 14.894C168.929 14.894 170.232 16.1475 170.498 17.7412L170.506 17.791H169.07L169.062 17.7661C168.837 16.8862 168.041 16.1724 166.754 16.1724C165.144 16.1724 164.131 17.4673 164.131 19.4844V19.501C164.131 21.5596 165.16 22.8794 166.754 22.8794C167.958 22.8794 168.721 22.3481 169.053 21.3521L169.07 21.3022L170.498 21.2939L170.481 21.3853C170.116 23.0039 168.912 24.1577 166.762 24.1577ZM175.071 24.1577C173.37 24.1577 172.083 23.1284 172.083 21.5015V21.4849C172.083 19.8911 173.262 18.9697 175.345 18.8452L177.91 18.6875V17.874C177.91 16.77 177.238 16.1724 175.901 16.1724C174.831 16.1724 174.125 16.5708 173.893 17.2681L173.884 17.293H172.44L172.448 17.2432C172.681 15.8403 174.042 14.894 175.951 14.894C178.134 14.894 179.354 16.0146 179.354 17.874V24H177.91V22.6802H177.777C177.213 23.6348 176.275 24.1577 175.071 24.1577ZM173.561 21.4683C173.561 22.373 174.333 22.9043 175.37 22.9043C176.839 22.9043 177.91 21.9414 177.91 20.6631V19.8496L175.52 19.999C174.158 20.082 173.561 20.5635 173.561 21.4517V21.4683ZM181.994 24V15.0518H183.438V16.3965H183.571C184.02 15.4502 184.858 14.894 186.178 14.894C188.187 14.894 189.307 16.0811 189.307 18.2061V24H187.863V18.5547C187.863 16.9443 187.199 16.1724 185.771 16.1724C184.343 16.1724 183.438 17.1353 183.438 18.7041V24H181.994ZM197.467 13.3252C196.919 13.3252 196.471 12.877 196.471 12.3291C196.471 11.7812 196.919 11.333 197.467 11.333C198.015 11.333 198.463 11.7812 198.463 12.3291C198.463 12.877 198.015 13.3252 197.467 13.3252ZM196.736 24V15.0518H198.181V24H196.736ZM208.142 24.1577C206.44 24.1577 205.153 23.1284 205.153 21.5015V21.4849C205.153 19.8911 206.332 18.9697 208.416 18.8452L210.98 18.6875V17.874C210.98 16.77 210.308 16.1724 208.972 16.1724C207.901 16.1724 207.195 16.5708 206.963 17.2681L206.955 17.293H205.51L205.519 17.2432C205.751 15.8403 207.112 14.894 209.021 14.894C211.205 14.894 212.425 16.0146 212.425 17.874V24H210.98V22.6802H210.848C210.283 23.6348 209.345 24.1577 208.142 24.1577ZM206.631 21.4683C206.631 22.373 207.403 22.9043 208.44 22.9043C209.91 22.9043 210.98 21.9414 210.98 20.6631V19.8496L208.59 19.999C207.229 20.082 206.631 20.5635 206.631 21.4517V21.4683ZM218.136 24.1577C216.144 24.1577 214.774 23.1948 214.608 21.7173H216.085C216.326 22.4644 217.04 22.9541 218.186 22.9541C219.389 22.9541 220.244 22.3813 220.244 21.5679V21.5513C220.244 20.9453 219.788 20.522 218.684 20.2563L217.297 19.9243C215.621 19.5259 214.865 18.7954 214.865 17.5088V17.5005C214.865 16.0146 216.293 14.894 218.194 14.894C220.07 14.894 221.373 15.832 221.572 17.293H220.153C219.962 16.5874 219.265 16.0977 218.186 16.0977C217.123 16.0977 216.343 16.6455 216.343 17.4341V17.4507C216.343 18.0566 216.791 18.4385 217.845 18.6958L219.223 19.0278C220.908 19.4346 221.722 20.165 221.722 21.4434V21.46C221.722 23.0537 220.169 24.1577 218.136 24.1577ZM226.868 24.1577C224.876 24.1577 223.506 23.1948 223.34 21.7173H224.818C225.059 22.4644 225.772 22.9541 226.918 22.9541C228.122 22.9541 228.977 22.3813 228.977 21.5679V21.5513C228.977 20.9453 228.52 20.522 227.416 20.2563L226.03 19.9243C224.353 19.5259 223.598 18.7954 223.598 17.5088V17.5005C223.598 16.0146 225.025 14.894 226.926 14.894C228.802 14.894 230.105 15.832 230.305 17.293H228.885C228.694 16.5874 227.997 16.0977 226.918 16.0977C225.855 16.0977 225.075 16.6455 225.075 17.4341V17.4507C225.075 18.0566 225.523 18.4385 226.578 18.6958L227.956 19.0278C229.641 19.4346 230.454 20.165 230.454 21.4434V21.46C230.454 23.0537 228.902 24.1577 226.868 24.1577ZM233.459 13.3252C232.911 13.3252 232.463 12.877 232.463 12.3291C232.463 11.7812 232.911 11.333 233.459 11.333C234.007 11.333 234.455 11.7812 234.455 12.3291C234.455 12.877 234.007 13.3252 233.459 13.3252ZM232.729 24V15.0518H234.173V24H232.729ZM239.967 24.1577C237.975 24.1577 236.605 23.1948 236.439 21.7173H237.917C238.157 22.4644 238.871 22.9541 240.017 22.9541C241.22 22.9541 242.075 22.3813 242.075 21.5679V21.5513C242.075 20.9453 241.619 20.522 240.515 20.2563L239.128 19.9243C237.452 19.5259 236.696 18.7954 236.696 17.5088V17.5005C236.696 16.0146 238.124 14.894 240.025 14.894C241.901 14.894 243.204 15.832 243.403 17.293H241.984C241.793 16.5874 241.096 16.0977 240.017 16.0977C238.954 16.0977 238.174 16.6455 238.174 17.4341V17.4507C238.174 18.0566 238.622 18.4385 239.676 18.6958L241.054 19.0278C242.739 19.4346 243.553 20.165 243.553 21.4434V21.46C243.553 23.0537 242 24.1577 239.967 24.1577ZM248.89 24.0664C247.047 24.0664 246.275 23.3857 246.275 21.6758V16.2471H244.864V15.0518H246.275V12.7358H247.77V15.0518H249.729V16.2471H247.77V21.3105C247.77 22.3647 248.135 22.7881 249.064 22.7881C249.322 22.7881 249.463 22.7798 249.729 22.7549V23.9834C249.446 24.0332 249.172 24.0664 248.89 24.0664ZM21.1084 49.1377C20.9175 49.1377 20.6685 49.1211 20.4692 49.0879V47.9009C20.6436 47.9341 20.8677 47.9424 21.0669 47.9424C21.8887 47.9424 22.3867 47.5688 22.7104 46.5396L22.8765 46.0083L19.5645 37.0518H21.1084L23.5654 44.4146H23.6982L26.147 37.0518H27.666L24.1714 46.5479C23.4326 48.5566 22.6938 49.1377 21.1084 49.1377ZM32.9204 46.1577C30.3721 46.1577 28.7949 44.3979 28.7949 41.5342V41.5176C28.7949 38.6455 30.3721 36.894 32.9204 36.894C35.4688 36.894 37.0459 38.6455 37.0459 41.5176V41.5342C37.0459 44.3979 35.4688 46.1577 32.9204 46.1577ZM32.9204 44.8794C34.6138 44.8794 35.5684 43.6426 35.5684 41.5342V41.5176C35.5684 39.4009 34.6138 38.1724 32.9204 38.1724C31.2271 38.1724 30.2725 39.4009 30.2725 41.5176V41.5342C30.2725 43.6426 31.2271 44.8794 32.9204 44.8794ZM42.2837 46.1577C40.25 46.1577 39.2041 44.9624 39.2041 42.8457V37.0518H40.6484V42.4971C40.6484 44.1074 41.2295 44.8794 42.6572 44.8794C44.2344 44.8794 45.0728 43.9165 45.0728 42.3477V37.0518H46.5171V46H45.0728V44.6636H44.9399C44.5 45.6182 43.5952 46.1577 42.2837 46.1577ZM57.1753 46.0664C55.3325 46.0664 54.5605 45.3857 54.5605 43.6758V38.2471H53.1494V37.0518H54.5605V34.7358H56.0547V37.0518H58.0137V38.2471H56.0547V43.3105C56.0547 44.3647 56.4199 44.7881 57.3496 44.7881C57.6069 44.7881 57.748 44.7798 58.0137 44.7549V45.9834C57.7314 46.0332 57.4575 46.0664 57.1753 46.0664ZM63.7163 46.1577C61.168 46.1577 59.5908 44.3979 59.5908 41.5342V41.5176C59.5908 38.6455 61.168 36.894 63.7163 36.894C66.2646 36.894 67.8418 38.6455 67.8418 41.5176V41.5342C67.8418 44.3979 66.2646 46.1577 63.7163 46.1577ZM63.7163 44.8794C65.4097 44.8794 66.3643 43.6426 66.3643 41.5342V41.5176C66.3643 39.4009 65.4097 38.1724 63.7163 38.1724C62.0229 38.1724 61.0684 39.4009 61.0684 41.5176V41.5342C61.0684 43.6426 62.0229 44.8794 63.7163 44.8794ZM73.3867 46.1577C71.1206 46.1577 69.6348 44.3232 69.6348 41.5342V41.5176C69.6348 38.7119 71.1123 36.894 73.3867 36.894C74.6152 36.894 75.686 37.5083 76.1758 38.4629H76.3086V33.499H77.7529V46H76.3086V44.5723H76.1758C75.6279 45.5684 74.6318 46.1577 73.3867 46.1577ZM73.7188 44.8794C75.3457 44.8794 76.3418 43.6011 76.3418 41.5342V41.5176C76.3418 39.4507 75.3457 38.1724 73.7188 38.1724C72.0835 38.1724 71.1123 39.4341 71.1123 41.5176V41.5342C71.1123 43.6177 72.0835 44.8794 73.7188 44.8794ZM82.9824 46.1577C81.2808 46.1577 79.9941 45.1284 79.9941 43.5015V43.4849C79.9941 41.8911 81.1729 40.9697 83.2563 40.8452L85.8213 40.6875V39.874C85.8213 38.77 85.1489 38.1724 83.8125 38.1724C82.7417 38.1724 82.0361 38.5708 81.8037 39.2681L81.7954 39.293H80.3511L80.3594 39.2432C80.5918 37.8403 81.9531 36.894 83.8623 36.894C86.0454 36.894 87.2656 38.0146 87.2656 39.874V46H85.8213V44.6802H85.6885C85.124 45.6348 84.186 46.1577 82.9824 46.1577ZM81.4717 43.4683C81.4717 44.373 82.2437 44.9043 83.2812 44.9043C84.7505 44.9043 85.8213 43.9414 85.8213 42.6631V41.8496L83.4307 41.999C82.0693 42.082 81.4717 42.5635 81.4717 43.4517V43.4683ZM90.3369 49.1377C90.146 49.1377 89.897 49.1211 89.6978 49.0879V47.9009C89.8721 47.9341 90.0962 47.9424 90.2954 47.9424C91.1172 47.9424 91.6152 47.5688 91.939 46.5396L92.105 46.0083L88.793 37.0518H90.3369L92.7939 44.4146H92.9268L95.3755 37.0518H96.8945L93.3999 46.5479C92.6611 48.5566 91.9224 49.1377 90.3369 49.1377ZM100.721 42.2979V41.5342C100.713 40.4385 101.244 39.6914 102.381 39.0107C103.344 38.4214 103.718 37.8984 103.718 37.0186V37.002C103.718 35.981 102.921 35.2256 101.684 35.2256C100.431 35.2256 99.6338 35.9644 99.5508 37.1431L99.5342 37.1514L98.123 37.1597V37.1431C98.2144 35.3584 99.4097 33.9307 101.742 33.9307C103.834 33.9307 105.262 35.2256 105.262 36.9272V36.9438C105.262 38.2388 104.589 39.1602 103.527 39.7993C102.473 40.4219 102.174 40.8867 102.174 41.7583V42.2979H100.721ZM101.56 46.1494C100.887 46.1494 100.406 45.668 100.406 44.9956C100.406 44.3149 100.887 43.8335 101.56 43.8335C102.232 43.8335 102.705 44.3149 102.705 44.9956C102.705 45.668 102.232 46.1494 101.56 46.1494Z" fill="white"/>
<defs>
<linearGradient id="paint0_linear_793_1878" x1="61.5" y1="93.5" x2="452" y2="176" gradientUnits="userSpaceOnUse">
<stop stop-color="#321F5C"/>
<stop offset="1" stop-color="#321F5C" stop-opacity="0"/>
</linearGradient>
</defs>
</svg>
