<svg width="25" height="24" viewBox="0 0 25 24" fill="none" xmlns="http://www.w3.org/2000/svg">
<path d="M20.786 7.91998C20.7982 8.0963 20.7982 8.27261 20.7982 8.45055C20.7982 13.8724 16.6706 20.1255 9.12316 20.1255V20.1223C6.89362 20.1255 4.7104 19.4869 2.8335 18.2828C3.15769 18.3218 3.48351 18.3413 3.81014 18.3421C5.65779 18.3437 7.45263 17.7238 8.90622 16.5822C7.15038 16.5489 5.61066 15.404 5.07278 13.7327C5.68785 13.8513 6.32161 13.8269 6.92531 13.662C5.01103 13.2753 3.63382 11.5934 3.63382 9.64007C3.63382 9.6222 3.63382 9.60513 3.63382 9.58807C4.20421 9.90576 4.84284 10.0821 5.4961 10.1016C3.69313 8.89662 3.13738 6.49808 4.22614 4.6228C6.30943 7.18628 9.38316 8.74468 12.6828 8.90962C12.3521 7.48447 12.8038 5.99108 13.8699 4.98925C15.5225 3.43572 18.1217 3.51535 19.6753 5.16719C20.5942 4.986 21.475 4.64881 22.281 4.17105C21.9747 5.12088 21.3336 5.9277 20.4772 6.4404C21.2905 6.34452 22.0852 6.12677 22.8335 5.79445C22.2826 6.61996 21.5887 7.33903 20.786 7.91998Z" fill="white"/>
</svg>
