<svg width="19" height="18" viewBox="0 0 19 18" fill="none" xmlns="http://www.w3.org/2000/svg">
<g clip-path="url(#clip0_749_14041)">
<path d="M18.0833 2.24997C17.3651 2.75658 16.5699 3.14406 15.7283 3.39747C15.2766 2.87811 14.6763 2.50999 14.0086 2.34292C13.3409 2.17584 12.6379 2.21787 11.9949 2.46331C11.3518 2.70876 10.7996 3.14577 10.413 3.71526C10.0265 4.28475 9.82409 4.95923 9.83331 5.64747V6.39747C8.51529 6.43165 7.20927 6.13933 6.03157 5.54656C4.85387 4.95378 3.84105 4.07895 3.08331 2.99997C3.08331 2.99997 0.083313 9.74997 6.83331 12.75C5.28871 13.7984 3.44868 14.3242 1.58331 14.25C8.33331 18 16.5833 14.25 16.5833 5.62497C16.5826 5.41606 16.5625 5.20767 16.5233 5.00247C17.2888 4.24759 17.8289 3.29451 18.0833 2.24997V2.24997Z" stroke="white" stroke-linecap="round" stroke-linejoin="round"/>
</g>
<defs>
<clipPath id="clip0_749_14041">
<rect width="18" height="18" fill="white" transform="translate(0.833313)"/>
</clipPath>
</defs>
</svg>
