<svg width="150" height="47" viewBox="0 0 150 47" fill="none" xmlns="http://www.w3.org/2000/svg">
<path d="M0 14.625C0 12.3468 1.84683 10.5 4.125 10.5H15C23.2843 10.5 30 17.2157 30 25.5C30 33.7843 23.2843 40.5 15 40.5H9.44711C8.99307 40.5 8.625 40.1319 8.625 39.6779V33.1646C8.625 32.6584 9.03541 32.248 9.54167 32.248H14.251C17.9784 32.248 21 29.2263 21 25.499C21 21.7716 17.9784 18.75 14.251 18.75H4.125C1.84683 18.75 0 16.9032 0 14.625Z" fill="url(#paint0_angular_749_13915)"/>
<path d="M0 14.625C0 12.3468 1.84683 10.5 4.125 10.5H15C23.2843 10.5 30 17.2157 30 25.5C30 33.7843 23.2843 40.5 15 40.5H9.44711C8.99307 40.5 8.625 40.1319 8.625 39.6779V33.4182C8.625 32.773 9.14801 32.25 9.79318 32.25H13.1754C18.2127 32.25 23.0718 30.3854 26.816 27.0156C27.716 26.2056 27.716 24.7944 26.816 23.9844C23.0718 20.6146 18.2127 18.75 13.1754 18.75H4.125C1.84683 18.75 0 16.9032 0 14.625Z" fill="#533483"/>
<path d="M0 36.2812C0 33.9513 1.8888 32.0625 4.21875 32.0625H6.5625C7.08027 32.0625 7.5 32.4822 7.5 33V39.5625C7.5 40.0803 7.08027 40.5 6.5625 40.5H4.21875C1.8888 40.5 0 38.6112 0 36.2812Z" fill="#E94560"/>
<rect x="9.375" y="20.8125" width="9.375" height="9.375" rx="4.6875" fill="#E94560"/>
<path d="M51.5 34.5C53.1562 34.5 54.5703 33.9141 55.7422 32.7422C56.9141 31.5703 57.5 30.1562 57.5 28.5C57.5 26.8438 56.9141 25.4297 55.7422 24.2578C54.5703 23.0859 53.1562 22.5 51.5 22.5C49.8438 22.5 48.4297 23.0859 47.2578 24.2578C46.0859 25.4297 45.5 26.8438 45.5 28.5C45.5 30.1562 46.0859 31.5703 47.2578 32.7422C48.4297 33.9141 49.8438 34.5 51.5 34.5ZM39.5 28.5C39.5 26.9062 39.8047 25.375 40.4141 23.9062C41.0234 22.4375 41.8906 21.1406 43.0156 20.0156C44.1406 18.8906 45.4375 18.0234 46.9062 17.4141C48.375 16.8047 49.9062 16.5 51.5 16.5C53.0938 16.5 54.625 16.8047 56.0938 17.4141C57.5625 18.0234 58.8594 18.8906 59.9844 20.0156C61.1094 21.1406 61.9766 22.4375 62.5859 23.9062C63.1953 25.375 63.5 26.9062 63.5 28.5C63.5 30.0938 63.1953 31.625 62.5859 33.0938C61.9766 34.5625 61.1094 35.8594 59.9844 36.9844C58.8594 38.1094 57.5625 38.9766 56.0938 39.5859C54.625 40.1953 53.0938 40.5 51.5 40.5C49.9062 40.5 48.375 40.1953 46.9062 39.5859C46.4219 39.3828 45.9531 39.1484 45.5 38.8828V46.5H39.5V28.5ZM77.7791 40.5C76.1853 40.5 74.6541 40.1953 73.1853 39.5859C71.7166 38.9766 70.4197 38.1094 69.2947 36.9844C68.1697 35.8594 67.3025 34.5625 66.6931 33.0938C66.0837 31.625 65.7791 30.0938 65.7791 28.5C65.7791 26.9062 66.0837 25.375 66.6931 23.9062C67.3025 22.4375 68.1697 21.1406 69.2947 20.0156C70.4197 18.8906 71.7166 18.0234 73.1853 17.4141C74.6541 16.8047 76.1853 16.5 77.7791 16.5C79.3728 16.5 80.9041 16.8047 82.3728 17.4141C83.8416 18.0234 85.1384 18.8906 86.2634 20.0156C87.3884 21.1406 88.2556 22.4375 88.865 23.9062C89.4744 25.375 89.7791 26.9062 89.7791 28.5C89.7791 30.0938 89.4744 31.625 88.865 33.0938C88.2556 34.5625 87.3884 35.8594 86.2634 36.9844C85.1384 38.1094 83.8416 38.9766 82.3728 39.5859C80.9041 40.1953 79.3728 40.5 77.7791 40.5ZM77.7791 34.5C79.4353 34.5 80.8494 33.9141 82.0212 32.7422C83.1931 31.5703 83.7791 30.1562 83.7791 28.5C83.7791 26.8438 83.1931 25.4297 82.0212 24.2578C80.8494 23.0859 79.4353 22.5 77.7791 22.5C76.1228 22.5 74.7087 23.0859 73.5369 24.2578C72.365 25.4297 71.7791 26.8438 71.7791 28.5C71.7791 30.1562 72.365 31.5703 73.5369 32.7422C74.7087 33.9141 76.1228 34.5 77.7791 34.5ZM99.0191 28.5V40.5H93.0191V28.5C93.0191 26.9062 93.3237 25.375 93.9331 23.9062C94.5425 22.4375 95.4097 21.1406 96.5347 20.0156C97.6597 18.8906 98.9566 18.0234 100.425 17.4141C101.894 16.8047 103.425 16.5 105.019 16.5V22.5C103.363 22.5 101.949 23.0859 100.777 24.2578C99.605 25.4297 99.0191 26.8438 99.0191 28.5ZM117.019 31.5V40.5H111.019V31.5H108.019V25.5H111.019V22.5C111.019 20.9062 111.324 19.375 111.933 17.9062C112.543 16.4375 113.41 15.1406 114.535 14.0156C115.66 12.8906 116.957 12.0234 118.425 11.4141C119.894 10.8047 121.425 10.5 123.019 10.5V16.5C121.363 16.5 119.949 17.0859 118.777 18.2578C117.605 19.4297 117.019 20.8438 117.019 22.5V25.5H123.019V31.5H117.019ZM137.509 40.5C135.915 40.5 134.384 40.1953 132.915 39.5859C131.447 38.9766 130.15 38.1094 129.025 36.9844C127.9 35.8594 127.033 34.5625 126.423 33.0938C125.814 31.625 125.509 30.0938 125.509 28.5C125.509 26.9062 125.814 25.375 126.423 23.9062C127.033 22.4375 127.9 21.1406 129.025 20.0156C130.15 18.8906 131.447 18.0234 132.915 17.4141C134.384 16.8047 135.915 16.5 137.509 16.5C139.103 16.5 140.634 16.8047 142.103 17.4141C143.572 18.0234 144.868 18.8906 145.993 20.0156C147.118 21.1406 147.986 22.4375 148.595 23.9062C149.204 25.375 149.509 26.9062 149.509 28.5C149.509 30.0938 149.204 31.625 148.595 33.0938C147.986 34.5625 147.118 35.8594 145.993 36.9844C144.868 38.1094 143.572 38.9766 142.103 39.5859C140.634 40.1953 139.103 40.5 137.509 40.5ZM137.509 34.5C139.165 34.5 140.579 33.9141 141.751 32.7422C142.923 31.5703 143.509 30.1562 143.509 28.5C143.509 26.8438 142.923 25.4297 141.751 24.2578C140.579 23.0859 139.165 22.5 137.509 22.5C135.853 22.5 134.439 23.0859 133.267 24.2578C132.095 25.4297 131.509 26.8438 131.509 28.5C131.509 30.1562 132.095 31.5703 133.267 32.7422C134.439 33.9141 135.853 34.5 137.509 34.5Z" fill="url(#paint1_linear_749_13915)"/>
<defs>
<radialGradient id="paint0_angular_749_13915" cx="0" cy="0" r="1" gradientUnits="userSpaceOnUse" gradientTransform="translate(13.5 25.5) rotate(130.365) scale(25.5926 29.8295)">
<stop offset="0.262384" stop-color="#E94560"/>
<stop offset="0.316101" stop-color="#E94560"/>
<stop offset="0.847059" stop-color="#533483"/>
<stop offset="0.980162" stop-color="#533483"/>
</radialGradient>
<linearGradient id="paint1_linear_749_13915" x1="63.2542" y1="-4.72059" x2="86.7516" y2="38.4857" gradientUnits="userSpaceOnUse">
<stop stop-color="#FF4D00"/>
<stop offset="0.961458" stop-color="#A33B6F"/>
</linearGradient>
</defs>
</svg>
