<svg width="170" height="80" viewBox="0 0 170 80" fill="none" xmlns="http://www.w3.org/2000/svg">
<path d="M35.0374 31.3467C35.0374 27.8005 32.513 24.7523 28.9247 23.4472C28.3937 23.2549 27.8047 23.5846 27.8047 24.0792V38.6159C27.8047 39.1105 28.3937 39.4402 28.9247 39.2478C32.513 37.9427 35.0374 34.8946 35.0374 31.3484V31.3467Z" fill="url(#paint0_linear_1967_5851)"/>
<path d="M27.8047 0.688074V21.1614C27.8047 21.4654 28.0371 21.7298 28.3757 21.8174C33.1521 23.0521 36.6402 26.8559 36.6402 31.3465C36.6402 35.8372 33.1521 39.641 28.3757 40.8757C28.0371 40.9633 27.8047 41.2294 27.8047 41.5317V59.4806C27.8047 60.0885 28.6582 60.3976 29.1671 59.9718L49.7593 42.7269C49.9136 42.5981 49.9997 42.4212 49.9997 42.2358V19.1762C49.9997 18.9993 49.9196 18.8293 49.7773 18.7023L29.1851 0.214106C28.6862 -0.234102 27.8047 0.0681384 27.8047 0.688074Z" fill="#A33B6F"/>
<path d="M14.9626 31.3467C14.9626 27.8005 17.487 24.7523 21.0753 23.4472C21.6063 23.2549 22.1953 23.5846 22.1953 24.0792V38.6159C22.1953 39.1105 21.6063 39.4402 21.0753 39.2478C17.487 37.9427 14.9626 34.8946 14.9626 31.3484V31.3467Z" fill="#A33B6F"/>
<path d="M13.3335 31.3399C13.3335 26.8424 16.8336 23.0335 21.622 21.8056C21.9606 21.718 22.195 21.4519 22.195 21.1479V0.688321C22.195 0.0683859 21.3115 -0.235571 20.8126 0.216071L0.220389 18.8107C0.0781387 18.9378 0 19.1078 0 19.2829V60.8306C0 61.0075 0.0801441 61.1775 0.222394 61.3046L20.8146 79.7859C21.3135 80.2341 22.195 79.9319 22.195 79.3119V41.5319C22.195 41.228 21.9626 40.9618 21.622 40.8742C16.8336 39.6464 13.3335 35.8375 13.3335 31.3399Z" fill="url(#paint1_linear_1967_5851)"/>
<path d="M71 36C72.6562 36 74.0703 35.4141 75.2422 34.2422C76.4141 33.0703 77 31.6562 77 30C77 28.3438 76.4141 26.9297 75.2422 25.7578C74.0703 24.5859 72.6562 24 71 24C69.3438 24 67.9297 24.5859 66.7578 25.7578C65.5859 26.9297 65 28.3438 65 30C65 31.6562 65.5859 33.0703 66.7578 34.2422C67.9297 35.4141 69.3438 36 71 36ZM59 30C59 28.4062 59.3047 26.875 59.9141 25.4062C60.5234 23.9375 61.3906 22.6406 62.5156 21.5156C63.6406 20.3906 64.9375 19.5234 66.4062 18.9141C67.875 18.3047 69.4062 18 71 18C72.5938 18 74.125 18.3047 75.5938 18.9141C77.0625 19.5234 78.3594 20.3906 79.4844 21.5156C80.6094 22.6406 81.4766 23.9375 82.0859 25.4062C82.6953 26.875 83 28.4062 83 30C83 31.5938 82.6953 33.125 82.0859 34.5938C81.4766 36.0625 80.6094 37.3594 79.4844 38.4844C78.3594 39.6094 77.0625 40.4766 75.5938 41.0859C74.125 41.6953 72.5938 42 71 42C69.4062 42 67.875 41.6953 66.4062 41.0859C65.9219 40.8828 65.4531 40.6484 65 40.3828V48H59V30ZM97.2791 42C95.6853 42 94.1541 41.6953 92.6853 41.0859C91.2166 40.4766 89.9197 39.6094 88.7947 38.4844C87.6697 37.3594 86.8025 36.0625 86.1931 34.5938C85.5837 33.125 85.2791 31.5938 85.2791 30C85.2791 28.4062 85.5837 26.875 86.1931 25.4062C86.8025 23.9375 87.6697 22.6406 88.7947 21.5156C89.9197 20.3906 91.2166 19.5234 92.6853 18.9141C94.1541 18.3047 95.6853 18 97.2791 18C98.8728 18 100.404 18.3047 101.873 18.9141C103.342 19.5234 104.638 20.3906 105.763 21.5156C106.888 22.6406 107.756 23.9375 108.365 25.4062C108.974 26.875 109.279 28.4062 109.279 30C109.279 31.5938 108.974 33.125 108.365 34.5938C107.756 36.0625 106.888 37.3594 105.763 38.4844C104.638 39.6094 103.342 40.4766 101.873 41.0859C100.404 41.6953 98.8728 42 97.2791 42ZM97.2791 36C98.9353 36 100.349 35.4141 101.521 34.2422C102.693 33.0703 103.279 31.6562 103.279 30C103.279 28.3438 102.693 26.9297 101.521 25.7578C100.349 24.5859 98.9353 24 97.2791 24C95.6228 24 94.2087 24.5859 93.0369 25.7578C91.865 26.9297 91.2791 28.3438 91.2791 30C91.2791 31.6562 91.865 33.0703 93.0369 34.2422C94.2087 35.4141 95.6228 36 97.2791 36ZM118.519 30V42H112.519V30C112.519 28.4062 112.824 26.875 113.433 25.4062C114.042 23.9375 114.91 22.6406 116.035 21.5156C117.16 20.3906 118.457 19.5234 119.925 18.9141C121.394 18.3047 122.925 18 124.519 18V24C122.863 24 121.449 24.5859 120.277 25.7578C119.105 26.9297 118.519 28.3438 118.519 30ZM136.519 33V42H130.519V33H127.519V27H130.519V24C130.519 22.4062 130.824 20.875 131.433 19.4062C132.043 17.9375 132.91 16.6406 134.035 15.5156C135.16 14.3906 136.457 13.5234 137.925 12.9141C139.394 12.3047 140.925 12 142.519 12V18C140.863 18 139.449 18.5859 138.277 19.7578C137.105 20.9297 136.519 22.3438 136.519 24V27H142.519V33H136.519ZM157.009 42C155.415 42 153.884 41.6953 152.415 41.0859C150.947 40.4766 149.65 39.6094 148.525 38.4844C147.4 37.3594 146.533 36.0625 145.923 34.5938C145.314 33.125 145.009 31.5938 145.009 30C145.009 28.4062 145.314 26.875 145.923 25.4062C146.533 23.9375 147.4 22.6406 148.525 21.5156C149.65 20.3906 150.947 19.5234 152.415 18.9141C153.884 18.3047 155.415 18 157.009 18C158.603 18 160.134 18.3047 161.603 18.9141C163.072 19.5234 164.368 20.3906 165.493 21.5156C166.618 22.6406 167.486 23.9375 168.095 25.4062C168.704 26.875 169.009 28.4062 169.009 30C169.009 31.5938 168.704 33.125 168.095 34.5938C167.486 36.0625 166.618 37.3594 165.493 38.4844C164.368 39.6094 163.072 40.4766 161.603 41.0859C160.134 41.6953 158.603 42 157.009 42ZM157.009 36C158.665 36 160.079 35.4141 161.251 34.2422C162.423 33.0703 163.009 31.6562 163.009 30C163.009 28.3438 162.423 26.9297 161.251 25.7578C160.079 24.5859 158.665 24 157.009 24C155.353 24 153.939 24.5859 152.767 25.7578C151.595 26.9297 151.009 28.3438 151.009 30C151.009 31.6562 151.595 33.0703 152.767 34.2422C153.939 35.4141 155.353 36 157.009 36Z" fill="url(#paint2_linear_1967_5851)"/>
<defs>
<linearGradient id="paint0_linear_1967_5851" x1="29.4069" y1="15.3187" x2="35.8349" y2="16.0839" gradientUnits="userSpaceOnUse">
<stop stop-color="#FF4D00"/>
<stop offset="0.67567" stop-color="#C1414B"/>
<stop offset="1" stop-color="#B0145F"/>
</linearGradient>
<linearGradient id="paint1_linear_1967_5851" x1="4.91682" y1="-40.5883" x2="24.817" y2="-39.1422" gradientUnits="userSpaceOnUse">
<stop stop-color="#FF4D00"/>
<stop offset="0.67567" stop-color="#C1414B"/>
<stop offset="1" stop-color="#B0145F"/>
</linearGradient>
<linearGradient id="paint2_linear_1967_5851" x1="82.7542" y1="-3.22059" x2="106.252" y2="39.9857" gradientUnits="userSpaceOnUse">
<stop stop-color="#FF4D00"/>
<stop offset="0.961458" stop-color="#A33B6F"/>
</linearGradient>
</defs>
</svg>
